<svg xmlns="http://www.w3.org/2000/svg" width="74" height="80" fill="#345676"><path d="M70.43 46.87c-.2.74-.45 1.46-.73 2.17-.18.41-.39.8-.63 1.18.08-.46.2-.92.36-1.36.26-.7.6-1.36 1-1.99Zm.09-11.76c.01.46.07.91.18 1.36.06.28.15.55.27.81v-.9a4.14 4.14 0 0 0-.43-1.27h-.02Zm1.72.09c-.22.4-.4.83-.55 1.27l-.18.81c.18-.27.27-.54.45-.81 0-.1.28-1.27.28-1.27Zm-.73 4.7a11.76 11.76 0 0 0-1.36 2.27c.24-.25.46-.53.64-.82.31-.44.56-.93.72-1.45Zm-1.8 1.54c-.1.55-.1 1.09-.19 1.63 0 .33.04.67.1 1 .09-.33.15-.66.17-1 0-.27-.09-1.63-.09-1.63Zm.54 8.69c-.39.4-.75.82-1.1 1.26l-.53.91c.26-.22.5-.46.72-.72.33-.47.63-.95.9-1.45Zm.3-22.17v1.72l.17 1c.08-.36.11-.73.1-1.09-.03-.27-.28-1.63-.28-1.63Zm-.91 3.8c-.2.38-.34.77-.45 1.18l-.18.72c.09-.27.27-.45.36-.72.12-.39.21-.78.27-1.18Zm-.9-7.96v1.72l.17 1c0-.37.1-.73.1-1.1 0-.35-.28-1.62-.28-1.62Zm3.7 20.45c-.25-.16-.5-.34-.72-.55a3.66 3.66 0 0 1-.45-.81v-.45c0-.18.09-.27.18-.45.17-.26.43-.45.72-.55.36-.18.64-.27.64-1.35a2.5 2.5 0 0 0-.1-.82 1.46 1.46 0 0 0-.36-.63c-.16-.1-.35-.16-.54-.18a1.32 1.32 0 0 0-1.09.45.77.77 0 0 0-.27.45c-.09.2-.2.39-.36.54-.2.12-.4.18-.63.19h-.18c-.18.2-.3.45-.37.72l-.54-.1a1.41 1.41 0 0 1 .54-1.08.34.34 0 0 1 .28-.09h.27c.18 0 .27-.09.45-.45.1-.24.25-.46.45-.63.18-.18.4-.3.64-.37a1.8 1.8 0 0 1 1.53.19c.25.22.43.5.55.81.12.32.15.66.09 1 0 1.17-.36 1.53-.82 1.71-.2.13-.38.28-.54.46a.34.34 0 0 0-.09.27v.27c.06.24.19.46.36.63.17.2.39.36.64.46l-.28.36ZM68.1 29.14a2.5 2.5 0 0 1 .1-.82.9.9 0 0 1 .35-.63c.17-.16.4-.26.64-.27.81 0 .81 0 1.08-.45l.1-.1c.07-.2.1-.41.08-.63-.06-.27-.03-.56.1-.81s.36-.44.63-.54l.09.45c-.36.09-.45.36-.45.9.02.31-.04.63-.19.9-.36.55-.54.64-1.44.64a.78.78 0 0 0-.64.54c-.07.2-.1.42-.09.64l-.36.18Zm1.27 6.7h-.46c0-.1.19-1.82 1.18-1.82a.9.9 0 0 0 .72-.45c.38-.31.66-.72.82-1.18v.1l.36-.28v.46a.47.47 0 0 1-.18.36c-.27.45-1 1.45-1.8 1.36-.46.09-.64 1.08-.64 1.44ZM39.5 18c-.36 0-.72-.1-1-.1a5.57 5.57 0 0 1-1.71-1.08c-.56.56-1.3.91-2.09 1a3.85 3.85 0 0 1-3.61-1.18A4.52 4.52 0 0 1 29 17.92c-.72.15-1.46.12-2.17-.1a4.03 4.03 0 0 1-1.9-1.08 5.48 5.48 0 0 1-1.72-2.35 6.25 6.25 0 0 1-.36-2.9c.27-2.35.82-3.52 2.17-4.52 1-.81 2.25-1.26 3.53-1.27h.36a7.99 7.99 0 0 1 3.71.55c.37.17.77.26 1.18.27.11-.23.17-.47.18-.73.07-.44.22-.87.45-1.26.18-.27.36-.45.55-.73-.3-.47-.52-.99-.64-1.53A2.39 2.39 0 0 1 35 .55c.22-.25.5-.43.81-.55h.9c.3-.01.61.02.91.1a2.3 2.3 0 0 1 1.27 1.17 4.12 4.12 0 0 1-.36 2.71c.2.16.38.34.54.55a2 2 0 0 1 .54 1.35.9.9 0 0 0 .45.73c.33 0 .64-.09.9-.27.44-.2.9-.36 1.36-.46a7.24 7.24 0 0 1 3.9.37c.09 0 .27.09.36.09.68.2 1.3.57 1.8 1.08.5.47.9 1.02 1.18 1.63.65 1.1.99 2.35 1 3.62-.19 1.1-.55 2.18-1.09 3.17a4.06 4.06 0 0 1-1.99 1.9c-1.3.38-2.7.34-3.98-.1-.44-.26-.87-.57-1.27-.9-.42.47-.95.84-1.53 1.09-.37.2-.8.27-1.2.18h.02Zm-2.8-1.81.18.09c.51.44 1.1.81 1.71 1.09.63.2 1.3.16 1.9-.1a4.35 4.35 0 0 0 1.45-1.08l.18-.18.18.18c.43.36.89.7 1.36 1 1.17.39 2.43.42 3.62.08.8-.32 1.45-.93 1.81-1.71.56-.9.9-1.93 1-2.99a6.2 6.2 0 0 0-.9-3.35 4.96 4.96 0 0 0-2.72-2.53l-.37-.1a6.25 6.25 0 0 0-3.61-.35c-.42.1-.81.24-1.18.45a2 2 0 0 1-1.18.36c-.22-.1-.4-.25-.54-.45a.98.98 0 0 1-.27-.63 1.9 1.9 0 0 0-.45-1.18c-.18-.18-.64-.72-.64-.72l-.09-.1-.09-.09c.28-.53.46-1.12.54-1.71.03-.26-.03-.52-.18-.73-.1-.22-.25-.4-.45-.54-.18-.17-.4-.3-.63-.36a1.81 1.81 0 0 0-.73-.1 2.5 2.5 0 0 0-.81.1 1.6 1.6 0 0 0-.72.45c-.2.2-.36.45-.46.72-.07.27-.1.54-.09.82.08.53.3 1.03.64 1.44l.09.19-.18.09c-.26.2-.48.44-.64.72a5.1 5.1 0 0 0-.36 1.09c0 .29-.1.57-.27.81-.27.45-.9.18-1.72-.1a7.07 7.07 0 0 0-3.44-.54h-.36a5.32 5.32 0 0 0-3.26 1.18c-1.26.9-1.72 2-1.99 4.16a5.32 5.32 0 0 0 2 4.9 4.42 4.42 0 0 0 3.8.99 5.53 5.53 0 0 0 1.98-1.18l.18-.18.19.18a3.53 3.53 0 0 0 3.43 1.18 3.01 3.01 0 0 0 1.9-1l.18-.27ZM53.6 76.9l-.1-.45s2.81-.82 3.35-2.36c.46-1.17 1.18-1.99 3.71-3.16 1.2-.8 2.24-1.82 3.08-2.99a8.35 8.35 0 0 0 1.63-2.71c.33-.83.76-1.62 1.27-2.35.55-.74.9-1.62 1-2.54-.02-.32.08-.64.26-.9.9-1.36 1.27-2.08 1.63-2.72l.1-.18c.6-1.23.92-2.6.9-3.98.09-.8.37-1.58.81-2.26.51-.74.76-1.63.72-2.53-.12-1.38.03-2.76.46-4.08 0 0 .9-5.7.45-8.05-.4-1-.7-2.02-.9-3.07a12.37 12.37 0 0 1-.64-4.08 8.88 8.88 0 0 0-1.36-5.42l-.45-.73c-1-1.45-2.08-3.07-2.17-4.25A4.94 4.94 0 0 0 65 14.57a4.6 4.6 0 0 1-1.18-1.45 5.52 5.52 0 0 0-1.08-1.44 11.1 11.1 0 0 0-1.72-.19h-.28l.28-1.62c-.98 0-1.95-.1-2.9-.28a4.59 4.59 0 0 1-1.45-.81 5.2 5.2 0 0 0-3.43-1.27c-1.9.1-3.62.37-4.26.46l.46.63c.36.56.63 1.17.8 1.8l.19.55c.26.73.29 1.52.1 2.26a13.2 13.2 0 0 1-.64 1.72 8.6 8.6 0 0 1-.9 1.54c-.28.45.35 2.44.8 3.17 1.45 1.9 2.9 3.7 4.53 5.52v.18l-.09.18a3.09 3.09 0 0 0-.63 1.99c.1.27.29.5.54.63h.12c.45.18 1.35.64 1.17 1.27 0 .09-.09.18-.09.27a.32.32 0 0 0-.09.18v.18c.12.2.18.41.18.64.02.21-.01.43-.09.63v.09h-.09a1.71 1.71 0 0 0-.9 1.18c0 .43.1.86.27 1.26.2.4.47.73.81 1 .27.26.48.57.64.9.02.33.15.65.36.9l.09.19a.77.77 0 0 1 0 .63.9.9 0 0 1-.36.45c-.28.32-.5.7-.64 1.09 0 .4.1.8.28 1.18a1.32 1.32 0 0 1-.45 1.63c-.36.34-.62.78-.73 1.26-.18.9-.18 1.82 0 2.72a9.32 9.32 0 0 1-.1 3.16c-.1.56-.38 1.07-.8 1.45-.32.3-.54.67-.64 1.09-.09.47-.09.96 0 1.44.08.58.01 1.17-.18 1.72a7.5 7.5 0 0 1-1.72 2.45 9.58 9.58 0 0 0-1.99 2.62c-.45.93-.82 1.9-1.08 2.9a9.62 9.62 0 0 1-.82 2.26l-.54-.64c.36-.71.64-1.47.81-2.26a12.04 12.04 0 0 1 3.26-5.7 6.12 6.12 0 0 0 1.63-2.35c.12-.47.15-.97.09-1.45a4.92 4.92 0 0 1 0-1.63c.16-.46.44-.86.81-1.17.38-.33.63-.78.73-1.27.2-.95.26-1.93.18-2.9-.18-.98-.18-2 0-2.98a2.29 2.29 0 0 1 .9-1.54c.2-.17.36-.39.45-.63a.6.6 0 0 0-.09-.55c-.18-.4-.27-.83-.27-1.26.16-.51.44-.98.82-1.36.09-.1.18-.1.27-.18a.34.34 0 0 0 .09-.27l-.1-.18a2 2 0 0 1-.44-1c-.1-.3-.3-.55-.55-.72-.4-.31-.7-.72-.9-1.18a3.76 3.76 0 0 1-.27-1.45c.08-.28.2-.56.36-.81.19-.23.4-.45.63-.63.06-.28.03-.56-.09-.82a.54.54 0 0 1-.09-.36c0-.1.1-.27.1-.36l.08-.18c0-.1 0-.27-.9-.73h-.1a.9.9 0 0 1-.45-.36c-.09-.18-.27-.36-.27-.54-.07-.78.16-1.56.64-2.17a50.5 50.5 0 0 1-4.44-5.43c-.36-.54-1.35-2.99-.81-3.71.33-.46.64-.95.9-1.45.25-.46.46-.95.64-1.45.2-.68.16-1.41-.1-2.08l-.45-.36c-.14-.6-.39-1.19-.72-1.72a5.5 5.5 0 0 0-.63-.9l-.27-.27.36-.1s2.17-.36 4.61-.54a5.52 5.52 0 0 1 3.71 1.36c.4.3.82.54 1.27.72 1.01.18 2.04.27 3.07.27h.37l-.28 1.63c.62 0 1.23.09 1.81.27.47.46.86.98 1.18 1.54.2.54.54 1.01 1 1.36 1.62 1.18 2.44 2.44 2.53 3.89.09 1.09 1.18 2.71 2.08 4.07l.45.73a9.15 9.15 0 0 1 1.45 5.7c-.02 1.32.2 2.64.63 3.89.28.9.55 1.9.82 3.25.54 2.45-.36 8.06-.45 8.24-.38 1.29-.53 2.63-.46 3.98.09.96-.17 1.92-.72 2.71a4.43 4.43 0 0 0-.72 2.08c-.01 1.42-.35 2.81-1 4.07l-.18.1c-.36.63-.72 1.35-1.63 2.7a1.7 1.7 0 0 0-.18.73c-.1 1.02-.47 2-1.09 2.8a8.02 8.02 0 0 0-1.26 2.27 9.05 9.05 0 0 1-1.72 2.8 11.7 11.7 0 0 1-3.26 3.08c-2.35 1.09-3.08 1.81-3.44 2.9-.57 1.72-3.46 2.53-3.55 2.53Zm-34.84-.1a11.47 11.47 0 0 1-6.42-3.97 13.78 13.78 0 0 1-2.8-4.34A10.1 10.1 0 0 0 7 64.88L2.7 59.72l-.19-.27 1.36-.55c-1-2.05-1.88-4.17-2.62-6.33a7.6 7.6 0 0 0-.45-1.63c-.28-1-.46-1.54-.55-4.97.02-.67.08-1.34.18-2 0-.08.1-.27.1-.36l.27-.27a.33.33 0 0 1 .27-.09 5.3 5.3 0 0 1-.9-1.54c-.17-.9-.2-1.8-.1-2.71v-.72c0-3.8.63-9.6.63-9.69v-.36l1 .64c.1-.97.35-1.91.72-2.8.18-.46.37-.91.55-1.46 1.17-3.53 2.98-8.77 10.67-14.65 4.98-3.9 11.22-2.8 11.31-2.8l.46.08-.37.27-.45.37-.09.09c-.24.22-.43.5-.54.81-.54.93-.83 2-.82 3.08a5.43 5.43 0 0 0 1.27 3.8c.48.73 1.18 1.3 2 1.62l.44.1-.36.27s-3.7 3.34-4.8 4.61c-1.08 1.27-2.17 2.8-3.7 7.33a32.3 32.3 0 0 0-.9 9.32 33.9 33.9 0 0 0 2.07 7.15 42.2 42.2 0 0 1 2.54 7.42c.1.56.16 1.14.18 1.72 0 .67.08 1.34.27 1.99a25.5 25.5 0 0 0 1.9 3.43c.8 1.16 1.53 2.37 2.17 3.62l-.36.18a29.48 29.48 0 0 0-2.17-3.62c-.8-1.09-1.48-2.27-2-3.52a8.92 8.92 0 0 1-.27-2.18 9.94 9.94 0 0 0-.18-1.62 43 43 0 0 0-2.53-7.24A34.68 34.68 0 0 1 16.62 39c-.15-3.2.15-6.4.9-9.5 1.54-4.52 2.63-6.06 3.8-7.42.9-1.09 3.71-3.62 4.62-4.43a6.84 6.84 0 0 1-1.9-1.72c-.5-.55-.87-1.2-1.09-1.9a5.98 5.98 0 0 1-.27-2.17 6.78 6.78 0 0 1 1.54-4.17l.09-.09.09-.09c-3.72-.35-7.45.64-10.5 2.8-7.6 5.8-9.34 11.05-10.52 14.48a16.95 16.95 0 0 0-1.27 4.52v.37l-.99-.63c-.38 3.09-.56 6.2-.54 9.32v.72c-.1.84-.08 1.7.09 2.53.25.69.65 1.3 1.17 1.81l.64.64-.82-.28a.58.58 0 0 0-.54 0c-.09 0-.09.1-.09.19s-.1.09-.1.18c-.1.63-.16 1.26-.17 1.9.09 3.34.27 3.89.54 4.8.21.55.37 1.12.48 1.71A44.05 44.05 0 0 0 4.5 59l.1.19-1.36.54c.72.81 2.98 3.53 4.25 4.88 1.1 1.1 2 2.38 2.62 3.8.65 1.57 1.57 3.01 2.72 4.26a11 11 0 0 0 6.15 3.8l-.2.36Zm6.25-40.43c-.01.25-.07.5-.18.72-.13.2-.28.38-.46.54-.19.16-.4.28-.63.36-.3.08-.6.1-.9.1h-.46c-.09 0-.27-.1-.36-.1-.09 0-.18-.09-.27-.09l-.18-.09a.1.1 0 0 1-.07-.02.1.1 0 0 1-.02-.07v-.81h.09c.09 0 .09 0 .18.09l.27.09c.1.09.18.09.36.09s.27.09.45.09c.16.01.32-.02.46-.09.18-.1.27-.1.36-.27.09-.18.18-.18.18-.27a.34.34 0 0 0 .1-.27.54.54 0 0 0-.1-.37c-.09-.09-.09-.18-.18-.27-.1-.09-.18-.09-.36-.18a3.9 3.9 0 0 1-.46-.09h-.63a.09.09 0 0 1-.09-.09v-.63a.09.09 0 0 1 .1-.1h.44c.16.02.32-.01.46-.08.09 0 .18-.1.36-.18.18-.1.18-.19.18-.28 0-.09.09-.18.09-.36v-.27a.2.2 0 0 0-.18-.18c-.1-.1-.18-.1-.27-.18a.28.28 0 0 0-.36 0 .81.81 0 0 0-.46.09c-.09 0-.27.09-.36.09l-.27.09a.32.32 0 0 1-.18.09v-.72a.32.32 0 0 1 .09-.18l.18-.1c.09-.09.18-.09.36-.09.14-.07.3-.1.45-.09h.55c.24-.02.49.02.72.1l.54.27c.17.1.3.26.37.45.08.2.1.42.09.63.02.16-.01.32-.1.45a.47.47 0 0 1-.18.37l-.27.27c-.09.09-.27.09-.36.18.18 0 .27.09.45.18a1.12 1.12 0 0 1 .55.72c-.08.14-.1.3-.1.46Zm5.15 1.17c0 .1.1.18.1.27V38c-.1 0-.1.1-.19.1h-.81a.09.09 0 0 1-.1-.1v-.09l-.35-1.08h-2l-.36 1.08v.1l-.09.08h-.72c-.1 0-.1 0-.18-.09v-.18a.33.33 0 0 1 .09-.27l1.63-4.88a.1.1 0 0 1 .02-.07.1.1 0 0 1 .07-.02l.09-.1h1.17a.09.09 0 0 1 .1.1l.09.09 1.44 4.88Zm-2.44-4.07L27 35.83h1.53l-.8-2.35Zm7.15 4.34c0 .1-.1.1-.1.18h-.9a.09.09 0 0 1-.09-.09l-.09-.09-.45-1.26c-.1-.18-.1-.27-.18-.46-.1-.18-.1-.18-.18-.27-.1-.09-.18-.09-.27-.18-.1-.09-.18-.09-.37 0h-.27V38l-.09.1c0-.1-.09-.1-.18-.1h-.72a.09.09 0 0 1-.1-.09V32.5l.1-.1h.9a.09.09 0 0 1 .1.1v2.17h.63c.09 0 .18-.1.27-.18.09-.1.18-.19.18-.28 0-.09.09-.27.18-.45l.27-1.17.1-.1.08-.09h.9a.09.09 0 0 1 .1.1v.27l-.1.18-.36 1c-.09.17-.09.26-.18.45l-.18.36-.27.27-.27.18c.1.09.18.09.27.18l.27.27c.1.1.18.27.27.36.09.14.15.3.19.46l.45 1.17c0 .1.09.18.09.27v-.09Zm5.34-2.71a6.1 6.1 0 0 1-.18 1.27c-.1.32-.25.63-.46.9-.19.28-.48.47-.81.54-.35.1-.72.17-1.09.18a2.3 2.3 0 0 1-1.08-.18c-.3-.1-.55-.28-.73-.54-.2-.27-.35-.58-.45-.9a6.1 6.1 0 0 1-.18-1.27c.02-.4.08-.8.18-1.18.1-.32.25-.63.45-.9.2-.28.49-.47.82-.54a2.3 2.3 0 0 1 1.08-.19c.37.02.74.08 1.09.19.3.11.59.3.81.54.2.27.36.58.46.9 0 .36.09.82.09 1.18Zm-1.18 0a2.5 2.5 0 0 0-.09-.82.98.98 0 0 0-.27-.63.9.9 0 0 0-.45-.36c-.2-.1-.42-.16-.64-.18a.76.76 0 0 0-.63.18c-.2.1-.35.26-.45.45-.11.2-.2.42-.27.64 0 .27-.1.45-.1.72-.01.27.02.55.1.81 0 .24.1.47.27.64.1.16.26.3.45.36.2.1.41.16.63.18a1.31 1.31 0 0 0 1.09-.63c.1-.2.2-.42.27-.64.08-.23.11-.48.09-.72Zm6.24 2.71c-.09.1 0 .1 0 0l-.27.1h-.63a.09.09 0 0 1-.1-.1v-2.35H42.2v2.35a.09.09 0 0 0-.1.1h-.9a.09.09 0 0 1-.09-.1V32.5l.1-.1h.9l.09.1v2.08h1.99v-2.08l.09-.1h.81l.1.1a.09.09 0 0 1 .08.09v5.24Zm2.99-3.34h.63c.3-.02.61.01.9.09.24.08.45.2.64.36.15.16.27.34.36.54.12.23.18.47.18.72.02.25-.01.5-.09.73-.09.18-.18.45-.36.54-.19.16-.4.28-.63.36-.35.1-.7.17-1.06.18h-1.27a.09.09 0 0 1-.09-.09l-.09-.09V33.4h-1.27a.09.09 0 0 0-.09-.1v-.8h2.09a.09.09 0 0 1 .09.09.34.34 0 0 1 .09.27l-.03 1.63Zm1.63 1.71a.54.54 0 0 0-.1-.36c0-.09-.08-.18-.17-.27-.1-.09-.18-.18-.28-.18-.16-.07-.33-.1-.51-.09h-.63v1.8h.63c.18.02.37 0 .54-.08.1 0 .18-.1.27-.18.1-.1.1-.18.18-.27a.54.54 0 0 0 .07-.37Zm2.8 4.71H19.67V29.68h33.02V40.9Zm-32.57-.45h32.12V30.13H20.12v10.32Zm28.95 26.5H23.65v-2.7h25.51v2.7h-.09Zm-25.06-.45h24.61v-1.8h-24.6v1.8Zm29.13 6.79H19.58v-6.7h33.56v6.7Zm-33.2-.36h32.84v-5.97H19.94v5.97Zm24.43-47.95H28.08v-3.26h16.29v3.26Zm-15.93-.37h15.57v-2.44H28.53l-.09 2.44Zm18.64-1.9H25.37v-2.53h21.71v2.53Zm-.54-1.9H26.21v-2.53h20.36l-.03 2.53Zm-19.9-.45H46.1v-1.72H26.63v1.72Zm18.63-3.08a4.18 4.18 0 0 1-3.07-1.62 4 4 0 0 1-3.08 1.44 4.17 4.17 0 0 1-2.35-1.35A3.4 3.4 0 0 1 34.05 17a4.26 4.26 0 0 1-1.53-.36 4.4 4.4 0 0 1-1.27-1 6.9 6.9 0 0 1-2.9 1.54c-.97 0-1.92-.32-2.71-.9l.27-.36c.7.53 1.56.82 2.44.81 1.04-.3 2-.82 2.8-1.54l.19-.18.18.18a3.87 3.87 0 0 0 2.62 1.45 3.36 3.36 0 0 0 2.45-1.27l.18-.27.18.27c.56.72 1.37 1.2 2.26 1.36a3.68 3.68 0 0 0 1.63-.45c.48-.28.91-.65 1.27-1.09l.18-.27.18.27c.33.46.77.83 1.27 1.09.5.27 1.05.46 1.62.54.7.1 1.43 0 2.08-.27l.28.36c-.8.26-1.62.38-2.45.36ZM31.7 8.24a.81.81 0 0 1-.09.45c-.09.09-.18.27-.36.27a.4.4 0 0 1-.45 0c-.18-.09-.27-.09-.37-.27a.69.69 0 0 1-.18-.45.81.81 0 0 1 .1-.46.73.73 0 0 1 .8-.27c.19 0 .28.1.37.27.1.19.18.28.18.46Zm1 1.63a.81.81 0 0 1-.1.45c-.08.09-.17.27-.36.27a.4.4 0 0 1-.45 0c-.18 0-.27-.1-.36-.27a.69.69 0 0 1-.18-.45.82.82 0 0 1 .09-.46.73.73 0 0 1 .81-.27c.18 0 .28.1.37.27.09.18.18.27.18.46Zm1 1.71a.71.71 0 0 1-.46.73.4.4 0 0 1-.45 0c-.18-.1-.27-.1-.36-.27a.69.69 0 0 1-.19-.46.81.81 0 0 1 .1-.45.73.73 0 0 1 .8-.27c.19 0 .28.1.37.27.1.18.18.27.18.45Zm7.68-.45a.81.81 0 0 0-.09-.45c-.09-.1-.18-.27-.36-.27a.4.4 0 0 0-.45 0c-.18 0-.27.09-.36.27a.69.69 0 0 0-.18.45c-.02.16.01.32.09.45.1.12.22.2.36.28a.4.4 0 0 0 .45 0c.18 0 .27-.1.36-.28a.59.59 0 0 0 .18-.45Zm1-1.72a.81.81 0 0 0-.1-.45c-.08-.09-.17-.27-.35-.27a.4.4 0 0 0-.46 0 .79.79 0 0 0-.54.72c-.01.16.02.32.1.46.1.1.22.2.35.27a.4.4 0 0 0 .45 0c.19 0 .28-.1.37-.27a.59.59 0 0 0 .18-.46Zm.9-1.72a.69.69 0 0 0-.18-.45c-.1-.11-.22-.2-.36-.27a.4.4 0 0 0-.45 0c-.18 0-.27.1-.36.27a.69.69 0 0 0-.19.45c-.01.16.02.32.1.46.1.1.22.2.36.27a.4.4 0 0 0 .45 0 .47.47 0 0 0 .36-.18.78.78 0 0 0 .27-.55Zm-24.3 2c0 .18-.1.27-.28.36h-.18c-.1 0-.1-.1-.18-.1-.1 0-.1-.08-.1-.17v-.19c0-.09.1-.09.1-.18s.09-.09.18-.09h.09a.1.1 0 0 1 .09.1l.09.08c.18 0 .18.1.18.18Zm-1.64 3.52c0 .1 0 .18-.09.18s-.09.1-.18.1h-.18c-.09 0-.09-.1-.18-.1-.1 0-.1-.09-.1-.18v-.18c0-.09.1-.09.1-.18s.09-.09.18-.09a.33.33 0 0 1 .27.1c.16.17.16.26.16.35h.02Zm1.81 3.62c0 .1 0 .18-.09.18s-.09.1-.18.1h-.18c-.1 0-.18 0-.18-.1a.54.54 0 0 1-.1-.36c0-.09.1-.09.1-.18s.09-.09.18-.09h.09l.1.1.08.08c.16.18.16.18.16.27h.02Zm-4.34 6.25c0 .09 0 .18-.1.18-.08 0-.08.09-.17.09h-.18a.32.32 0 0 1-.18-.1c-.1-.08-.1-.08-.1-.17v-.19c0-.09.1-.09.1-.18s.09-.09.18-.09h.18l.09.1.09.08a.7.7 0 0 1 .06.28h.03Zm-3.98 7.23c0 .1 0 .18-.1.18-.08 0-.08.1-.17.19h-.18a.29.29 0 0 1-.28-.28v-.18c0-.09.1-.09.1-.18s.09-.09.18-.09h.18a.2.2 0 0 1 .18.18c.09.1.09.1.09.18Zm.63 7.24c0 .1 0 .18-.09.18s-.09.1-.18.18h-.18a.29.29 0 0 1-.27-.27v-.18c0-.09.09-.09.09-.18s.09-.09.18-.09h.18a.2.2 0 0 1 .18.18c.06.1.06.1.06.18h.03Zm3.35 1.63c0 .1 0 .18-.1.18-.08 0-.08.1-.17.18h-.18a.32.32 0 0 1-.18-.09c-.1-.09-.1-.09-.1-.18v-.18c0-.1.1-.1.1-.18 0-.1.09-.1.18-.1h.18a.1.1 0 0 1 .06.03.09.09 0 0 1 .03.07l.09.09c.06.09.06.09.06.18h.03ZM9 38c0 .1 0 .19-.08.19-.1 0-.1.09-.18.18h-.18c-.1 0-.1-.1-.18-.1-.1 0-.19-.27-.1-.36.1-.09.1-.09.1-.18s.09-.09.18-.09h.18l.09.1.09.08c.09 0 .09.1.09.18Zm-5.33 6.16c0 .18-.09.27-.27.36h-.18a.32.32 0 0 1-.18-.1c-.1-.08-.1-.08-.1-.17v-.18c0-.1.1-.1.19-.18.09-.1.09-.1.18-.1h.18a.09.09 0 0 1 .09.1l.1.09v.18Zm-1.72-5.52c0 .09 0 .18-.09.18s-.09.09-.18.18h-.18c-.1 0-.1 0-.18-.1-.1-.08-.1-.08-.1-.17v-.18c0-.1.1-.1.19-.18.09-.1.09-.1.18-.1h.18a.1.1 0 0 1 .1.1l.08.09v.18Zm7.96 7.69c0 .09 0 .18-.09.18s-.09.09-.18.18h-.18c-.09 0-.09-.09-.18-.09s-.09-.1-.09-.18v-.18c0-.1.09-.1.09-.18 0-.1.1-.1.18-.1h.18a.2.2 0 0 1 .18.19c.05.05.08.11.1.18ZM3.6 48.32c0 .09 0 .18-.09.18-.1 0-.1.09-.18.18h-.18a.32.32 0 0 1-.18-.09c-.1-.09-.1-.09-.1-.18v-.18c0-.1.1-.1.19-.18h.36c.09 0 .09 0 .09.09l.09.09v.09Zm2.71 5.43c0 .09 0 .18-.09.18s-.09.09-.18.18h-.18a.32.32 0 0 1-.18-.1c-.09-.08-.18-.08-.18-.17v-.18c0-.1.1-.1.18-.18.1-.1.1-.1.18-.1h.18l.1.1.08.09c-.02.09-.02.18.1.18Zm5.8-8.24c0 .1 0 .18-.1.18-.09 0-.09.1-.18.19h-.18a.32.32 0 0 1-.18-.1c-.09-.09-.09-.09-.09-.18v-.18a.33.33 0 0 1 .45-.18.1.1 0 0 1 .1.1.2.2 0 0 1 .15.17h.03Zm4.07 2.54c0 .09 0 .18-.1.18l-.17.18h-.19c-.09 0-.09-.1-.18-.1a.34.34 0 0 1-.09-.26v-.18c0-.1.1-.1.1-.18 0-.1.08-.1.17-.1h.1a.1.1 0 0 1 .09.1l.09.09c.06.09.15.18.15.27h.03Zm2.44 4.25c0 .09 0 .18-.1.18-.08 0-.08.1-.17.18h-.18a.29.29 0 0 1-.27-.27v-.18c0-.1.09-.1.09-.18 0-.1.09-.1.18-.1h.18a.2.2 0 0 1 .18.19c.04.05.06.11.06.18h.03Zm-4.34 1.8c0 .1 0 .19-.1.19-.08 0-.08.1-.17.18h-.19a.29.29 0 0 1-.27-.27v-.18a.09.09 0 0 1 .1-.1c.08 0 .08-.08.17-.08H14a.2.2 0 0 1 .18.18.1.1 0 0 0 .06.09h.03Zm9.38 8.33c0 .1 0 .18-.1.18-.08 0-.08.1-.17.19h-.18c-.1 0-.18 0-.18-.1 0-.09-.19-.27-.1-.36.1-.09.1-.09.1-.18s.09-.09.18-.09h.09a.1.1 0 0 1 .09.1l.09.08c.18.1.18.1.18.18Zm-7.6-.36c0 .1 0 .18-.1.18-.08 0-.08.1-.17.18a.33.33 0 0 1-.45-.18v-.27c0-.09.09-.09.09-.18 0-.1.09-.1.18-.1a.42.42 0 0 1 .45.37Zm-1.27 1.27h.18c.07 0 .14.04.18.09.1.09.1.09.1.18v.18c0 .1-.1.1-.19.18-.09.1-.09.1-.18.1s-.18 0-.18-.1c0-.09-.09-.09-.09-.18v-.27c.1-.1.1-.18.18-.18Zm-4.7.36h.18c.09 0 .09.09.18.09.07.1.1.23.09.36 0 .1-.1.1-.18.18h-.18c-.1 0-.18 0-.18-.09s-.1-.09-.1-.18v-.27s.03-.09.19-.09Zm2.17-2.35h.18c.09 0 .09.09.18.09a.34.34 0 0 1 .1.27v.18c0 .1-.1.1-.19.18h-.18c-.1 0-.18 0-.18-.09s-.1-.09-.1-.18v-.36l.19-.1Zm5.16 11.49h.18c.09 0 .09.09.18.09s.09.09.09.18v.18c0 .1-.1.1-.18.18-.1.1-.1.1-.18.1-.1 0-.18 0-.18-.1 0-.09-.1-.09-.1-.18v-.36l.1-.1h.09Zm-2.18-.82h.19c.09 0 .09.1.18.1s.09.08.09.18v.18c0 .09-.1.09-.18.18-.1.09-.1.09-.18.09-.1 0-.19 0-.19-.1 0-.08-.09-.08-.09-.17v-.37l.1-.09c0 .1 0 0 .08 0Zm-4.7-5.06h.18c.1 0 .1.09.18.09.1 0 .1.09.1.18v.18c0 .09-.1.09-.19.18-.09.1-.09.1-.18.1s-.18 0-.18-.1c0-.09-.1-.09-.1-.18v-.27a.2.2 0 0 1 .19-.18ZM11.8 55c0 .1 0 .19-.1.19-.08 0-.08.09-.17.18h-.19a.29.29 0 0 1-.27-.28v-.18c0-.09.1-.09.1-.18s.08-.09.17-.09a.42.42 0 0 1 .46.36Zm-4.8 2c0 .09 0 .18-.09.18s-.09.09-.18.18h-.18c-.1 0-.18-.1-.27-.1a.32.32 0 0 0-.1-.18v-.18c0-.09.1-.09.19-.18s.09-.09.18-.09h.18a.2.2 0 0 1 .18.18c.1 0 .1.1.1.18Zm-1.6 1.35c0 .1 0 .18-.1.18-.08 0-.08.1-.17.18h-.18a.32.32 0 0 1-.18-.09c-.1-.09-.1-.09-.1-.18v-.18c0-.09.1-.09.19-.18s.09-.09.18-.09h.18l.09.09.09.1a.13.13 0 0 0 0 .17Zm2.53-28.23c0 .1 0 .18-.09.18s-.09.1-.18.18h-.18c-.09 0-.09 0-.18-.09-.1-.09-.1-.09-.1-.18v-.18a.33.33 0 0 1 .46-.18.1.1 0 0 1 .1.1.2.2 0 0 1 .15.17h.02Zm-4.52-.45c0 .1 0 .18-.1.18-.08 0-.08.1-.17.18h-.18c-.1 0-.1 0-.18-.09-.1-.09-.1-.09-.1-.18v-.18c0-.1.1-.1.1-.18 0-.1.09-.1.18-.1h.18a.2.2 0 0 1 .18.19c.04.05.06.11.06.18h.03ZM22.02 18.1c0 .09 0 .18-.09.18s-.09.1-.18.1h-.18a.32.32 0 0 1-.18-.1c-.1-.09-.1-.09-.1-.18v-.18c0-.1.1-.1.1-.18 0-.1.09-.1.18-.1h.18l.09.1.09.09c.09.18.09.18.09.27Zm-4.61 6.33c0 .1 0 .18-.1.18-.08 0-.08.1-.18.1h-.18a.29.29 0 0 1-.27-.28v-.18c0-.09.1-.09.1-.18s.08-.09.17-.09h.1a.09.09 0 0 1 .08.1l.1.08c.18.18.18.18.18.27Zm-3.8-10.76c0 .09 0 .18-.1.18-.08 0-.08.09-.18.09h-.18c-.09 0-.09-.1-.18-.1s-.09-.08-.09-.17v-.19c0-.09.1-.09.1-.18s.08-.09.17-.09h.18l.28.27v.19Zm-2.18 2.9c0 .08 0 .17-.09.17s-.09.1-.18.1h-.18c-.09 0-.09-.1-.18-.1s-.09-.09-.09-.18v-.18a.32.32 0 0 1 .18-.09c.1 0 .1-.1.18-.1h.18a.2.2 0 0 1 .18.19v.18ZM26.1 64.5h-.45a3.35 3.35 0 0 0-.72-1.62.69.69 0 0 1-.19-.37c-.97-1.36-2.09-2.6-3.34-3.7-.1.08-.27.17-.36.27l-.1.09c-.29.3-.56.64-.81 1a8.14 8.14 0 0 0-.81 2.98l-.46-.1c.17-1.08.47-2.15.9-3.16.28-.38.59-.75.91-1.09l.1-.09.54-.45.18-.09.09.18a29.96 29.96 0 0 1 3.53 3.98c.09.1.09.18.18.36.46.5.75 1.14.81 1.81ZM14.45 67.5c-.27-.27-5.61-6.42-5.16-11.13.15-2.58.9-5.08 2.17-7.33l.18-.27.18.27s1.63 2.8 2.45 3.9c.5.65 1.05 1.29 1.63 1.9.67.66 1.27 1.38 1.8 2.16l.46.64a5.3 5.3 0 0 1 1.35 3.26c.1.76 0 1.54-.27 2.26l-.36-.18c.27-.66.37-1.38.27-2.08a6.4 6.4 0 0 0-1.35-3l-.46-.62a19.1 19.1 0 0 0-1.72-2.09c-.57-.6-1.12-1.23-1.62-1.9-.73-.9-1.81-2.89-2.27-3.61a17.83 17.83 0 0 0-1.99 6.78c-.45 4.62 4.98 10.77 5.07 10.86l-.36.18Zm-5.07-8.96c-.09-.27-2.26-5.7-2.26-8.5 0-3.52 1.33-6.91 3.7-9.5l.28-.27.09.27 1.9 4.97c.19.28.34.59.45.9a30.94 30.94 0 0 1 1.9 3.9c.2 1.32.26 2.65.18 3.98h-.45c.08-1.3.02-2.6-.18-3.89-.5-1.32-1.1-2.59-1.8-3.8-.18-.3-.33-.6-.46-.9a143.4 143.4 0 0 1-1.81-4.71 13.75 13.75 0 0 0-3.35 8.96c0 2.71 2.17 8.23 2.17 8.32l-.36.27Zm6.33-3.8-.45-.09c.19-1.33.62-2.62 1.27-3.8.51-.8.93-1.64 1.27-2.53l.09-.36.27.27 1.72 1.63a7.75 7.75 0 0 1 1.62 3.62l-.45.09a7 7 0 0 0-1.54-3.44c-.18-.27-1.08-1-1.44-1.45-.34.81-.73 1.6-1.18 2.35-.59 1.17-1 2.42-1.2 3.71h.02ZM11.8 66.05a11.6 11.6 0 0 1-4.6-1.17l.19-.37c4.25 1.81 5.7.9 5.7.9l.27.37c-.48.23-1.03.33-1.56.27ZM9.62 59.1a9.13 9.13 0 0 0-2.89-2.99c-.75-.37-1.54-.64-2.35-.81a3.9 3.9 0 0 1-2.36-1.18c-.8-1.27-.8-1.72-.45-5.52v-.09a8.9 8.9 0 0 1 .64-3.08l.18-.18.18.1c.9.59 1.71 1.29 2.44 2.07a99.02 99.02 0 0 0 2.53 2.36l-.27.36s-.72-.64-2.53-2.44l-2.17-1.9c-.27.85-.45 1.73-.55 2.62v.09c-.27 3.7-.36 4.07.37 5.25.56.56 1.3.91 2.1 1 .86.16 1.69.46 2.45.9A8.36 8.36 0 0 1 10 58.72l-.38.37ZM6.1 48.59h-.46s.18-4.16 0-5.8a13.2 13.2 0 0 0-2.05-5.51 29.37 29.37 0 0 0-3.17-3.53l.27-.27a23.9 23.9 0 0 1 3.17 3.62c1.16 1.7 1.9 3.66 2.17 5.7.16 1.63.07 5.7.07 5.79Zm8.05-1.09-.45-.09c.1-.9.25-1.82.45-2.71.09-.36-.82-2.71-1.81-4.7v-.19c.06-1.36-.06-2.73-.36-4.07a21.6 21.6 0 0 0-1.36-3.35c-1 1.06-1.94 2.18-2.8 3.35C6.64 37.2 6 41.9 6 41.9l-.46-.09c0-.18.73-4.8 1.9-6.42a26.23 26.23 0 0 1 3.08-3.53l.18-.18.18.27c.7 1.13 1.26 2.35 1.63 3.62.35 1.36.47 2.77.36 4.16.45 1.09 2 4.35 1.81 4.98-.18.63-.54 2.9-.54 2.8Zm1.63-23.97-.1-.45a7.53 7.53 0 0 1 4.9 0l-.19.45a6.74 6.74 0 0 0-4.61 0Zm-3.9 48.4-.15-.45a9.24 9.24 0 0 1 6.43-.09l-.18.36a8.76 8.76 0 0 0-6.1.18ZM6.65 25.61l-.45-.1a7.74 7.74 0 0 0-1.09-5.96l.36-.18c.6.9 1 1.91 1.18 2.98a6.61 6.61 0 0 1 0 3.26Zm-1.36 6.33a6.88 6.88 0 0 0-1-2.98 8.65 8.65 0 0 0-2.07-2.36l.27-.36a7.98 7.98 0 0 1 3.16 5.61l-.36.1Zm14.6-21.44c.33-.46.76-.83 1.26-1.09.5-.25 1.01-.46 1.54-.63 0 0-1 .72-1.36.9-.36.19-1.44.82-1.44.82Zm-9.05 4.8c.22-.78.55-1.5 1-2.18.52-.61 1.1-1.19 1.71-1.72l-1.17 2c-.3.45-1.54 1.9-1.54 1.9Zm8.32 4.16c.25-.8.65-1.54 1.18-2.18a8.22 8.22 0 0 1 1.9-1.62s-1 1.53-1.36 1.99c-.36.45-1.74 1.8-1.74 1.8h.02Zm-3.73 8.6c.27-.55.6-1.07 1-1.55.44-.44.96-.8 1.53-1.08 0 0-.9 1.08-1.18 1.36-.27.27-1.35 1.26-1.35 1.26Zm-.97 7.6a4 4 0 0 1 .27-1.82c.27-.56.57-1.1.9-1.63-.1.59-.26 1.16-.45 1.72-.2.36-.72 1.72-.72 1.72Zm2.9 12.66a4.52 4.52 0 0 1-.82-2.17c-.1-.78-.1-1.57 0-2.36 0 0 .45 1.63.54 2.18.1.54.25 2.35.25 2.35h.02Zm-6.8 0a7.62 7.62 0 0 1-.36-2.44c.1-.84.28-1.65.55-2.45 0 0 .09 1.81.09 2.45 0 .63-.3 2.44-.3 2.44h.03Zm-.17-8.23A6.08 6.08 0 0 1 10 37.9c.03-.7.15-1.4.37-2.08 0 0 .18 1.63.18 2.08 0 .46-.21 2.18-.21 2.18h.03Zm-1.45 3.16-.36-.9c-.18-.43-.27-.9-.28-1.36.02-.46.08-.91.19-1.36l.27-1.17.09 1.17s.09 1 .09 1.27-.1 1.27-.1 1.36l.1 1Zm-3.98 2.72a6.08 6.08 0 0 1-.36-2.18c.02-.7.14-1.4.36-2.08 0 0 .18 1.63.18 2.18 0 .54-.21 2.08-.21 2.08h.03Zm9.95-3.26c-.1-.72-.08-1.46.09-2.17.18-.7.45-1.37.81-2-.06.7-.19 1.4-.36 2.09-.2.45-.57 2.08-.57 2.08h.03Zm-12.03-.54a6.33 6.33 0 0 1-.28-2.63c.1-.82 0-1.66-.27-2.44.44.73.74 1.52.9 2.35a91.4 91.4 0 0 0-.38 2.72h.03Zm5.6-9.87c-.01-.8.1-1.6.37-2.35.34-.72.73-1.42 1.17-2.08 0 0-.45 1.72-.63 2.26-.18.55-.93 2.17-.93 2.17h.03Zm-2.26 3.8c.04-.55.16-1.1.37-1.62.24-.52.55-1 .9-1.45 0 0-.36 1.17-.54 1.54l-.75 1.53h.02ZM2.7 34.66c-.1-.8 0-1.6.27-2.36.29-.75.65-1.48 1.08-2.17 0 0-.27 1.72-.45 2.26-.18.55-.9 2.27-.9 2.27ZM7.75 55a5.76 5.76 0 0 1-.9-1.62 6.89 6.89 0 0 1-.27-1.9l.72 1.71c.17.6.32 1.2.42 1.81h.03Zm-2.44-2.44a7.47 7.47 0 0 1-.72-1.99 8 8 0 0 1 0-2.08s.36 1.45.45 1.99c.09.54.24 2.08.24 2.08h.03Zm3.17 8.78a11.36 11.36 0 0 1-2-2.17c-.45-.8-.81-1.66-1.08-2.54 0 0 1.27 1.63 1.63 2.26l1.42 2.45h.03ZM18.6 68.3c-.57-.8-1-1.68-1.27-2.62-.2-.89-.33-1.8-.36-2.71 0 0 .82 1.99 1 2.62.18.63.6 2.71.6 2.71h.03Zm-3.8 1.27a7.55 7.55 0 0 1-1.9-1.45 9.95 9.95 0 0 1-1.27-1.9s1.27 1.18 1.72 1.54l1.45 1.81Zm4.25 5.88a6.59 6.59 0 0 1-2.17-.63c-.6-.34-1.18-.73-1.72-1.18 0 0 1.54.55 2 .73.44.18 1.86 1.08 1.86 1.08h.03ZM4.74 53.4a4.76 4.76 0 0 1-1.27-1.09l-.78-1.36s.81.82 1.08 1.18l.97 1.27Zm3.53 9.95A4.76 4.76 0 0 1 7 62.25c-.27-.45-.54-.9-.81-1.45 0 0 .81.82 1.08 1.18.3.47.64.93 1 1.36Zm5.6 7.24a3.41 3.41 0 0 1-1.35-.82c-.38-.38-.71-.8-1-1.26l1.27.99c.39.34.75.7 1.09 1.09Zm3.63-1.72c-.43-.33-.8-.72-1.09-1.18-.26-.49-.48-1-.63-1.54.33.4.63.83.9 1.27.18.36.82 1.45.82 1.45Zm3.62-3.08a4.15 4.15 0 0 1-1.45-.63 7.24 7.24 0 0 1-1.18-1.18s1 .54 1.36.82c.36.27 1.27 1 1.27 1Zm-11.2-3.7a4.4 4.4 0 0 1-1-1.28c-.17-.45-.35-1-.53-1.53 0 0 .63 1 .81 1.35l.72 1.45Zm2.72-2.18a4.4 4.4 0 0 1-1-1.27c-.18-.45-.36-1-.54-1.54 0 0 .63 1 .81 1.36l.73 1.45Zm3.35-.63a4.35 4.35 0 0 1-.73-1.45 9.95 9.95 0 0 1-.18-1.63s.45 1.09.54 1.45c.1.36.34 1.63.34 1.63h.03Zm6.06 4.34c-.3-.47-.52-1-.64-1.54a9.84 9.84 0 0 1-.09-1.63s.37 1.18.46 1.54c.09.36.24 1.63.24 1.63h.03ZM9.45 50.2a4.92 4.92 0 0 1-.54-3.17c.15.51.27 1.03.35 1.55 0 .36.18 1.63.18 1.63Zm8.05-36a5.53 5.53 0 0 1 1.99-1.18c.73-.2 1.5-.33 2.26-.36 0 0-1.54.72-2.08.9-.7.27-1.43.48-2.17.64Zm-4.07 42.98a7.46 7.46 0 0 1-.91-2.36c-.07-.84-.1-1.68-.09-2.53 0 0 .54 1.8.63 2.35.1.55.37 2.54.37 2.54Zm6.33.81a7.62 7.62 0 0 1-.36-2.44c.1-.83.27-1.65.54-2.45 0 0 .09 1.81.09 2.45 0 .63-.36 2.44-.27 2.44Zm-2.6-36.28c.43-.39.92-.7 1.45-.9.56-.17 1.14-.3 1.72-.37 0 0-1.18.54-1.54.73-.53.2-1.08.39-1.63.54Zm-2.9-3.8a4.8 4.8 0 0 1 1.54-.73c.6-.1 1.2-.16 1.81-.18-.53.21-1.07.4-1.62.55l-1.72.36Zm.19 27.68-.36-.27 2.35-3.8 2.17 3.62-.36.27-1.81-2.98-2 3.16Zm-5.7-27.14c0 .1 0 .18-.1.18-.08 0-.08.1-.17.1a.34.34 0 0 1-.46-.19v-.27c0-.09.1-.09.1-.18 0-.1.08-.1.17-.1h.1a.09.09 0 0 1 .09.1l.09.09c.15.18.15.27.15.27h.03Zm.27 1.9c0 .1 0 .18-.1.18-.08 0-.08.1-.17.1h-.18a.29.29 0 0 1-.28-.28v-.18c0-.09.1-.09.1-.18 0-.1.09-.1.18-.1h.09l.09.1.09.09c.18.18.18.27.18.27Zm-3.26 1.72c0 .1 0 .18-.09.18s-.09.1-.18.1a.34.34 0 0 1-.45-.19v-.27a.32.32 0 0 1 .09-.18h.27a.09.09 0 0 1 .09.09l.1.09c.14.09.14.09.14.18h.03Zm7.33-.9c0 .09 0 .18-.09.18-.1 0-.1.09-.18.09h-.18a.29.29 0 0 1-.27-.27v-.19c0-.09.09-.09.09-.18s.09-.09.18-.09h.18a.2.2 0 0 1 .18.18.34.34 0 0 0 .06.28h.03Zm-.36 18.9.09-1.26c.09-1.63.09-3.26 0-4.89-.08-.28-.2-.56-.36-.81a3.79 3.79 0 0 1-.37-.9v-1.18h-.36l-.27.09v-2l-.54-.17v-3.8c-1.09 1-3.9 3.8-4.8 5.52-1 2.08-1.53 7.5-1.53 7.6h-.37c0-.28.55-5.61 1.54-7.7 1-2.08 4.98-5.79 5.16-5.97l.36-.36v4.43l.72.19v1.9h.28c.09 0 .18.09.27.09.09.18.09.27.18.45.02.16-.01.32-.1.45v.45c0 .1.1.18.1.28l4.07-3.62.09 2.8-.18 3.98v.18a.09.09 0 0 1-.1.1l-.08.08-.36.28-.9.63A5.73 5.73 0 0 0 13.17 39l-.45 1.09Zm.09-7.23c.19.31.34.64.45 1 .17 1.4.2 2.83.1 4.24a7.78 7.78 0 0 1 1.8-1.62c.37-.28.76-.53 1.18-.73l.18-4.07-.18-1.99-3.53 3.17Zm-.27-.55-.46-.09.28-.81a31 31 0 0 0 2.08-3.8c.27-.7.46-1.43.54-2.17.1-.45.18-.9.27-1.45.48-1.51 1.05-3 1.72-4.43-1.26-.1-2.53-.1-3.8 0-1 .09-2.35 1.44-3.44 2.44-.4.42-.82.81-1.26 1.18-1.27 1-3.62 5.88-3.71 5.88l-.37-.18c.1-.19 2.54-4.98 3.8-6.07.45-.36.87-.75 1.27-1.17 1.18-1.18 2.53-2.45 3.71-2.54 1.42-.09 2.84-.09 4.25 0h.27l-.09.28c-.7 1.53-1.3 3.1-1.8 4.7-.1.45-.19 1-.28 1.36-.1.77-.27 1.53-.54 2.26a32.78 32.78 0 0 1-2.17 3.89l-.27.72ZM9.92 21.36s-.18-1.36-.27-3.17a4.94 4.94 0 0 0-.54-1.63c-.26-.5-.63-.93-1.09-1.27l.27-.36c.52.4.95.89 1.27 1.45a6 6 0 0 1 .54 1.81c0 1.06.1 2.12.28 3.17h-.46Zm.37.09-.37-.18c.44-.9.92-1.78 1.45-2.63.9-1.45 4.8-3.16 6.52-3.53 1.87-.37 3.78-.52 5.7-.45l-.1.45a28.4 28.4 0 0 0-5.51.46c-1.72.45-5.43 1.99-6.25 3.34-.81 1.36-1.38 2.54-1.47 2.54h.03Zm2.98-3.98-.45-.1c.2-.73.44-1.46.72-2.17.44-.94.96-1.85 1.54-2.71.36-.54.63-1 .82-1.27.16-.81.1-1.66-.19-2.44l.46-.1c0 .1.63 1.9.09 2.81-.23.45-.5.88-.82 1.27-.56.84-1.08 1.72-1.54 2.62-.26.68-.48 1.38-.66 2.09h.03ZM4.5 26.33c-.06-.6-.02-1.21.1-1.8.2-.57.44-1.11.72-1.64 0 0-.18 1.36-.27 1.72-.1.37-.55 1.72-.55 1.72Zm7.6-1.9c.2-.75.54-1.45 1-2.08a9.69 9.69 0 0 1 1.72-1.63s-.81 1.45-1.18 2c-.48.6-1 1.17-1.56 1.71h.03Zm0 3.53c.17-.57.41-1.12.73-1.63.37-.46.8-.89 1.27-1.26 0 0-.64 1.08-.9 1.44-.41.46-.78.95-1.12 1.45h.03ZM9.12 24.9c.15-.56.4-1.08.72-1.54.38-.47.8-.9 1.27-1.27 0 0-.63 1.09-.9 1.45-.28.36-1.12 1.36-1.12 1.36h.03ZM38.88 6.07a2.15 2.15 0 0 1-2.63 1.8 2.2 2.2 0 0 1-1.8-1.8c.08-.52.34-1 .72-1.36a2.2 2.2 0 0 1 2.9 0c.4.35.7.82.8 1.36Zm10.2 10.22-.37-.18s.36-.9-.72-4.34A11.88 11.88 0 0 0 44 6.16l.27-.37a13.01 13.01 0 0 1 4.16 5.89c1.09 3.61.72 4.52.63 4.61Zm-24.62-.36h-.45c.3-1.57.74-3.12 1.3-4.62.7-2.24 2.06-4.22 3.89-5.7l.27.37a10.86 10.86 0 0 0-3.71 5.42 22.74 22.74 0 0 0-1.3 4.53ZM46.63 17l-.45-.18a19.9 19.9 0 0 0-.45-3.35 6.98 6.98 0 0 0-2.54-4.7l.27-.36a7.45 7.45 0 0 1 2.72 5.06c.3 1.16.45 2.34.45 3.53Zm-19.9-.36a10.7 10.7 0 0 1 .45-3.8c.42-1.88 1.36-3.6 2.71-4.97l.27.36a9.88 9.88 0 0 0-2.53 4.8 9.73 9.73 0 0 0-.45 3.61h-.45Zm5.33-1.45a9.95 9.95 0 0 0-4.34-4.07c-1.4-.8-2.93-1.36-4.52-1.63v-.45c.09 0 1.53.1 4.7 1.63 1.91.92 3.5 2.4 4.53 4.25l-.37.27Zm9.32-.09-.36-.27a12.07 12.07 0 0 1 3.08-2.98c1.66-1.2 3.64-1.9 5.7-2v.46c-1.97.11-3.86.8-5.43 1.99-1.16.74-2.18 1.69-2.99 2.8Zm-8.77-1.99a13.57 13.57 0 0 0-3.44-4.25c-2.8-1.8-3.62-1.9-3.62-1.9v-.45c.09 0 .9.09 3.8 1.99a6.8 6.8 0 0 1 1.45 1.36c.82.93 1.52 1.96 2.08 3.07l-.27.18Zm8.32.1-.45-.19a9.46 9.46 0 0 1 2.08-2.9c.22-.26.46-.5.72-.72l.64-.63c2.17-2 3.62-2 3.62-2v.46s-1.36 0-3.35 1.81l-.64.63a12.67 12.67 0 0 0-2.62 3.53Zm-11.49 3.25a6.61 6.61 0 0 0-3.23-2.44c-1.05-.54-2.18-.91-3.35-1.09v-.45c.1 0 .9 0 3.53 1.18a7.45 7.45 0 0 1 3.44 2.62l-.39.18Zm14.84.54-.36-.27a11.9 11.9 0 0 1 2.26-1.99 7.7 7.7 0 0 1 4.61-1.8v.44c-1.59.11-3.1.71-4.34 1.72-.8.54-1.52 1.18-2.15 1.9h-.02Zm-.18-.09c-.82-4.52-2.27-5.6-2.27-5.6l.28-.37c.09.1 1.53 1.09 2.44 5.88l-.45.1Zm-14.39-.36-.45-.09c.9-4.8 2.44-5.79 2.53-5.88l.27.36c0 .1-1.53 1.09-2.35 5.61Zm5.97-3.89-1.26-.18-3.62-6.42 1.44.27 3.44 6.33Zm-.9-.63h.18l-2.9-5.43-.18-.1 2.9 5.53Zm2.98.81 3.44-6.51 1.3-.27-3.44 6.42-1.3.36Zm3.71-6.06-2.9 5.43.19-.1 2.9-5.42-.19.09ZM31.43 17.56v.36a.57.57 0 0 1-.75.41.53.53 0 0 1-.34-.5v-.18c0-.1.1-.18.19-.27a.69.69 0 0 1 .36-.19c.12 0 .25.02.36.1.09 0 .18.09.18.27Zm5.8.09V18c0 .09-.1.18-.19.27-.1.1-.18.1-.36.1a.62.62 0 0 1-.55-.37v-.36c0-.1.1-.18.19-.27.09-.1.18-.1.36-.1a.61.61 0 0 1 .54.37Zm5.51 0V18c0 .09-.1.18-.18.27-.1.1-.18.1-.36.1a.54.54 0 0 1-.37-.1c-.09-.09-.18-.18-.18-.27v-.36a.5.5 0 0 1 .55-.37c.12 0 .25.02.36.1.09 0 .18.09.18.27Zm-9.3-8.33-.65-1.17 2.17-1.18 1.45.54-2.96 1.81Zm0-1 .19.46 1.8-1.18-.44-.18-.28.1-1.26.8Zm6.7 1-3.07-1.99 1.44-.54.37.27 1.9 1-.64 1.26Zm-2.17-1.9 2 1.27.26-.54-1.8-.9-.46.17Zm-6.9 55.01h-1.09V40.72h1.09v21.71Zm-2.26 0h-1.09V40.72h1.09v21.71Zm4.64 0h-1.09V40.81h1.09v21.62Zm2.26.1h-1.09V40.71h1.09v21.8Zm2.26-.1H36.9v-21.8h1.08v21.8Zm2.44.1h-1.08V40.8h1.08v21.71Zm2.45-.1h-1.09V40.72h1.09v21.71Zm2.17.1h-1.09v-21.9h1.09v21.9ZM30.25 29.85h-1.08V24.9h1.08v4.97Zm2.27.1h-1.09v-5.07h1.11l-.02 5.06Zm2.17 0H33.6v-5.17h1.09v5.16Zm2.17 0h-1.09v-5.07h1.09v5.06Zm2.26 0h-1.09v-5.07h1.1v5.06Zm2.26 0H40.3v-5.07h1.08v5.06Zm2.26 0h-1.08v-5.17h1.08v5.16ZM19.58 73.2a37.1 37.1 0 0 1-4.53-4.7 6.75 6.75 0 0 1-1.35-4.17 2.5 2.5 0 0 0-.1-.81c-.07-1.7 0-3.39.19-5.07l.09-.54.36.36c.9 1.11 1.9 2.14 2.99 3.08.18.09.36.27.54.36 1 .72 2.06 1.35 3.16 1.9a4.24 4.24 0 0 1 2.45 3.08l-.45.09a3.35 3.35 0 0 0-.73-1.63c-.4-.46-.88-.83-1.42-1.09a19.2 19.2 0 0 1-3.26-1.9.9.9 0 0 1-.45-.36c-.97-.87-1.88-1.8-2.71-2.8a25.2 25.2 0 0 0-.1 4.52c0 .27.1.54.1.9.01 1.4.46 2.76 1.26 3.9a31.21 31.21 0 0 0 4.53 4.6l-.55.28h-.02Zm31.76-52.57c.5.4.98.82 1.44 1.27.27.28.51.58.73.9a6.9 6.9 0 0 1-1-.72c-.18-.27-1.17-1.45-1.17-1.45Zm2.08-.36c.2.46.35.95.45 1.45l.18.9a3.21 3.21 0 0 1-.36-.81c-.13-.5-.22-1.02-.27-1.54ZM60.59 19c.36.86.66 1.74.9 2.63.19.81.28 1.63.28 1.63-.27-.55-.46-1-.73-1.54-.11-.45-.45-2.72-.45-2.72Zm2.99 7.51c.45.82.9 1.63 1.26 2.45.37.81.55 1.63.55 1.63-.34-.47-.64-.95-.9-1.45-.22-.36-.94-2.63-.94-2.63h.03Zm2.08 8.5c.2.75.35 1.5.45 2.27v1.36c-.16-.44-.28-.9-.36-1.36a9.96 9.96 0 0 1-.12-2.26h.03Zm.27 7.25a22.2 22.2 0 0 1-.72 2.62c-.21.53-.46 1.04-.73 1.54.08-.58.2-1.16.36-1.72.07-.36 1.06-2.44 1.06-2.44h.03Zm-2.1 8.41c-.28.88-.64 1.73-1.1 2.53-.26.5-.56 1-.9 1.45l.54-1.63c.18-.45 1.45-2.35 1.45-2.35Zm-4.08 7.6c-.52.76-1.1 1.49-1.72 2.17-.38.43-.8.83-1.27 1.18.28-.54.64-1 .9-1.45.28-.45 2.09-1.9 2.09-1.9Zm-3.26 5.8c-.43.55-.92 1.06-1.45 1.53l-1.08.81.81-1.08c.54-.48 1.11-.9 1.72-1.27Zm-3.14.17c-.27.46-.63.82-.9 1.27-.2.26-.44.47-.73.63l.55-.81c.34-.39.7-.75 1.08-1.09Zm-2.08-2.44c-.36.54-.72 1-1.08 1.54l-.82.81c.16-.36.37-.7.64-1 .15-.26 1.23-1.35 1.23-1.35h.03Zm-1.45-1.36c-.14.62-.32 1.22-.54 1.81l-.45 1.09c.05-.4.14-.8.27-1.18.06-.27.7-1.72.7-1.72h.02Zm13.76 4.16a9.7 9.7 0 0 1-1.36 2c-.54.63-1 1.08-1 1.08.21-.47.45-.92.73-1.36.24-.18 1.6-1.72 1.6-1.72h.03Zm-5.8-14.65c-.36.72-.8 1.35-1.26 2.08-.45.54-1 1.08-1 1.08.21-.47.45-.92.73-1.35.15-.27 1.5-1.81 1.5-1.81h.04Zm11.32 5.7c-.65.8-1.35 1.55-2.09 2.26-.72.63-1.44 1.18-1.44 1.18.34-.55.73-1.07 1.17-1.54.74-.68 1.52-1.31 2.33-1.9h.03Zm-13.4-6.6c-.07.81-.2 1.63-.36 2.44-.18.72-.45 1.44-.45 1.44 0-.54.1-1 .1-1.54s.69-2.35.69-2.35h.03Zm2.72-7.6c0 .9-.1 1.8-.18 2.7l-.36 1.64v-1.72c.06-.37.51-2.63.51-2.63h.03ZM57.97 36l.54 1.63c.06.36.09.72.09 1.09a6.88 6.88 0 0 1-.36-1c-.12-.27-.3-1.72-.3-1.72h.03ZM54.7 25.16c.53.43 1.01.92 1.45 1.44.36.46.72 1 .72 1-.36-.27-.63-.54-1-.82-.2-.18-1.2-1.62-1.2-1.62h.03Zm3.53 6.24c.47.66.9 1.36 1.27 2.08.27.63.54 1.36.54 1.36-.33-.37-.63-.77-.9-1.18-.27-.77-.58-1.53-.94-2.26h.03Zm1.9.27.27 1.63c.18.45.36 1 .36 1 0-.37-.09-.73-.09-1.1a9.7 9.7 0 0 0-.57-1.53h.03Zm-3.26.9c.4.42.83.81 1.27 1.18.36.27.81.54.81.54a5.33 5.33 0 0 0-2.08-1.71Zm3.44 4.8c-.1.54-.17 1.08-.18 1.63 0 .33.04.67.09 1 .1-.33.16-.66.18-1-.03-.27-.12-1.63-.12-1.63h.03Zm-.1 6.06c-.37.4-.74.83-1.08 1.27l-.54.9c.26-.21.5-.46.72-.72l.88-1.45h.03Zm-3.52-.81a9.95 9.95 0 0 0 .45 2.62v-1.08c-.12-.53-.28-1.04-.48-1.54h.03Zm10.86-6.15a11.05 11.05 0 0 0-.9 2.53c.18-.28.33-.59.45-.9.19-.53.33-1.08.42-1.63h.03Zm-.36 8.05c-.39.4-.75.82-1.09 1.27l-.54.9c.26-.22.5-.46.72-.72.15-.28.88-1.45.88-1.45h.03Zm-2.27 8.68c-.45.37-.81.73-1.26 1.09-.24.25-.45.52-.64.81.28-.18.55-.45.82-.63.38-.4.74-.82 1.06-1.27h.02Zm-4.1-1.62c-.16.53-.28 1.07-.36 1.62-.05.33-.05.67 0 1l.27-1c.12-.53.15-1.08.1-1.62ZM67 55.1a11.76 11.76 0 0 0-1.36 2.27c.23-.26.44-.53.63-.82L67 55.1Zm-6.25 5.07c-.47.3-.92.64-1.35 1l-.73.72c.28-.18.64-.36.9-.54l1.18-1.18Zm2.81 6.97c-.47.3-.93.63-1.36 1l-.72.72c.27-.18.63-.36.9-.55.42-.36.81-.76 1.18-1.17Zm-4.7 1.8c-.44.35-.84.75-1.18 1.18-.27.37-.63.82-.63.82.27-.18.54-.45.8-.64a8.3 8.3 0 0 0 1-1.35Zm.8.91c-.35.18-.71.27-1.08.45-.21.11-.43.23-.63.37.27-.1.45-.18.72-.27.36-.17.7-.35 1.03-.55h-.03Zm2.72-6.06c-.27.45-.54 1-.81 1.45-.27.45-.36 1-.36 1 .2-.3.38-.6.54-.91.18-.36.66-1.54.66-1.54h-.03Zm-4.8-6.06c-.26.45-.44 1-.72 1.54a5.6 5.6 0 0 0-.27 1c.18-.28.36-.64.55-.91.18-.27.45-1.63.45-1.63Zm-2.25-.27c-.48.3-.93.63-1.36 1l-.72.72c.27-.19.63-.37.9-.55l1.18-1.17Zm-1.45-.9c-.35.44-.66.93-.9 1.44l-.37.9c.24-.24.45-.52.64-.81.16-.53.37-1.05.63-1.54Zm-.82-.73c-.35.45-.65.93-.9 1.45-.18.27-.27.63-.45.9.24-.25.45-.52.63-.81.18-.27.72-1.63.72-1.54Zm3.17 12.03a10.14 10.14 0 0 0-2.53 1.27s.9-.27 1.08-.36l1.45-.9Zm7.24-24.25c-.1.55-.1 1.09-.18 1.63-.05.34-.02.68.09 1 .09-.36.09-.73.18-1.09a6.9 6.9 0 0 0-.1-1.54Zm.54-7.05c.16.53.37 1.05.64 1.53l.54.9-.27-1.08c-.18-.18-.9-1.35-.9-1.35Zm2.44-8.24c-.1.54-.16 1.08-.18 1.63 0 .34.04.67.1 1 .1-.33.15-.66.18-1 0-.18-.1-1.63-.1-1.63Zm-3.98 1c.43.36.89.7 1.36 1 .3.17.6.32.9.45-.26-.22-.5-.46-.72-.73-.27-.09-1.54-.72-1.54-.72Zm.46-9.14c-.1.54-.17 1.08-.18 1.63 0 .33.03.66.09 1 .1-.33.15-.66.18-1 0-.27-.1-1.63-.1-1.63Zm-3.8 1.45c.37.6.8 1.18 1.26 1.72.46.45 1 .9 1 .9-.21-.41-.45-.8-.73-1.17a27.05 27.05 0 0 1-1.53-1.45ZM66.17 19a11.14 11.14 0 0 0 .46 2.9v-1.18a15.1 15.1 0 0 0-.46-1.72Zm-4.43-5.52a5.86 5.86 0 0 0 2.26 1l-.81-.54c-.47-.2-.95-.35-1.45-.46Zm-10.59-3.25c.31.38.64.74 1 1.08l.72.55c-.18-.28-.36-.46-.54-.73a6.85 6.85 0 0 0-1.18-.9Zm2.54-1.81c-.02.48.01.97.09 1.45l.18.9v-.9c0-.19-.27-1.36-.27-1.45Zm-1.81.36c.2.44.45.86.72 1.27.18.27.36.45.54.72-.09-.27-.27-.54-.36-.81-.09-.28-1-1.18-.9-1.18Zm5.16 1.09c.25.35.53.68.84 1 .19.2.4.38.63.53a3.83 3.83 0 0 0-.45-.63c-.18-.18-1.02-.9-1.02-.9Zm.36 15.92c.01.9.16 1.78.45 2.62v-1.08a8.2 8.2 0 0 0-.45-1.54Zm-3.08 1.45c.43.36.88.7 1.36 1 .29.16.6.32.9.45-.27-.28-.54-.46-.81-.73-.47-.28-.95-.52-1.45-.72Zm12.94 4.88c.18.37.45.73.63 1.09.14.24.32.46.55.63-.1-.27-.28-.45-.37-.72a5.3 5.3 0 0 0-.81-1Zm-11.2-18.18c.44.52.93 1 1.45 1.44.46.37 1 .73 1 .73-.27-.36-.54-.63-.81-1-.21-.18-1.63-1.17-1.63-1.17Zm1.9-.27c.31.44.64.86 1 1.26.2.26.45.47.73.64l-.55-.82-1.2-1.08h.03Zm-7.23 1.71c.36.37.81.73 1.18 1.1.36.35.8.53.8.53-.2-.26-.45-.5-.71-.72a5.68 5.68 0 0 0-1.3-.9h.03Zm-.45 1.81c.5.14 1.02.23 1.53.28h1c-.27-.1-.63-.19-1-.28a8.46 8.46 0 0 0-1.56 0h.03Zm5.97-1.17c.45.18 1 .36 1.54.54l1 .18c-.28-.18-.64-.27-.91-.45-.3 0-1.66-.27-1.66-.27h.03ZM51.9 14.2c.2.5.44.98.72 1.45l.54.81c-.1-.3-.22-.6-.36-.9a11.6 11.6 0 0 0-.93-1.36h.03Zm5.97 54.2-.27-.37c.76-.48 1.49-1.03 2.17-1.63v-.09c.12-.28.15-.6.09-.9a1.24 1.24 0 0 0-.46-.72 2.4 2.4 0 0 1-.45-.55 1.7 1.7 0 0 1-.18-.72c.02-.15.05-.3.1-.45.06-.14.15-.26.26-.37.7-.4 1.42-.73 2.17-1a2.71 2.71 0 0 0 1.54-1.08v-.27a5.37 5.37 0 0 0-1.17-1.63l-.27-.27.27-.18c.28-.2.53-.44.72-.72a1.27 1.27 0 0 0-.27-1.36c-.19-.2-.45-.34-.72-.36-.3 0-.58.1-.82.27-.43.35-.74.82-.9 1.36l-.1.36-.27-.27s-.9-1-1.62-.82c-.73.18-1.18.55-1.54 1.9-.18 1-.27 2-.36 2.99v.72l-.37-.63a2.12 2.12 0 0 0-.63-.63c-.24-.15-.53-.21-.81-.19a1.15 1.15 0 0 0-1 .46c-.25.3-.38.69-.36 1.08 0 .82 0 1-.27 1.09h-.18l-.1-.18.19-.1v-.17h-.1l-.08.09v-.73c-.02-.24.01-.49.09-.72.06-.24.19-.46.36-.63.17-.2.39-.36.63-.46.23-.1.48-.16.73-.18.56 0 1.1.2 1.53.55.08-.83.2-1.64.37-2.45.27-1.36.72-1.9 1.8-2.17.34-.01.67.02 1 .1.33.06.62.26.81.53.2-.5.55-.95 1-1.26.3-.25.7-.38 1.09-.36.37.01.73.17 1 .45a1.26 1.26 0 0 1 .44.9c.07.34.04.68-.09 1-.16.28-.37.52-.63.72.46.47.83 1.02 1.09 1.63 0 .1.09.18.09.27a.33.33 0 0 1-.1.27 3.85 3.85 0 0 1-1.8 1.36c-.7.25-1.36.55-2 .9-.09.1-.18.19-.18.28a.33.33 0 0 0-.09.27c.02.19.08.38.18.54.08.16.2.3.37.36.26.28.45.62.54 1 .1.36.07.75-.1 1.08v.1c-.02.18-.1.45-2.34 1.98Zm6.33-.28-.36-.27c.17-.24.26-.52.27-.81a2.5 2.5 0 0 0-.1-.82 3.7 3.7 0 0 1-.08-1c.07-.16.1-.35.09-.53a.54.54 0 0 1 .09-.37c.09-.09.18-.27.27-.27.15-.13.27-.28.36-.45.08-.17.1-.36.1-.54a.47.47 0 0 0-.19-.37c-.09-.09-.18-.27-.27-.27-.45-.36-.81 0-1.18.46-.09.09-.09.18-.18.18a.33.33 0 0 1-.27.09h-.09a.1.1 0 0 1-.09-.1c-.09-.08-.18-.17-.27-.17h-.36c-.1.09-.27.18-.36.27-.1.09-.1.27-.18.36a.54.54 0 0 1-.1.36c-.09.1-.09.18-.18.27l-.45.1c-.18 0-.37-.02-.54-.1h-.36l-.18.18-.37-.09a.8.8 0 0 1 .9-.54h.1c.23.1.49.1.72 0a.32.32 0 0 0 .1-.18v-.18a1.31 1.31 0 0 1 .4-.92.9.9 0 0 1 .32-.17c.17-.07.35-.1.54-.09.17 0 .33.07.45.18l.1-.09c.06-.13.15-.26.26-.36.14-.11.3-.2.46-.27a1.25 1.25 0 0 1 1 .09c.18.1.34.26.44.45.1.17.17.35.19.54a.98.98 0 0 1-.19.73c-.1.24-.25.46-.45.63l-.18.18c0 .1-.09.18-.09.27 0 .1-.09.46-.09.64-.06.27-.03.56.1.81a2.57 2.57 0 0 1-.1 2.17Zm-1.36-7.05-.27-.28.18-.18.18.18-.09-.18a8.4 8.4 0 0 0 1.09-.9c.3-.29.5-.67.54-1.09.08-.43.01-.87-.18-1.26l-.09-.18a1.2 1.2 0 0 0-.27-.46 2 2 0 0 1-.45-1 .33.33 0 0 1 .09-.26c0-.1.09-.18.18-.27a2.04 2.04 0 0 1 1.63-.1c.09 0 .09 0 .27-.27 0-.09.09-.18.09-.36.26-.56.57-1.1.9-1.63.27-.27.64 0 1 .18.2.18.45.28.72.27h.1c.54-.99 1.9-.54 2.34-.36l-.36.46c-1-.28-1.54-.28-1.8.18a.2.2 0 0 1-.19.18c-.09.09-.09.09-.18.09a1.36 1.36 0 0 1-1-.36c-.13-.11-.28-.2-.45-.28-.33.47-.63.95-.9 1.45 0 .1-.1.18-.1.27-.08.27-.26.73-.72.55a1.54 1.54 0 0 0-1.26 0 .09.09 0 0 0-.1.09v.09c.05.3.18.58.37.81.09.18.27.36.27.54 0 .19 0 .1.1.19a2.49 2.49 0 0 1-.46 2.8c-.36.4-.75.76-1.18 1.09Zm-6.33-4.26c-.1-.18-.54-1.72.36-1.99.31-.14.65-.2 1-.18.35 0 .7.09 1 .27.08 0 .08.1.17.1h.18a.7.7 0 0 0 .18-.73 1.8 1.8 0 0 0-.09-.72 3.73 3.73 0 0 1 .1-2c.09-.18.09-.27.18-.45.27-.72.63-1.53 1.44-1.44.38.08.74.2 1.09.36.16.1.35.16.54.18.08-.17.1-.36.1-.54-.02-.22 0-.44.08-.64.1-.2.21-.38.36-.54a1.64 1.64 0 0 1 2.18.09 1.75 1.75 0 0 1 .27 2c-.1.17-.27.26-.36.44a.09.09 0 0 0-.1.1c0 .08-.09.08-.09.17.2.42.52.76.91 1 .19.07.34.2.45.36.1.1.1.18.1.36v.37c-.08.2-.11.41-.1.63l-.36.18c-.06-.3-.03-.62.1-.9v-.37c.08-.36 0-.45-.1-.45h-.09a2.2 2.2 0 0 1-1.18-1.36.54.54 0 0 1 .1-.36l.27-.27.27-.27c.09-.1.09-.27.18-.36 0-.44-.16-.86-.45-1.18-.37-.45-1.18-.18-1.63.1-.1 0-.18.08-.18.26v.45a.98.98 0 0 1-.19.73c-.27.36-.72.18-1.08 0-.28-.18-.58-.3-.9-.36-.55 0-.73.36-1 1.17-.1.18-.1.27-.18.46-.17.58-.2 1.2-.1 1.8.08.27.11.54.1.82a1.04 1.04 0 0 1-.45 1.09c-.11.07-.24.1-.37.09-.09 0-.27-.1-.36-.1a2.35 2.35 0 0 0-1.8 0c-.37.1-.19 1.1-.1 1.45l-.45.18Zm-1.45-1.35-.27-.37c.64-.46 1.25-.97 1.81-1.53.16-.15.34-.28.54-.37.26-.11.5-.27.73-.45.18-.19.33-.4.45-.63.18-.73.45-1.72 0-2.17l-.18-.18a1.89 1.89 0 0 1-.36-.55c-.08-.2-.1-.41-.1-.63v-.63c.07-.37.03-.74-.08-1.09h-.19c-1.44.45-1.8.18-2.17-.09-.18-.18-.27-.18-.72.1l-.18-.37c.72-.36 1-.27 1.26 0 .28.27.46.45 1.81 0h.28c.09 0 .18.09.27.09.18.2.28.46.27.72.09.27.09.55 0 .82v.63c-.02.16 0 .32.09.45.07.14.16.26.27.37l.18.18c.54.54.36 1.62.1 2.53-.1.32-.3.6-.55.81-.23.25-.5.43-.82.55-.18.09-.27.18-.45.27-.72.54-1.35 1.08-1.99 1.54Zm2.99-7.78-.18-.37s.81-.36 1.26-.54a.2.2 0 0 0 .18-.18c.1-.1.1-.1.1-.18a1.1 1.1 0 0 1 .63-.63c.2-.1.41-.17.63-.19h.18c.1 0 .1 0 .18-.09l.18-.18c.1-.09.1-.09.1-.18.25-.66.28-1.4.09-2.08a.9.9 0 0 0-.37-.45.55.55 0 0 0-.54-.1c-.25 0-.5-.07-.72-.17a.99.99 0 0 1-.37-1.18c0-.27.1-.63.1-.9l-.1-.46a1.21 1.21 0 0 0-1.17-.72c-.88.27-1.73.63-2.53 1.09l-.28-.37a9.15 9.15 0 0 1 2.72-1.17c.21-.02.43.01.63.09l.54.27c.18.16.33.34.46.54.11.23.17.47.18.73v.9c-.1.54 0 .63.18.72.18.1.36.1.54.19.3 0 .58.1.82.27.25.17.44.43.54.72a3.86 3.86 0 0 1-.21 2.58.74.74 0 0 1-.24.23c-.2.1-.42.16-.64.18a.68.68 0 0 0-.45.09.6.6 0 0 0-.36.45c-.1.09-.1.27-.18.36a.47.47 0 0 1-.36.18c-.54.1-1.07.28-1.54.55Zm7.78 4.7.18-.72s.18-.73.36-1.36c.07-.24.2-.46.36-.63.1-.19.18-.19.1-.37l-.28-.54a3.21 3.21 0 0 1-.36-.81c-.18-.64.27-1.45 1.27-2 .29-.27.5-.6.63-.99.15-.37.2-.77.18-1.18a.54.54 0 0 0-.09-.36c-.09-.09-.09-.18-.27-.27-.18-.09-.45-.18-.63-.27-.17-.14-.3-.33-.37-.54a.68.68 0 0 1-.09-.46.81.81 0 0 1 .1-.45l.08-.09c.28-.45.37-.9 0-1.17a1.8 1.8 0 0 0-.72-.37 1.26 1.26 0 0 0-.81 0c-.1.1-.18.1-.27.28-.1.1-.16.22-.19.36l-.27 1.08a.54.54 0 0 1-.09.36.69.69 0 0 1-.18.37c-.09 0-.09.09-.18.09h-.18c-.2-.02-.38-.08-.54-.18-.18-.1-.27-.18-.46-.18-.18-.02-.37.01-.54.09-.18.17-.4.3-.63.36h-.1v1.17a6.68 6.68 0 0 0 0 1.9c.16.62.38 1.23.64 1.81l.54 1.09-.9-.82c-.27-.27-1.18-.9-1.63-.72-.23.09-.44.2-.63.36a2.4 2.4 0 0 0-.46.55 2 2 0 0 0-.09 1.45c.12.37.27.73.46 1.08h-.18v.36l.18.1-.27.08c-.19 0-.37-.09-.73-1.36a1.92 1.92 0 0 1 0-1.62c.1-.3.29-.55.54-.73.21-.2.46-.35.73-.45a1.38 1.38 0 0 1 1.45.27 7.33 7.33 0 0 1-.27-3.17v-1.08c0-.1 0-.18.08-.18.1 0 .1-.1.19-.18.09-.1.09-.1.18-.1s.27-.17.45-.26c.2-.19.46-.28.72-.28.25.01.5.07.73.18.18.1.27.1.45.19h.09c0-.19.09-.28.09-.46.02-.36.08-.73.18-1.08a.78.78 0 0 1 .27-.55.9.9 0 0 1 .45-.36c.33-.09.67-.09 1 0 .32.07.63.2.9.36a1.27 1.27 0 0 1 .19 1.72l-.1.1v.27a.33.33 0 0 0 .1.27c.06.13.16.26.27.36.12.11.28.18.45.18.19.07.34.2.45.36.1.17.16.35.18.54a3.45 3.45 0 0 1-1.09 2.53c-.72.46-1.17 1-1.08 1.46.07.26.19.5.36.72.15.18.24.4.27.63v.36a.47.47 0 0 1-.18.37c-.09.18-.18.27-.27.45l-.18.63c.55-.45 1-1 1.36-1.63 0-.18 0-.45-.1-.54a3.78 3.78 0 0 1-.35-.9.77.77 0 0 1 0-.73.5.5 0 0 1 .45-.27c.18 0 .27-.09.45-.18s.27-.27.27-.36l.1-.1c.45-.9.63-1.08 1.8-.99.2.02.38.08.55.18.16.07.29.2.36.37.08.2.1.41.09.63-.02.22-.08.43-.18.63.07.25.16.49.27.73.27.45.54.9.27 1.17l-.18.18-.27.27c-.07.11-.1.24-.1.37a.82.82 0 0 0 .28.63l-.1.27a1.61 1.61 0 0 1-.35-.9c-.02-.22.01-.43.09-.64a.9.9 0 0 1 .36-.45l.18-.18c-.1-.18-.18-.45-.27-.63a.78.78 0 0 1-.27-.55.77.77 0 0 1 0-.63.77.77 0 0 0 0-.72c-.1-.1-.1-.18-.18-.18a.33.33 0 0 0-.28-.1c-1-.09-1-.09-1.44.73l-.1.09a1.97 1.97 0 0 1-.6.64c-.1.05-.2.08-.3.08-.09 0-.18.1-.27.1v.17c0 .1 0 .1.09.19.1.27.27.54.36.81a1.05 1.05 0 0 1 .18.9c-.09.64-1.8 2.09-2.08 2.45l-.63.54Zm2.08-9.23-.18-.36a.7.7 0 0 0 .36-.36c.07-.17.1-.36.1-.55a.54.54 0 0 1 .08-.36c.1-.09.1-.18.27-.27.18-.09.18-.09.18-.18l-.09-.09c-.72-.45-.45-1.63-.36-2.17.03-.28.16-.54.36-.73.2-.17.36-.38.46-.63a1.15 1.15 0 0 0 .1-1.09c-.1-.18-.1-.36-.2-.54a1.16 1.16 0 0 0-.36-.9c-.09 0-.18-.1-.36 0-.18.09-.27.09-.36.09-.54.27-1.72.18-2-.27a2 2 0 0 1-.08-1.27v-.54a.54.54 0 0 0-.1-.36c0-.1-.08-.19-.17-.28-.1-.09-.18-.18-.27-.18-.1 0-.19-.09-.37-.09-.34-.03-.68.04-1 .18-.27.16-.52.38-.72.64-.18.27.1.63.55 1.08.23.18.39.44.45.73 0 .54-.54.81-1.36 1.17-.54.27-.63.73-.27 1.81.38.79.9 1.5 1.54 2.08l.27.27-.36.1-1.9.63a2.04 2.04 0 0 0-.1 1.63l-.44.09c-.1-.45-.28-1.9.36-2.08l1.63-.55a5.9 5.9 0 0 1-1.45-1.9c-.18-.54-.63-1.9.54-2.35.82-.36 1.09-.45 1.09-.72a.9.9 0 0 0-.36-.45c-.37-.46-.9-1.1-.55-1.63a2 2 0 0 1 2.08-1c.16.02.3.05.46.1.13.06.26.15.36.26.1.14.2.3.27.46.07.13.1.3.09.45v.54c-.1.3-.1.61 0 .9a2 2 0 0 0 1.45.1c.18-.1.36-.1.54-.18.19-.02.37.01.54.09a1.46 1.46 0 0 1 .55 1.17l.09.45a1.57 1.57 0 0 1-.18 1.45c-.16.26-.34.5-.55.73a.78.78 0 0 0-.27.54c-.09.72-.18 1.45.18 1.72.1 0 .1.09.18.18a.45.45 0 0 1 0 .54c-.09.1-.09.18-.18.27l-.18.18c.02.28-.01.55-.09.82.15.27-.03.45-.3.63h.03Zm-7.42-.9-.36-.27c.72-1.09 1.99-3.08 1.9-3.71 0-.19-.1-.37-.1-.55-.08-.72-.08-1-.63-1.17-.29-.1-.6-.1-.9 0-.09 0-.18.09-.27.09h-.27a.32.32 0 0 1-.18-.1l-.18-.17c0-.1-.1-.28-.1-.37-.01-.19-.08-.37-.18-.54a.5.5 0 0 0-.45-.27l-.36-.1c-.54-.17-.54-.17-.72 0-.19.19-1.54 1.19-1.54 1.19l-.27-.37c.58-.37 1.12-.8 1.62-1.26a.82.82 0 0 1 .64-.27c.22.01.43.07.63.18l.36.09c.25.1.47.25.64.45.18.2.27.46.27.72a.34.34 0 0 0 .09.27h.27a2.2 2.2 0 0 1 1.09 0c.3.14.55.36.72.64a1.11 1.11 0 0 1 .18.9c-.01.19.02.37.1.55.05.99-1.85 3.7-2.03 4.07h.03Zm2.08-5.7-.36-.18c.36-.8.55-1.66.54-2.54a2.8 2.8 0 0 0-1-1.8l-.17-.19c-1-1.17-1.81-1.54-2.08-1.54-.38.12-.75.27-1.09.46l-.9.45.63-.82a.33.33 0 0 0 .09-.27.81.81 0 0 0-.54-.54c-.73-.45-.9-.36-1.18-.1l-.1.1c-.38.26-.81.48-1.26.63l-.18-.45 1.09-.54.09-.1c.45-.35.81-.54 1.72.1.18.07.34.2.45.36l.27.54v.1c.27-.1.45-.19.72-.28.55-.18 1.54.54 2.45 1.63l.18.18c.62.53 1 1.27 1.08 2.08.07.93-.1 1.86-.48 2.72h.03Zm9.5-3.62A5.23 5.23 0 0 0 70 31.3a4.03 4.03 0 0 0-2.08-.27l-.45.09.18-.36c.33-.58.48-1.24.45-1.9a2 2 0 0 1-.09-.73c-.09-1.17-.27-1.99-1.09-1.9a2.79 2.79 0 0 0-1.71.55l-.28.36-.09-.46s-.36-1.99-1.44-1.9c-.19 0-.28.1-.46.1-.13.06-.26.15-.36.27-.16.33-.2.72-.09 1.08.1.41.25.8.45 1.18l.1.27-.28.09c-.18.1-.45.18-.63.27-.15.16-.27.34-.36.54-.1.82 0 1.36.63 1.63.64.34 1.24.74 1.81 1.18l.9.27-.09.45-1-.27c-.53-.44-1.1-.84-1.71-1.17a1.44 1.44 0 0 1-.72-.9 1.8 1.8 0 0 1-.1-1.19c.07-.26.2-.5.37-.72.2-.2.45-.36.72-.45a5.1 5.1 0 0 1-.36-1.09 1 1 0 0 1 0-.72c0-.27.1-.52.27-.72a.9.9 0 0 1 .54-.46c.2-.11.41-.17.64-.18 1.17-.09 1.63 1.27 1.8 1.9a3.74 3.74 0 0 1 1.73-.45c1.35-.1 1.44 1.36 1.53 2.35 0 .18.1.45.1.63.1.66-.03 1.33-.37 1.9.68 0 1.34.1 2 .28.91.36 1.7.99 2.26 1.8l-.64.28ZM60.32 30.3h-.45a6.78 6.78 0 0 0-.18-1.9c-.18-.27-.37-.72-.64-1.17-.27-.45-.63-1.09-.81-1.45-.22-.46-.6-.82-1.09-1h-.36c-.2.18-.35.4-.45.64h-.45a2.52 2.52 0 0 0-.55-1.63 1.41 1.41 0 0 0-.72-.54c-.14.06-.26.16-.36.27a.69.69 0 0 1-.45.18.68.68 0 0 1-.46-.1c.1-.08 0-.08-.18-.08s-.18.18-.18.27l-.45-.18a.69.69 0 0 1 .18-.36l.27-.28c.1 0 .27-.09.36 0 .1.1.27.1.36.1.28.09.28.09.37.09l.27-.28c.1-.1.22-.15.36-.18.24.01.46.11.63.27.2.1.35.26.46.46.3.37.51.8.63 1.26l.27-.27c.1-.09.18-.09.36-.09h.36c.3.12.57.27.82.45.28.2.47.49.54.82.27.54.45 1 .73 1.45.27.45.45.9.63 1.17.15.69.2 1.39.15 2.08h.03Zm1.18-1.8a2.16 2.16 0 0 1-2.09-2.09c-.18-.81.73-1.17 1.18-1.35l-.36-.64c-.18-.18-1.18-1-1.81-1.63a2.12 2.12 0 0 1-.63-2.62c.1-.27.29-.5.54-.63.24-.15.53-.21.81-.18h.27c0-.1 0-.1-.09-.19-.25-.4-.38-.87-.36-1.35-.02-.45.11-.9.36-1.27l.28-.27c.1-.1.22-.16.36-.18.6-.17 1.25-.1 1.8.18.55.27.46 1.27.37 1.72.8 0 1.58.09 2.35.27.82.36.73 1.63.73 2.35-.04.43-.13.86-.28 1.27l-.09.45c.24-.07.48-.1.73-.09.26 0 .52.1.72.27a1.4 1.4 0 0 1 .72 1.45c0 .19.02.37.1.54l.09.1h.09c.09-.1.18-.1.27-.28.09-.18.09-.18.09-.36 0-.27.09-.53.27-.72.18-.18.36-.46.54-.55.3-.1.6-.16.9-.18.33 0 .65.09.91.27l-.18.37a2.23 2.23 0 0 0-1.54-.19.9.9 0 0 0-.36.46c-.1.16-.16.35-.18.54 0 .2-.07.38-.18.54a.83.83 0 0 1-.54.37h-.37c-.09-.1-.27-.19-.27-.28-.07-.23-.1-.48-.09-.72a.77.77 0 0 0 0-.63c-.1-.17-.22-.32-.36-.46-.2-.1-.41-.16-.63-.18-.23 0-.44.07-.64.18-.09 0-.09.1-.18.1h-.18l-.09-.1v-.09c.02-.3.08-.61.18-.9l.27-1.27c.1-.81 0-1.72-.45-1.9-.8-.18-1.62-.27-2.44-.27h-.27l-.18-.27c.09-.45.27-1.36-.1-1.45-.45-.2-.95-.26-1.44-.18a.32.32 0 0 0-.18.1l-.18.17c-.2.33-.33.7-.37 1.09 0 .39.13.77.37 1.08a.33.33 0 0 1 .09.27v.37c-.1.09-.18.18-.27.18-.1 0-.28.09-.37 0-.18-.02-.37.01-.54.09a.9.9 0 0 0-.36.45c-.16.37-.2.79-.1 1.18.1.4.32.75.64 1 .73.63 1.81 1.62 1.81 1.62v.1l.72 1.26-.27.09s-1.26.36-1.17.9a1.46 1.46 0 0 0 .54 1.18c.32.3.74.46 1.18.45l-.1.45Zm-3.44-3.53-.27-.28.36-.36c.09-.18.09-.36.18-.54l-.27-.27a1.8 1.8 0 0 0-.36-.73c-.2-.18-.4-.33-.64-.45a.58.58 0 0 0-.54 0c-.16.07-.31.16-.45.27l-.36.55-.1-.55c-.05-.85-.3-1.69-.72-2.44a2.12 2.12 0 0 0-.63-.63 3.21 3.21 0 0 0-.82-.37c-.54.1-1.05.35-1.44.73l-.55.45.18-.72v-.46c0-.18-.09-.27-.18-.45s-.09-.18-.18-.18a.34.34 0 0 0-.27-.09.58.58 0 0 0-.54 0 .9.9 0 0 0-.45.36c-.16.22-.28.47-.37.73l-.45-.18c.1-.28.27-.55.36-.82.14-.25.37-.44.64-.54.26-.08.54-.1.81-.1.18 0 .27.1.45.19a.7.7 0 0 1 .36.36c.12.23.18.47.19.72.4-.27.87-.45 1.35-.54a1.36 1.36 0 0 1 1 .36c.3.22.56.46.81.73.42.68.67 1.46.73 2.26.16-.1.35-.16.54-.18h.54a2.17 2.17 0 0 1 1.45 1.45l.09.27c.33.54-.3 1.36-.48 1.45h.03Zm.18-4.89-.36-.18c.16-.34.2-.73.09-1.09a.81.81 0 0 0-.55-.54c-.18 0-.27.1-.36.27l-.27.27c-.36.27-.54-.09-.72-.36a.96.96 0 0 0-.64-.54c-.28-.08-.56-.2-.81-.36a1.41 1.41 0 0 1-.54-.73c-.27-.9.72-1.45 1.17-1.72.1 0 .1-.09.18-.09v-.18c0-.09 0-.18-.09-.18s-.09-.09-.18-.09h-.36a1.11 1.11 0 0 1-.9-.18l-.19-.18v-.54a1.5 1.5 0 0 1 .55-1.45c.72-.54 1.17-.9 2.17-.27h.09l.54.27h.1c.13-.08.29-.1.45-.1l.18-.08c.28-.12.6-.15.9-.1.29.09.56.21.82.37a2 2 0 0 1 .72 1.17c.1.31.22.61.36.91.54.9.72.81.9.72l.19-.09a.78.78 0 0 1 .54-.27c.21-.01.43.02.63.1l.27.26c.1.1.1.27.19.37.03.17.13.33.27.45.18.27.45.45.54.81l-.36.27c-.18-.27-.45-.63-.45-.63s-.28-.18-.28-.36a.69.69 0 0 1-.18-.45c0-.1 0-.19-.09-.19s-.09-.09-.18-.18h-.36c-.1 0-.27.1-.27.18 0 .1-.18.1-.27.19-.55.36-1-.1-1.45-.82-.2-.3-.36-.64-.45-1-.09-.39-.31-.74-.64-.99-.19-.15-.4-.28-.63-.36a2 2 0 0 0-.72.09l-.28.09c-.09 0-.27.1-.36.1-.27.08-.36.08-1-.37h-.08c-.73-.54-1-.36-1.63.18a.76.76 0 0 0-.36 1v.45c.2.08.41.1.63.09h.45c.14.07.26.16.36.27.12.12.18.28.19.45a.82.82 0 0 1-.37.73c-.54.36-1.08.72-1 1.26.1.22.26.4.46.54.17.17.4.27.63.28a1.28 1.28 0 0 1 .82.72c.09.1.09.18.18.18l.18-.18c.1-.11.23-.2.36-.27.1-.07.24-.1.36-.1l.55.28c.16.1.3.27.36.45.07.24.1.48.09.73a.83.83 0 0 1-.1.72Zm-4.7 49.94h-.64v-.36c1.18.03 2.36-.03 3.53-.18.44-.1.83-.36 1.08-.72v-.37c-.35-.53-.81-1-1.35-1.35l-.18-.1.27-.17c.5-.29.88-.74 1.08-1.27.46-1.36.28-2.17-.63-2.44-1.18-.46-2.62 1.17-2.62 1.17l-.27.27v-.27c-.1-.3-.3-.55-.55-.72-.24-.15-.53-.2-.81-.18a2.72 2.72 0 0 0-1.63 1.63l-.27.54c-.45.45-.9 1-1.36 1.36l-.27-.37c.47-.37.89-.8 1.27-1.26.1-.14.2-.3.27-.45.18-.43.43-.82.72-1.18.36-.3.75-.54 1.18-.72a1.26 1.26 0 0 1 1 .18c.3.16.55.41.72.72.45-.54 1.72-1.54 2.9-1.09 1.17.46 1.44 1.45.8 2.99-.19.51-.54.96-.99 1.27.5.34.91.8 1.18 1.35v.28a.34.34 0 0 1-.1.27c-.32.47-.8.82-1.35 1-1 .19-2 .25-3.01.17h.02Zm9.95-51.84-.46-.1c.18-1.44 1.81-2.34 2.9-2.98l.18.37c-1 .72-2.47 1.53-2.65 2.71h.03Zm-43.52-6.24a14 14 0 0 1-3.9-.64l.1-.45s4.43 1.45 6.6-.09l.27.36c-.92.6-2 .88-3.1.82h.03ZM56.6 57.28h-.45a2.79 2.79 0 0 0-.45-1.09c-.2-.34-.48-.61-.82-.81a3.62 3.62 0 0 0-2.53-.73v-.36a4.79 4.79 0 0 1 2.9.72c.39.23.73.54.99.9.2.44.3.9.33 1.37h.03Zm-3.17-38.1-.18-.45c.82-.27.9-1.63.9-1.63h.46a2.26 2.26 0 0 1-1.2 2.08h.02Zm-3.53-4.34-.36-.18c.1-.18.64-1.63 1.45-1.9.28-.15.6-.2.9-.18.31.08.6.23.82.45l.18.18c.07.19.2.35.36.46.18.09.36.27.55.27h.18v-.1l.45-.08v.27a.34.34 0 0 1-.1.27c-.08.09-.17.18-.26.18-.1 0-.18.09-.27 0a1.62 1.62 0 0 1-1.18-1c0-.09-.1-.09-.1-.18-.17-.27-.44-.36-1.17-.09-.68.34-1.2.92-1.47 1.63h.02Zm5.89-2.98-.37-.28c.9-1.53-.9-3.89-.9-3.98l.36-.27c-.03.18 1.96 2.8.88 4.53h.03Zm4.7 3.07c-.63-.9.27-3.53.36-3.89l.36.18c-.36 1.09-.81 2.99-.45 3.44l-.27.27Zm-2.26 57.9a6.97 6.97 0 0 0-2.26-.9c-.1 0-.27-.09-.37-.09l-.27-.27c.02-.3.08-.61.18-.9.13-.28.32-.53.55-.73-.48.08-.97.1-1.45.1v-.46c.68.09 1.36 0 1.99-.27l.18-.1.18.19c.1.18 0 .27-.18.45-.9 1-1.08 1.36-1 1.54l.1.1h.09c.88.13 1.71.47 2.44.99l-.18.36Zm-2.99 2.09a2.64 2.64 0 0 1-.81-.18c-.54-.36-1-.82-1.36-1.36l-.18-.27h.18l-.27-.36h.18c.2.1.35.26.45.45.27.5.68.9 1.18 1.18.83.2 1.7.07 2.44-.37l.18.37c-.6.36-1.3.55-2.01.54h.02Zm4.89-3.26-.36-.27c.44-.62.75-1.33.9-2.08 0-.18.1-.27.1-.36v-.27a.69.69 0 0 0-.46-.18c-.27-.1-.45-.1-.63-.28-.73-.45-.1-1.62 0-1.8l.36.18c-.18.27-.45 1.08-.18 1.26.16.1.35.16.54.18.18 0 .27.1.36.1.1 0 .27.17.36.26a.34.34 0 0 1 .1.28v.27c0 .09-.1.27-.1.36a5.43 5.43 0 0 1-.9 2.26l-.1.1Zm-7.24-10.5c-.45.03-.9-.1-1.27-.36-.09-.09-.09-.09-.09-.18v-.27a.47.47 0 0 1 .18-.36c.1-.09.19-.27.28-.27l.09-.1v-.17c0-.1-.1-.18-.18-.27-.1-.1-.19-.19-.28-.19-.63-.36-.72-.27-.9-.18l-.54.28c-.61.25-1.16.62-1.63 1.08l-.27-.45a7.76 7.76 0 0 1 1.8-1.18c.1 0 .19-.09.28-.18.27-.27.54-.27 1.35.18.3.19.53.48.64.82a.54.54 0 0 1-.1.36c-.08.09-.08.18-.17.27a.49.49 0 0 0-.28.36v.18c.33.1.66.17 1 .18l.09.46Zm10.5-.36-.28-.36c.1 0 1.63-1.17 2.8-.54a1.65 1.65 0 0 0 1.82 0l.27.36a2.5 2.5 0 0 1-1.18.27c-.4 0-.8-.1-1.17-.27-.93-.54-2.3.54-2.3.54h.04ZM47.1 64.7H25.64v-2.45h21.38l.09 2.45Zm-21.02-.46h20.54V62.7H26.09v1.54Zm25.34 7.33H21.2V68.4h30.22v3.17Zm-20.09 1.54h-4.43c-.73.01-1.46.08-2.18.18a32.04 32.04 0 0 0-3.89 2.26c-.87.44-1.78.8-2.71 1.09 1.02.46 2.13.7 3.26.72.9-.09 3.7-.72 3.7-.72l-4.3 2.98c.9.3 1.85.42 2.8.37a22.8 22.8 0 0 0 3.52-1.09c1.56-.87 3.2-1.6 4.89-2.17l-.66-3.62Zm19.9 4.16c1.13.04 2.26-.2 3.26-.72-.93-.29-1.84-.65-2.71-1.09a32.05 32.05 0 0 0-3.87-2.26 8.45 8.45 0 0 0-2.08-.18h-4.43l-.72 3.62c1.62.6 3.25 1.33 4.88 2.17 1.12.54 2.3.9 3.53 1.09.98.05 1.96-.07 2.9-.37l-4.35-3.07c1.17.38 2.38.65 3.6.81Zm-11.3-4.16H32.6l.63 3.26c1.94-.37 3.94-.37 5.88 0l.82-3.26Zm-.16-60.53a.9.9 0 0 0-1-.36c-.47.1-.93.28-1.35.54l.09-.09s.81-1.27.63-1.8c-.1-.28-.25-.53-.45-.73a1.36 1.36 0 0 0-1.63 0c-.23.18-.39.43-.45.72-.18.54.63 1.81.63 1.81l.1.1-1.36-.55a1 1 0 0 0-1 .36c-.18.2-.28.46-.27.72-.02.25.01.5.09.73.1.24.25.46.45.63.2.18.46.28.73.27a1.56 1.56 0 0 0 1.44-.63c.2-.23.39-.47.55-.72.11.26.27.5.45.72a1.64 1.64 0 0 0 1.54.63c.26-.03.5-.13.72-.27.2-.17.36-.39.45-.63.07-.24.1-.48.1-.73-.2-.2-.36-.45-.46-.72Zm3.17 64.87c-.27-.1-.54-.2-.82-.27a13.97 13.97 0 0 0-5.79-1c-2.23.01-4.44.44-6.51 1.27l-.18-.36c2.14-.82 4.4-1.28 6.7-1.36 2.04-.09 4.08.29 5.96 1.09.25.07.5.17.73.27l-.1.36ZM38.3 2.27c0-.1-.1-.19-.1-.28 0-.09-.18-.18-.24-.18-.45 0-.9.55-1 .46-.08-.1.19-.55.19-1 0-.18-.1-.27-.18-.45a.77.77 0 0 0-.73 0 .69.69 0 0 0-.18.45c0 .45.27.81.18 1-.09.18-.57-.46-1-.46-.08 0-.17.1-.26.18a.33.33 0 0 0-.1.28c0 .18 0 .45.1.54a.7.7 0 0 0 .45.18c.18.01.37-.02.54-.1.45-.17.36.19.36.19l-.09 1.18h.64l-.1-1.27s-.09-.36.37-.18c.14.06.3.1.45.09.17 0 .33-.07.45-.18.27-.1.27-.27.27-.45"/></svg>