<svg xmlns="http://www.w3.org/2000/svg" width="24" height="24" fill="#C1B4A3"><path d="M8 18.8c0 .1 0 .2-.2.2s-.3 0-.3-.2l.3-.1.2.1Zm-1.5-.2c0 .1 0 .2.2.3l.3-.1c0-.1 0-.2-.2-.3l-.3.1Zm2.2 0c-.2 0-.3 0-.3.2l.3.1c.2 0 .3-.1.2-.2l-.2-.2ZM11.8 0C5.1 0 0 5.1 0 11.8c0 5.4 3.4 10 8.2 11.6.6 0 .8-.3.8-.6v-3s-3.4.8-4-1.4c0 0-.6-1.4-1.4-1.8 0 0-1.1-.7 0-.7 0 0 1.3 0 2 1.2 1 1.9 2.8 1.3 3.5 1 0-.7.4-1.3.7-1.6-2.7-.3-5.4-.7-5.4-5.4 0-1.3.4-2 1.1-2.8 0-.3-.5-1.6.2-3.3C6.7 4.7 9 6.3 9 6.3a11.4 11.4 0 0 1 6 0s2.4-1.6 3.4-1.3c.7 1.7.3 3 .1 3.3.8.9 1.3 1.5 1.3 2.8 0 4.7-2.9 5-5.6 5.4.5.4.9 1.1.9 2.2v4c0 .4.2.8.8.7A12 12 0 0 0 24 11.8C24 5.1 18.6 0 11.8 0ZM4.7 16.7v.2c.1.1.2.2.3 0v-.2h-.3Zm-.5-.4v.2h.3l-.1-.2h-.2ZM5.7 18l.1.3h.3v-.2c-.1-.1-.3-.2-.4 0Zm-.5-.7v.3c0 .1.2.2.3.1v-.3c-.1-.1-.2-.2-.3 0Z"/></svg>