<svg xmlns="http://www.w3.org/2000/svg" viewBox="0 0 180 180" width="180" height="180"><defs><style>.a{fill:#f6f4f3}.b{fill:#c1b4a3}</style></defs><path d="M44.7 36.5a9.8 9.8 0 0 1 6.3 5.8c.4.9.4 4.7.6 52.7.1 50.8.1 51.7.5 52.8a9.5 9.5 0 0 0 8.9 5.9 6 6 0 0 0 3.7-.9 8.6 8.6 0 0 0 5.1-6.7 61.1 61.1 0 0 0 .3-7.9v-6.6h60.7v-31l-1.8 1.7a11 11 0 0 1-6.2 3.2 11.2 11.2 0 0 1-5.5-.5c-.7-.3-.8-.3-1.1 0s-.3.5.2 1.1a3.8 3.8 0 0 1-.1 4.6c-1 1.2-1.6 1.4-4.5 1.4h-2.7l-2.9 3-3.4 3.2a3.8 3.8 0 0 1-5.6-4c.1-.8 1.1-1.8 7.1-7.9l6.9-6.9-.4-1.4a10.1 10.1 0 0 1 .7-8.2 11.8 11.8 0 0 1 3.1-3.9c2-2 2.3-2.5 2.4-3.2a3.7 3.7 0 0 1 3.2-3.2c1-.1 3.8-2.7 3.8-3.5a5.3 5.3 0 0 1 1.6-2.9 3.1 3.1 0 0 1 1.6-.6 4.1 4.1 0 0 0 1.5-.7l1.3-1 .8-.6V56.9c0-13.1 0-13.4-.6-14.6a9.6 9.6 0 0 0-5.3-5.5l-1.4-.5H83.6c-32.9-.1-39.7 0-38.9.2ZM70 54.8a1.4 1.4 0 0 1-.2 1.6 66 66 0 0 1-10.9-.1 1.5 1.5 0 0 1 0-1.8c.2-.2 1.7-.3 5.5-.3h5.2Zm52.1 1.2c.4.6.5.9.5 4.1s-.2 4.3-.8 4.7-18.3.2-18.6 0-.8-1.3-.8-4.7.1-3.5.5-4.1l.5-.6h18.2Zm-47.3 6.9a1.5 1.5 0 0 1 .1 2c-.3.3-1.4.3-7.9.3s-7.6 0-8-.4a1.3 1.3 0 0 1 0-1.8c.3-.3 1.3-.3 7.8-.3 4.8 0 7.7 0 8 .2Zm48.2 8.5a1.2 1.2 0 0 1 .4 1.9c-.4.3-3.1.4-32.3.4-34.9 0-32.6.1-32.5-1.4a1.3 1.3 0 0 1 .7-.9c.5-.2 7.2-.3 31.9-.3s31.4.1 31.8.3Zm-29.6 8.7a1.3 1.3 0 0 1 .1 1.6c-.2.4-.7.4-17.3.4-12.9 0-17.1-.1-17.3-.3a1.5 1.5 0 0 1 0-1.8c.2-.2 4.3-.2 17.2-.2 15.1 0 16.9 0 17.3.3ZM115 80a1.7 1.7 0 0 1 0 1.9 68.1 68.1 0 0 1-7.9.2h-7.6l-.2-.6c-.2-.6-.2-.8.2-1.2s.7-.4 7.8-.4c5.5-.1 7.5-.1 7.7.1Zm-4.8 8.6a1.3 1.3 0 0 1 0 1.8c-.3.4-1.4.4-25.6.4-27.6 0-26 .1-26-1.3s-1.6-1.3 25.9-1.3c23.2 0 25.3 0 25.7.4ZM68 97.3c.3.7.3 1.1-.2 1.5s-1 .4-4.3.4A31.9 31.9 0 0 1 59 99a1.3 1.3 0 0 1-.1-1.8c.2-.2 1.5-.3 4.5-.3s4.3 0 4.6.4Zm41.1.1a1.7 1.7 0 0 1 0 1l-.2.7H92.8c-14.6 0-16 0-16.4-.4s-.6-.8-.2-1.5.6-.4 16.4-.4 16.2.2 16.5.6Zm-19.9 8.3a1 1 0 0 1-.1 1.5c-.3.4-1.1.5-15.2.5-11.1 0-14.8-.1-15-.3a1.5 1.5 0 0 1 0-1.8c.2-.2 3.9-.3 15.1-.3 13.1 0 14.8.1 15.2.4Zm12.3-.1a1.5 1.5 0 0 1-.5 2 15.1 15.1 0 0 1-4.9.2c-1-.3-1.4-1.1-.8-1.9s.4-.6 3.1-.6 2.9.1 3.1.3ZM78.8 114c.6.3.6 1.5-.1 2s-1.8.3-9.8.3c-10.1 0-10.3 0-10.3-1.3s-.1-1.2 10.2-1.2c6.1 0 9.7 0 10 .2Z" class="a"/><path d="M40.2 39.1a7.5 7.5 0 0 0-3.4 2.7l-.7 1.1h12.3c.3-.3-.7-1.6-1.6-2.5a6.9 6.9 0 0 0-6.6-1.3ZM133.8 72a10.2 10.2 0 0 0-4 2.3c-.9.9-1.1 1.2-.9 1.5a35.5 35.5 0 0 1 .2 4.8V85l3.2-3.1c3.1-3.1 3.7-3.5 4.4-2.7s.5 1.3-2.7 4.5l-3.1 3.1h9.5c.4 0 .9-.4 1.6-1.3a7.9 7.9 0 0 0 2-5.6 6.2 6.2 0 0 0-.7-3.3 8.5 8.5 0 0 0-7.1-4.8ZM124.1 80l-2.3 2.5v9.7l2.3-2.3 2.3-2.3v-9.9ZM116.8 87.3c-3.3 3.4-3.9 4.5-3.9 7.3s.6 4.3 1.3 4.8.9-.3 2.8-2.2l2.5-2.6v-9.9ZM126.1 91.6a17.6 17.6 0 0 0-2.1 2.3 34 34 0 0 0 4.9.2h4.8l2.3-2.4 2.4-2.3h-10.1ZM118.7 99l-2.5 2.5.5.4a8.6 8.6 0 0 0 8.1.3c1.1-.5 6.2-5.1 6.2-5.6a31.7 31.7 0 0 0-4.9-.2h-4.8ZM107 107.2c-4 3.9-7.3 7.4-7.4 7.6s.3 1.5 1.1 1.5 1.3-.7 4.1-3.4l3.4-3.4h2.9c3.2 0 3.5-.1 3.5-1.1s-.4-1.2-2.3-1.2h-1.8l2.8-2.8 2.8-2.8-.8-.9-.9-.8Z" class="b"/><path d="M72.4 140.2c0 7.9-.3 9.2-3.1 12.3l-1.1 1.3h33c22.8 0 33.4 0 34.4-.2a10.3 10.3 0 0 0 6.9-5.3c.6-1.4.6-1.4.7-7.8v-6.4H72.4Z" class="a"/></svg>