<svg xmlns="http://www.w3.org/2000/svg" viewBox="0 0 180 180" width="180" height="180"><defs><style>.a{fill:#c1b4a3}.b{fill:#f6f4f3}</style></defs><path d="M75.1 40.1a8.2 8.2 0 0 0-4.5 3.7c-.6 1.2-.7 1.6-.8 9.4v8.1h4.7v-15l1-1 1-1h27l1 1 1 1v15h4.7v-8.1c-.1-7.8-.2-8.2-.8-9.4a8.4 8.4 0 0 0-4.6-3.7c-2.1-.6-27.7-.6-29.7 0Z" class="a"/><path d="M77.4 54.3v7h25.2V47.2H77.4ZM26.7 65.1l-.9.8v4.8c0 5.6.5 7.9 1.9 11a19.4 19.4 0 0 0 15.7 11.2l2.3.2.2-1.1a3.7 3.7 0 0 1 1.9-3.1l.9-.5V64.2H27.5Z" class="b"/><path d="M51.7 76.3v12.1h6.4V64.2h-6.5Z" class="a"/><path d="M61.3 76.3v12.1l.8.5a3.6 3.6 0 0 1 2 3.2l.2 1.1h51.4l.2-1.1a3.6 3.6 0 0 1 2-3.2l.8-.5V64.2H61.3Z" class="b"/><path d="M121.7 76.3v12.1h6.4V64.2h-6.8Z" class="a"/><path d="M131.3 76.3v12.1l.9.5a4 4 0 0 1 2 3.1v1.1l2.3-.2a19.3 19.3 0 0 0 16.2-12.5c1-2.4 1.4-4.9 1.4-10v-4.5l-.9-.8-.8-.9h-21.1ZM25.9 109.6v25l1.9.4a17.7 17.7 0 0 1 13.4 13.9l.2 1.5h7.2v-24.9c0-23.9 0-24.9-.5-25.1a4.1 4.1 0 0 1-2.3-3l-.2-1.4-2.3-.2a22.3 22.3 0 0 1-17-10.5c-.4-.6-.5.9-.4 24.3Z" class="b"/><path d="M153.5 85.6a23.7 23.7 0 0 1-5.3 5.7 22 22 0 0 1-11.6 4.5l-2.2.2-.3 1.5a4.1 4.1 0 0 1-2.3 2.9c-.5.2-.5 1.2-.5 25.1v24.9h7.2l.3-1.9a17.7 17.7 0 0 1 13.3-13.5l1.9-.4V97.2c0-12.3 0-12.5-.5-11.6ZM48.8 91.9a26.9 26.9 0 0 0 0 3v2.6h12.3v-5.9h-6c-4.9-.1-6.1-.1-6.3.3ZM118.8 91.9a26.9 26.9 0 0 0 0 3v2.6h12.3v-5.9H125c-4.8-.1-6-.1-6.2.3ZM64.1 97.3a4.4 4.4 0 0 1-2.2 3.1c-.6.2-.6.6-.6 25.1v24.9h57.4v-24.9c0-24.5 0-24.9-.6-25.1a4.4 4.4 0 0 1-2.2-3.1l-.2-1.1H64.3Zm27.7 2.4A6.6 6.6 0 0 1 94 101l1.2 1h8c7.3.1 8.1.1 8.9.6a5.3 5.3 0 0 1 1.2 1.4 9.4 9.4 0 0 1 .1 5 4.4 4.4 0 0 1-3.8 2h-1.4l3.3 6.5c3.8 7.4 3.9 7.9 2.6 10.4s-4 4.4-9.1 4.1c-3.4-.1-4.4-.4-6.2-2.1a7.2 7.2 0 0 1-2.2-4.2c-.2-1.1 0-1.5 3.2-7.8l3.4-6.7a25.9 25.9 0 0 0-4.4-.2h-4.4v26.3h5.6l1.1 1.2c1.8 2 2 4.5.4 6.3s-1.8 1.8-11.5 1.8-10.1-.1-11.5-1.8-1.4-4.3.4-6.3l1.1-1.2h5.6v-26.2h-4.4a25.9 25.9 0 0 0-4.4.2l3.4 6.7c3.2 6.3 3.4 6.7 3.2 7.8a7.2 7.2 0 0 1-2.2 4.2c-1.8 1.7-2.8 2-6.2 2.1-5.1.3-7.6-.9-9.1-4.1s-1.2-3 2.6-10.4l3.3-6.5h-1.4a4.1 4.1 0 0 1-3.7-2 8.5 8.5 0 0 1 0-5 5.3 5.3 0 0 1 1.2-1.4c.8-.5 1.6-.5 8.9-.6h8l1.2-1a5.9 5.9 0 0 1 5.8-1.4Z" class="b"/><path d="M88.4 102.9a4.4 4.4 0 0 0-1.4 1.3l-.5.8h-8.3c-4.5 0-8.4.1-8.6.2s-.4.7-.3 1.5v1.3h41.4v-1.3c.1-.8 0-1.3-.2-1.5s-4.2-.2-8.7-.2h-8.3l-.6-.9c-1.2-1.7-3-2.2-4.5-1.2ZM88.6 124.2v13.1h2.6v-26.2h-3Z" class="a"/><path d="m71.5 118-2.5 5.2a32 32 0 0 0 5.2.2c4.1 0 5.3-.1 5.2-.4s-5-9.8-5.2-9.8-1.3 2.2-2.7 4.8ZM103.1 118.1l-2.6 5.1a38.2 38.2 0 0 0 5.4.2 31.2 31.2 0 0 0 5.1-.2c-.3-1-5.1-10-5.2-10a26.2 26.2 0 0 0-2.7 4.9Z" class="b"/><path d="M68.3 126.5c0 .6 1.4 1.9 2.4 2.3a14.7 14.7 0 0 0 6.9.2 5.4 5.4 0 0 0 2.5-2.2c.2-.4-.1-.5-5.8-.5a47.6 47.6 0 0 0-6 .2ZM99.9 126.8a5.4 5.4 0 0 0 2.5 2.2 14.7 14.7 0 0 0 6.9-.2c1-.4 2.4-1.7 2.4-2.3a47.6 47.6 0 0 0-6-.2c-5.7 0-6 .1-5.8.5ZM80.8 140.9a1.8 1.8 0 0 0 0 2.4c.4.6.5.6 9.1.6s8.6 0 9.2-.6a1.6 1.6 0 0 0 0-2.4c-.4-.4-1.5-.5-9.2-.5s-8.6 0-9.1.5ZM51.8 100.7c-.1.2-.2 11.4-.2 25v24.7h6.8v-49.7h-6.6ZM121.8 100.7c-.1.2-.2 11.4-.2 25v24.7h6.8v-49.7H122ZM25.8 142.8a26.8 26.8 0 0 0 .4 6c.6 1.4 1.5 1.6 7.1 1.6s5.5.2 4.6-2.9a14.6 14.6 0 0 0-10.3-9.6l-1.8-.4ZM152.3 137.9a14.7 14.7 0 0 0-10.2 9.6c-.9 3.1-1.3 2.9 4.6 2.9 7.6 0 7.5.1 7.4-7.7v-5.1Z" class="a"/></svg>