<svg xmlns="http://www.w3.org/2000/svg" width="95" height="90" fill="none"><path fill="#BFA779" d="M46.9 11.5v.5c-.5.2-.9.5-1.2 1-.5.6-.7 1.6-.4 2.4v.2L45 15c-.1-.4-.2-1-.1-1.3.1-1 1-1.9 2-2.2ZM12.2 56l.5 1.6.5 1.6h-.4c-.5 0-.8 0-1-.3a33.9 33.9 0 0 1-2.4-3h2.8ZM14.4 55.4h-5l2.2-6.3c.8-2.2 1.8-4.9 2-5.8l5.7-15.6v27.8h-5ZM28.4 56h1.4l-2.4 3s-.2 0-.2.2h-.4l.9-1.7.7-1.6ZM29.9 55.5H19.8V27.6l1.7 4.8A555.1 555.1 0 0 1 28 50.2a77 77 0 0 1 2 5.3ZM46.9 21.4V24c-.3-.1-.5-.3-.6-.5-.3-.4-.3-1-.1-1.4.2-.3.4-.6.7-.7ZM39.3 70.7h.8l-.5 1-.4 1.1H37l.2-.6c.4-.8 1.2-1.4 2.1-1.5Z"/><path fill="#BFA779" d="M44.5 13.2a3 3 0 0 0 1 3.4l.2.1h-.1a1 1 0 0 0-.6.6l-.1.4v.4l.5.4H47v.9H46c-3 .1-5.8.6-8.7 1.4l-5 1.9-5.1 1.9c-3 1-5.6 1.4-8.9 1.6h-2.9v-.1c0-.3-.2-.6-.4-.8a1 1 0 0 0-1.1-.2l-.4.4a1 1 0 0 0 0 1.1c.1.2.3.4.6.4a26.4 26.4 0 0 0 5 .4l-4.5 12.2-5 14-.7 1.8h-.6c-.2.1-.2.3-.2.4l2.6 3.4c.3.3.7.6 1.1.6h7.7c8.3 0 7.8 0 8.1-.1l.7-.5 2.6-3.4c.1-.1 0-.3 0-.4h-.7l-.7-2L22 32.4l-1.8-5h.2a39 39 0 0 0 10.5-1.6 52.3 52.3 0 0 1 8.6-1.3 20.5 20.5 0 0 1 6.4 1v13h1v.7h-1.4c-.2 0-.4.2-.5.5l-.1.4v.4c.2.3.4.5.7.5h1.3v5.6a60.4 60.4 0 0 0-2.2 13.7v1l-.2-1.5a47.5 47.5 0 0 1 2-17.6v-.4h-.9v.1a47.6 47.6 0 0 0 0 27.4h-.1c-.4 0-.8.3-1 .8v.1h-5.8a3.2 3.2 0 0 0-2.7 2.7v.5h10.9v.8H34.6c-.6.1-1.1.4-1.4 1v.3l-.1.2v3.8h13.8v10.5H7.6A7.6 7.6 0 0 1 0 82.3V7.6C0 3.4 3.4 0 7.6 0h39.3v11c-1.1.3-2 1-2.4 2.2Z"/><path fill="#345676" d="M48.8 12c-.2-.2-.4-.2-.7-.2v-.3l.6.3.3.2h-.2Z"/><path fill="#535876" d="M48.1 24v-2.6c.4.1.5.4.7.7.2.4.2.8 0 1.3-.2.2-.3.4-.7.6ZM68 56l1 3.3h-1c-.3-.2-.4-.3-1.5-1.8L65.4 56H68ZM75.2 55.5h-10s.3-1.3.9-2.7l6.3-17.6 2-5.7.7-1.8v27.8h.1ZM84.8 56h.7l-1.1 1.4c-.7.9-1.2 1.4-1.2 1.6-.1 0-.2 0-.3.2h-.4l1.6-3.3h.7ZM85.7 55.4H75.6V27.6l.7 2L81 42.3 84 51l1.7 4.5Z"/><path fill="#535876" d="M95 7.6v74.7c0 4.2-3.4 7.6-7.6 7.6H48.1V79.4H62V75.2a2 2 0 0 0-1.3-1.1H48.1v-.8h11v-.1l-.1-.4c-.2-.7-.5-1.2-1-1.7-.3-.4-.7-.7-1.1-.8l-2.7-.1h-3.8V70a1 1 0 0 0-.7-.7h-.2V69a46.2 46.2 0 0 0 0-26.9v-.5h-.9l-.1.3-.4.8V41h1.3c.3 0 .6-.3.7-.5v-.9a1 1 0 0 0-.6-.5h-1.3v-.7h1v-13h.1l.2-.1h.3c.1-.2.4-.2.7-.3l1.2-.2 1.2-.2h.2c1-.2 1.7-.2 2.8-.2 1.6 0 2.8.2 4.6.5l3.7.8a70.5 70.5 0 0 0 10.4 1.6h.2l-2.6 7.3-4.3 12-1.2 3.4-1.5 4-.5 1.4h-.5l-.2.3 1.6 2.2c.6.7 1 1.4 1.2 1.4.2.3.5.4.8.6H83.4c.3-.2.6-.3.8-.6.2 0 2.6-3.4 2.7-3.4l-.1-.4h-.6L83 46.7l-7-19.3h.8c1.3 0 2.2 0 3.4-.2.7 0 .9 0 1-.2.4-.1.5-.5.5-.8a1 1 0 0 0-1.3-1 1 1 0 0 0-.8 1h-2.9c-3.3-.2-5.9-.6-8.9-1.6l-5.1-1.9-4.1-1.5c-3.3-1.1-6.2-1.7-9.6-1.8h-.7v-.8h1.3l.1-.1.5-.4v-.8a1 1 0 0 0-.7-.5l.2-.2c1-.8 1.3-2.2 1-3.4-.4-1-1.1-1.7-2-2l-.4-.1V0h39.2c4 0 7.5 3.4 7.5 7.6Z"/></svg>