<svg xmlns="http://www.w3.org/2000/svg" width="54" height="60" fill="none"><path fill="#2C2E3A" d="M53.75 0v10.38A20.96 20.96 0 0 0 43.37 0h10.38Z"/><path fill="#BFA779" d="M46.25 60H20C8.94 60 0 51.06 0 40V7.5C0 3.37 3.38 0 7.5 0h26.25c11.06 0 20 8.94 20 20v32.5c0 4.13-3.38 7.5-7.5 7.5Z"/><path fill="#2C2E3A" d="M42.75 40.5c-.38 3.06-1.44 5.44-3.13 7.06a9.32 9.32 0 0 1-6.56 2.5c-2.12 0-4.12-.56-5.94-1.62a12.35 12.35 0 0 1-4.3-4.63 13.35 13.35 0 0 1-1.45-4.37h4.32c.25 2.81 1 5 2.25 6.56a6.69 6.69 0 0 0 5.56 2.56c2.06 0 3.81-.69 5.25-2s2.31-3.37 2.75-6.06h1.25ZM41.69 23.19h-1.13l-1.19 2.5a13.03 13.03 0 0 0-3.43-1.94 9.97 9.97 0 0 0-6.56 0c-.63-.25-1.38-.44-2.13-.56 1.5-.44 2.75-1.07 3.69-1.75.31-.25.56-.5.81-.75 1-1.07 1.5-2.32 1.5-3.82 0-1.8-.69-3.25-2.13-4.43-1.43-1.19-3.5-1.81-6.18-1.81H11.25v1.3h2.31c.56 0 1 .13 1.31.38.32.25.44.63.44 1.13v6.75h3.81V13.3c0-.5.2-.87.5-1.06.32-.19 1.25-.31 2.7-.31 2 0 3.43.19 4.24.5.82.31 1.44.81 1.88 1.56.43.69.62 1.69.62 2.94 0 2.06-.43 3.5-1.37 4.43a5 5 0 0 1-3.63 1.38h-8.75v11.81c0 .25-.12.5-.44.75-.3.19-.74.31-1.43.31h-2.19v1.26H24.5c.38 0 .75 0 1.13-.07.62-.06 1.25-.12 1.87-.25.94-.19 1.81-.44 2.56-.81a7.86 7.86 0 0 0 3.5-2.56 6.04 6.04 0 0 0 0-6.81c-.19-.07-.44-.07-.69-.07-1.12 0-2.06.38-2.93 1.13.25.68.37 1.43.37 2.31 0 1.94-.5 3.44-1.5 4.38-.37.3-.81.62-1.31.8-.56.26-1.19.38-1.88.5.13-3.68.82-6.37 2-8.05.44-.63.88-1.13 1.38-1.57.13-.06.19-.18.31-.25l.57-.37s.3-.19.37-.19c.13-.06.56-.25.69-.25.12 0 .43-.13.5-.13.43-.12.93-.12 1.37-.12 2 0 3.69.88 5.13 2.56 1.19 1.38 2.12 3.5 2.87 6.44H42l-.31-10.31Zm-14.5 1.62a12.31 12.31 0 0 0-4.25 5.07 16.4 16.4 0 0 0-1.57 5.68h-.3c-.76 0-1.26-.12-1.5-.37-.26-.25-.38-.56-.38-1.06V24h6c.93.06 1.68.25 2.37.56-.18.13-.31.19-.37.25Z"/></svg>