<svg xmlns="http://www.w3.org/2000/svg" width="128" height="60" fill="none"><path fill="#400000" d="M0 0h127.6v60H0z"/><path fill="#B79355" d="m37.3 32.6-.4 1-.2.5.1-.6.5-.9Zm0-5a3 3 0 0 0 .2.9V28l-.2-.6Zm.7 0-.2.5v.4l.1-.4.1-.5Zm-.3 2a5 5 0 0 0-.6 1l.3-.4.3-.6Zm-.8.7v1.1-1.1Zm.3 3.7-.5.6-.2.4.3-.4.4-.6Zm.1-9.5v1.1l.1-.4-.1-.7Zm-.4 1.6-.2.5v.3l.1-.3.1-.5Zm-.4-3.4v.7l.1.4v-1.1Zm1.6 8.8-.3-.2-.2-.4v-.4l.4-.2c.2-.1.3-.1.3-.6v-.4l-.2-.2-.3-.1a.6.6 0 0 0-.4.2l-.1.2-.2.2h-.3l-.2.4h-.2a.6.6 0 0 1 .2-.5.1.1 0 0 1 .1 0h.1c.1 0 .2 0 .2-.2l.2-.3.3-.2a.8.8 0 0 1 .7.1l.2.4v.4c0 .5-.1.7-.3.7l-.3.2a.1.1 0 0 0 0 .1v.2s0 .2.2.2l.2.2v.2ZM36.3 25v-.4a.4.4 0 0 1 .1-.3h.3c.4 0 .4 0 .5-.3v-.3l.1-.3.3-.3v.2l-.2.4v.4c-.2.2-.3.3-.7.3a.3.3 0 0 0-.3.2v.3h-.1Zm.5 2.9h-.2s0-.8.5-.8a.4.4 0 0 0 .3-.2l.4-.5.1-.1v.2a.2.2 0 0 1 0 .1c-.2.2-.5.7-.8.6-.2 0-.3.5-.3.7Zm-12.9-7.7h-.4l-.7-.5c-.3.2-.6.4-1 .4a1.7 1.7 0 0 1-1.5-.5 2 2 0 0 1-.9.5 2 2 0 0 1-1 0c-.2 0-.5-.2-.8-.5-.3-.2-.5-.6-.7-1-.1-.4-.2-.8-.1-1.2 0-1 .3-1.6.9-2 .4-.3 1-.5 1.5-.5h.2a3.4 3.4 0 0 1 1.6.2l.5.1V15l.2-.5.3-.3a2 2 0 0 1-.3-.7 1 1 0 0 1 .3-.8l.3-.2h.8l.6.6v.4c0 .2 0 .5-.2.7l.2.3c.2.1.3.3.3.6a.4.4 0 0 0 .2.3l.4-.2.5-.1c.6-.2 1.2-.1 1.7.1h.2l.7.5.6.7c.2.5.4 1 .4 1.6 0 .5-.3 1-.5 1.3-.2.4-.5.7-.8.9h-1.8l-.5-.5-.7.5H24Zm-1.2-.8h.1l.7.5h.9l.6-.5h.1l.6.4c.5.2 1 .2 1.6 0 .3 0 .6-.3.8-.7l.4-1.3c0-.5-.1-1-.4-1.4-.2-.5-.7-.9-1.2-1.1h-.1c-.5-.2-1-.3-1.6-.2a2 2 0 0 0-.5.2l-.5.2-.2-.2-.2-.3-.1-.5-.3-.3-.1-.1.2-.7V13l-.2-.2-.3-.2h-.3a1 1 0 0 0-.4 0l-.3.2-.2.4v.3c0 .2.1.5.3.6v.1a1 1 0 0 0-.4.4l-.1.4-.1.4c-.1.2-.4 0-.8 0l-.4-.2a3 3 0 0 0-1 0H19c-.5 0-1 0-1.4.4-.6.4-.8.9-.9 1.8a2.3 2.3 0 0 0 .9 2.1 1.9 1.9 0 0 0 1.6.4c.3 0 .6-.2.9-.5h.1a1.5 1.5 0 0 0 1.5.5c.3 0 .6-.1.8-.4l.1-.1ZM30 45.6v-.2s1.2-.4 1.4-1c.2-.6.5-.9 1.6-1.4.5-.4 1-.8 1.3-1.3.3-.3.6-.7.7-1.2l.6-1c.2-.3.4-.7.4-1l.1-.5.7-1.1v-.1c.3-.5.5-1.1.5-1.7 0-.4.1-.7.3-1 .2-.3.3-.7.3-1 0-.7 0-1.3.2-1.8 0 0 .4-2.5.2-3.5a8 8 0 0 1-.4-1.3l-.3-1.8c.1-.8-.1-1.6-.5-2.3l-.2-.4c-.5-.6-1-1.3-1-1.8a2.1 2.1 0 0 0-1-1.5 2 2 0 0 1-.5-.6l-.5-.7H33.1l.1-.7c-.4 0-.8 0-1.3-.2a2 2 0 0 1-.6-.3c-.4-.4-1-.6-1.5-.5l-1.8.1.2.3.4.8v.2c.1.3.2.7 0 1 0 .3 0 .5-.2.8l-.4.6c-.1.2.2 1 .4 1.4.6.8 1.2 1.6 2 2.4l-.1.1-.3.9.2.2c.3.1.7.3.6.6v.8a.7.7 0 0 0-.5.6l.1.5.4.4.3.4.1.4a.3.3 0 0 1 0 .4l-.1.2-.3.4.1.5c.1.1.1.3 0 .4l-.1.3-.4.6v2.5c0 .3-.2.5-.4.6a1 1 0 0 0-.2.5v.6l-.1.8-.7 1c-.4.3-.7.7-.9 1.2l-.5 1.2-.3 1-.3-.3.4-1 .5-1.3c.2-.4.5-.8.9-1.1l.7-1v-1.4l.4-.5c.2-.1.3-.3.3-.5v-2.6a1 1 0 0 1 .5-.6l.2-.3a.3.3 0 0 0 0-.2c-.2-.2-.2-.4-.2-.6 0-.2.2-.4.4-.6a.1.1 0 0 0 .1-.2.9.9 0 0 1-.2-.5l-.2-.3c-.2-.1-.4-.3-.4-.5l-.2-.6.2-.4.3-.2v-.4l-.1-.1V25c0-.1 0-.2-.3-.4l-.3-.1v-.3c-.1-.3 0-.6.2-.9l-2-2.3c0-.3-.5-1.3-.3-1.6a5.5 5.5 0 0 0 .7-1.3v-.9l-.2-.1c0-.3-.2-.6-.3-.8l-.3-.4h-.1l.1-.1 2-.3c.6 0 1.2.2 1.6.6l.6.3 1.3.1h.1v.8h.7l.5.7c.1.3.2.5.4.6.7.5 1 1 1.1 1.7 0 .5.5 1.2 1 1.7l.1.4c.5.7.7 1.6.6 2.4 0 .6.1 1.2.3 1.7l.4 1.4c.2 1-.2 3.5-.2 3.5a5 5 0 0 0-.2 1.8c0 .4 0 .8-.3 1.1a2 2 0 0 0-.3 1c0 .5-.2 1.1-.5 1.7l-.7 1.2-.1.3c0 .4-.2.9-.5 1.2l-.5 1-.8 1.2a5 5 0 0 1-1.4 1.3c-1 .5-1.3.8-1.5 1.3-.2.7-1.5 1-1.5 1Zm-15 0a5 5 0 0 1-2.8-1.8A6 6 0 0 1 11 42c-.2-.6-.6-1-1-1.5l-2-2.2V38l.6-.2a23.7 23.7 0 0 1-1.4-3.4c0-.5-.2-.7-.2-2.2v-.8l.1-.2.1-.1a.1.1 0 0 1 .2 0l-.4-.7v-1.5l.2-4.2v-.1l.4.3c0-.5.2-.9.3-1.3l.3-.6c.5-1.5 1.3-3.8 4.6-6.3 2.1-1.7 4.8-1.2 4.8-1.2h.2l-.1.2-.2.1a1 1 0 0 0-.3.4c-.2.4-.3.9-.3 1.3 0 .6.1 1.2.5 1.7.2.3.5.5.9.7h.2l-.2.1-2 2c-.5.6-1 1.2-1.7 3.2a14 14 0 0 0-.3 4c.1 1 .4 2 .9 3a18.2 18.2 0 0 1 1.1 4l.1.9c.3.5.5 1 .9 1.4l.9 1.6H18l-.9-1.5-.9-1.5v-1l-.2-.6c-.2-1.1-.6-2.2-1-3.2-.5-1-.8-2-1-3 0-1.5.1-2.8.4-4.2.7-2 1.2-2.6 1.7-3.2a30 30 0 0 1 2-1.9 3 3 0 0 1-.8-.7l-.5-.8-.1-1a3 3 0 0 1 .6-1.8h.1c-1.6-.2-3.2.2-4.5 1.2-3.3 2.5-4 4.7-4.5 6.2l-.3.6-.3 1.4v.1l-.4-.3-.3 4v1.4l.6.8.3.3-.4-.1a.2.2 0 0 0-.2 0l-.1.1v.9c0 1.4 0 1.6.2 2l.2.8 1.1 2.7v.1l-.5.3 1.8 2c.5.5.9 1 1.2 1.7.2.7.6 1.3 1.1 1.8.7.9 1.6 1.4 2.7 1.7l-.1.1ZM17.7 28l-.1.3-.2.2-.3.2h-.9v-.5l.2.1h.7v-.2a.1.1 0 0 0 .1-.1v-.2H17l-.2-.2h-.4v-.3h.4l.1-.2.1-.2v-.2l-.2-.1h-.5v.1h-.2v-.3h.1l.2-.1h1l.1.3v.5a.2.2 0 0 1 0 .1l-.2.1-.1.1h.2a.5.5 0 0 1 .2.4v.2Zm2.2.5v.2h-.4l-.2-.5h-.8l-.2.5h-.4a.1.1 0 0 1 0-.2l.7-2.1h.6l.7 2.1Zm-1-1.8-.4 1h.7l-.4-1Zm3 2h-.4l-.3-.6V28l-.1-.1-.1-.1H20.7v1h-.5v-2.4h.4v1h.4v-.1l.1-.1.1-.2.1-.5.1-.1h.4v.2l-.1.4-.1.2-.1.2-.1.1h-.1v.2h.2l.1.2v.2l.3.5v.2Zm2.3-1.3v.6l-.2.4-.4.2a2 2 0 0 1-.5 0 1 1 0 0 1-.4 0 .6.6 0 0 1-.3-.2l-.2-.4-.1-.6V27l.3-.4.3-.2h.9c.2 0 .3.1.4.3l.2.3v.5Zm-.5 0v-.3l-.1-.3-.2-.1-.3-.1a.3.3 0 0 0-.3 0l-.2.3v.2l-.1.3v.4l.1.3.2.1.3.1a.6.6 0 0 0 .5-.3V28l.1-.4Zm2.7 1.2H26v-1h-1v1h-.3v-2.3h.3v1h1v-1h.4v2.3Zm1.3-1.4h.7l.2.2.2.2v.6l-.1.3-.3.1a2 2 0 0 1-.5 0h-.5v-1.9h-.6v-.4h.8a.1.1 0 0 1 .1.2v.7Zm.7.7V28l-.1-.2H27.7v.7h.5v-.1l.2-.1V28Zm1.2 2H15.4v-4.8h14.2V30Zm-14-.2h13.8v-4.4H15.6v4.4ZM17 41.3V40h11v1.2H17Zm.1-.2H28v-.8H17.2v.8ZM29.8 44H15.3v-2.9h14.5V44Zm-14.3-.2h14.1v-2.5H15.5v2.5ZM26 23.2h-7v-1.4h7v1.4Zm-6.8-.2h6.7v-1h-6.7v1Zm8-.8h-9.4v-1h9.4v1Zm-.2-.8h-8.8v-1.1H27v1Zm-8.6-.2h8.4v-.8h-8.4v.8Zm8-1.3a1.8 1.8 0 0 1-1.3-.7 1.7 1.7 0 0 1-1.3.6c-.4 0-.8-.3-1-.6a1.5 1.5 0 0 1-1.2.5l-.7-.1-.5-.4a3 3 0 0 1-1.3.6 2 2 0 0 1-1.2-.4l.2-.1c.3.2.6.3 1 .3a3 3 0 0 0 1.2-.6l.1-.1.6.5.6.2a1.4 1.4 0 0 0 1-.6h.2c.3.4.6.6 1 .6.2 0 .5 0 .7-.2.2 0 .4-.2.5-.4l.1-.1h.1c.1.3.3.4.5.5l.7.3 1-.1v.1l-1 .2Zm-5.8-4v.3h-.2a.2.2 0 0 1-.2 0H20v-.4a.3.3 0 0 1 .3-.1h.2v.3Zm.4.8v.2h-.2a.2.2 0 0 1-.2 0h-.2v-.4a.3.3 0 0 1 .4-.1h.1v.3Zm.4.7a.3.3 0 0 1-.2.3.2.2 0 0 1-.2 0l-.1-.1-.1-.2v-.2a.3.3 0 0 1 .4-.1l.1.1.1.2Zm3.3-.2V17l-.2-.1a.2.2 0 0 0-.2 0l-.1.1v.2c-.1 0 0 .1 0 .2l.1.1a.2.2 0 0 0 .2 0h.2a.3.3 0 0 0 0-.3Zm.5-.7v-.2l-.2-.1a.2.2 0 0 0-.2 0 .3.3 0 0 0-.3.3v.2h.2a.2.2 0 0 0 .2 0h.2a.3.3 0 0 0 0-.2Zm.4-.8-.1-.2h-.2a.2.2 0 0 0-.2 0H25l-.1.2v.2l.2.1a.2.2 0 0 0 .2 0 .2.2 0 0 0 .1 0 .3.3 0 0 0 .2-.3Zm-10.5.9-.1.1h-.2v-.2h.2Zm-.7 1.5-.1.1H14V18a.1.1 0 0 1 .2 0v.1Zm.8 1.6H14.8v-.2h.1l.1.2Zm-2 2.7H13v-.2h.2v.2Zm-1.6 3v.2h-.2a.1.1 0 0 1-.1 0v-.2h.2Zm.2 3.2v.2h-.2a.1.1 0 0 1 0-.2v-.1h.2v.1Zm1.5.7-.1.2H13l-.1-.2v-.1h.2v.1Zm-2.5-.5-.1.2h-.1l-.1-.2v-.1h.2Zm-2.3 2.6-.1.2h-.1l-.1-.1v-.2h.2v.1Zm-.8-2.3v.1h-.2V29h.2Zm3.5 3.3-.1.1h-.2v-.2h.2Zm-2.8.8v.2h-.2v-.2h.2Zm1.2 2.4-.1.1h-.2v-.2H9.6Zm2.5-3.6v.1H11.8V32a.1.1 0 0 1 .2 0h.1Zm1.8 1.1v.1H13.5V33h.1l.2.1Zm1 1.9-.1.1a.1.1 0 0 1-.2-.1v-.2h.2l.1.2Zm-1.9.7v.1h-.1a.1.1 0 0 1-.2 0v-.1H13Zm4 3.6v.1h-.1s-.2 0-.1-.1l.1-.1h.1v.1Zm-3.2-.1-.1.1a.1.1 0 0 1-.2 0V39h.1a.2.2 0 0 1 .2 0Zm-.5.5h.1V40h-.2v-.2Zm-2 .2h.1v.2h-.2v-.2Zm.9-1h.1a.1.1 0 0 1 0 .1v.2H12V38.8Zm2.3 5v.2h-.1V43.8Zm-1-.4h.1v.2h-.2v-.2Zm-2-2.2h.1v.2h-.2v-.2ZM12 36v.1h-.2a.1.1 0 0 1-.1 0V36a.2.2 0 0 1 .3.1Zm-2 .9h-.1l-.1.1h-.2v-.2H10Zm-.8.6v.1H9v-.2h.2Zm1.1-12.2-.1.2H10v-.2a.1.1 0 0 1 .1-.1h.1l.1.1Zm-2-.2v.2H8V25h.2v.1Zm8-5v.1H16V20h.2v.1ZM14.5 23v.1h-.2a.1.1 0 0 1-.1 0v-.2h.2l.1.1Zm-1.6-4.6-.2.1h-.1V18h.1l.2.1v.1Zm-1 1.3h-.2v-.2h.2v.2Zm6.3 20.6H18c0-.2-.1-.5-.3-.7v-.1L16 37.8H16v.1l-.4.4-.4 1.3H15c0-.5.2-1 .4-1.4l.4-.4.3-.3 1.6 1.8v.1c.3.3.4.5.4.8Zm-5 1.3c0-.1-2.4-2.8-2.2-4.8 0-1.1.4-2.2 1-3.1v-.2.2a25.7 25.7 0 0 0 1.8 2.4l.8 1 .2.3c.4.3.6.8.6 1.4l-.1 1-.2-.1c.2-.3.2-.6.2-1-.1-.4-.3-.9-.6-1.2l-.2-.3-.8-.9-.7-.8-1-1.6c-.4 1-.7 2-.8 3-.2 2 2.1 4.6 2.2 4.6l-.2.1ZM11 37.6s-1-2.4-1-3.6c0-1.5.6-3 1.7-4.1v-.1h.1a528 528 0 0 0 1.9 4.3v1.7h-.2a8 8 0 0 0 0-1.7 10.6 10.6 0 0 0-1-2l-.8-2a6 6 0 0 0-1.4 3.8c0 1.2.9 3.6.9 3.6l-.2.1Zm2.8-1.6h-.2c0-.6.2-1.2.5-1.7l.6-1V33l.1.1.8.7c.3.5.6 1 .7 1.6H16c-.1-.5-.3-1-.7-1.5l-.6-.6-.5 1c-.3.5-.5 1-.5 1.6ZM12 41a5 5 0 0 1-2-.5v-.2c2 .8 2.5.4 2.5.4l.2.2H12Zm-1-3a4 4 0 0 0-1.2-1.3l-1-.4c-.4 0-.8-.2-1-.5-.4-.5-.4-.7-.2-2.3 0-.5 0-1 .2-1.4H8a42.8 42.8 0 0 0 2.1 2l-1.2-1L8 32l-.2 1.2c-.1 1.6-.2 1.8.1 2.3.3.2.6.4 1 .4.3 0 .7.2 1 .4.5.3 1 .8 1.3 1.3l-.2.2Zm-1.5-4.5h-.2v-2.5c0-.9-.4-1.7-.9-2.4L7.1 27l.1-.2 1.4 1.6c.5.7.8 1.6.9 2.5v2.5Zm3.5-.5h-.2l.2-1.2-.8-2v-.1l-.1-1.8-.6-1.4c-.5.4-.9 1-1.2 1.4a8 8 0 0 0-.8 2.7h-.2c0-.1.3-2.1.8-2.8l1.3-1.6h.1l.8 1.6c.1.6.2 1.2.1 1.8.2.5 1 2 .8 2.2l-.2 1.2Zm.7-10.3v-.2c.6-.3 1.4-.3 2 0v.2a3 3 0 0 0-2 0ZM12 43.4v-.2a4 4 0 0 1 2.7 0v.1c-1-.2-1.8-.2-2.7.1Zm-2.2-20h-.2a3.3 3.3 0 0 0-.5-2.6h.2l.5 1.2v1.5Zm-.6 2.8a3 3 0 0 0-.5-1.3c-.2-.4-.5-.7-.9-1l.2-.2a3.4 3.4 0 0 1 1.3 2.4h-.1Zm6.3-9.3.5-.4.7-.3-.6.4-.6.3Zm-4 2.1.5-1 .7-.7-.5.9-.6.8Zm3.7 1.8c0-.3.2-.7.5-1l.8-.6-.6.8-.8.8Zm-1.7 3.7.5-.7.6-.4-.5.6-.6.5Zm-.4 3.3.1-.8.4-.7a5.3 5.3 0 0 1-.5 1.5Zm1.3 5.4a2 2 0 0 1-.4-.9v-1l.3 1v1Zm-3 0-.1-1 .2-1v2Zm0-3.5-.2-1c0-.2 0-.6.2-.8v1.8Zm-.7 1.4-.1-.4-.1-.6v-.6l.2-.5V31ZM9 32.2l-.1-1 .1-.8.1 1v.8Zm4.3-1.4v-1l.4-.8-.1 1-.3.8Zm-5.2-.2v-1.1c0-.4 0-.8-.2-1 .2.2.3.6.4 1l-.2 1Zm2.5-4.3.1-1 .5-.9-.3 1-.4 1Zm-1 1.7.1-.7.4-.7-.2.7-.3.7ZM8 27.4v-1l.5-1s0 .7-.2 1l-.3 1Zm2.1 8.7-.4-.7a54.5 54.5 0 0 0 .4.7Zm-1-1-.3-.9v-.9l.2.9v.9Zm1.4 3.8-1-1-.4-1s.6.6.7.9l.6 1Zm4.3 3a3.8 3.8 0 0 1-.7-2.3 19.8 19.8 0 0 0 .7 2.3Zm-1.6.5-.8-.6-.6-.8.8.6.6.8ZM15 45a2.8 2.8 0 0 1-1.7-.7l.9.3.8.4ZM9 35.4a2 2 0 0 1-.5-.4l-.3-.6a7.6 7.6 0 0 0 .8 1Zm1.6 4.3a2 2 0 0 1-.6-.5 9 9 0 0 1-.3-.6 7.6 7.6 0 0 0 .9 1.1Zm2.4 3.1-.6-.3a35 35 0 0 0 .6.4Zm1.5-.7a2 2 0 0 1-.4-.5l-.3-.7a5.3 5.3 0 0 1 .7 1.2Zm1.6-1.3-.6-.3-.5-.5a7.4 7.4 0 0 0 1.1.8Zm-4.8-1.6-.5-.6-.2-.6.4.5.3.7Zm1.1-1-.4-.5-.2-.7.3.6.3.6Zm1.5-.2c-.2-.2-.3-.4-.3-.7l-.1-.7.2.7.2.7Zm2.6 1.8a2 2 0 0 1-.3-.6v-.7l.2.6v.7h.1ZM11 34.1a2.1 2.1 0 0 1-.2-1.4v.7l.2.7Zm3.4-15.6.9-.5 1-.1-1 .4-.9.2Zm-1.7 18.6-.4-1V35l.2 1 .2 1Zm2.7.3-.1-1c0-.4 0-.8.2-1v2Zm-1.1-15.6.6-.4.8-.2-.7.3-.7.3ZM13 20l.7-.3h.8l-.7.2-.8.1Zm.1 12L13 32l1-1.7 1 1.6h-.2l-.8-1.2-.9 1.4Zm-2.4-11.7h-.1a.1.1 0 0 1-.2 0v-.2h.1l.2.2Zm0 .8v.1h-.1a.1.1 0 0 1-.1-.1V21h.2v.2Zm-1.3.7v.1h-.1a.1.1 0 0 1-.2 0v-.2h.2v.1Zm3.1-.4v.1h-.2v-.2h.2a.1.1 0 0 0 0 .1Zm-.1 8.2V27l-.1-.4-.2-.4v-.5H11.8V25l-.2-.1v-1.6c-.5.4-1.7 1.6-2 2.3-.5 1-.7 3.3-.7 3.3h-.2c0-.1.3-2.4.7-3.3.4-.9 2.1-2.5 2.2-2.6l.2-.1v1.9h.3v.9h.2V26.4l1.8-1.5v3l-.2.2-.4.2c-.4.2-.7.6-1 1l-.1.4Zm0-3.1.2.4v1.8l.8-.7c.2 0 .4-.2.5-.3l.1-1.7v-.9l-1.6 1.4Zm-.1-.3h-.2l.1-.4 1-1.6.2-1v-.5l.8-2h-1.6c-.5 0-1 .7-1.5 1a6 6 0 0 1-.5.6c-.6.4-1.6 2.5-1.6 2.5h-.2c0-.1 1-2.2 1.6-2.7l.6-.5c.5-.5 1-1 1.6-1H14.5l-.8 2-.1.7-.2 1-1 1.6-.1.3Zm-1.1-4.7-.1-1.3c0-.3-.2-.5-.3-.7 0-.3-.2-.5-.4-.6V19c.3.1.5.3.6.6l.3.8v1.3h-.1Zm.1 0h-.1l.6-1.2c.4-.6 2-1.3 2.8-1.5l2.5-.2v.2c-.9 0-1.7 0-2.5.2-.7.2-2.3.9-2.6 1.5l-.7 1Zm1.3-1.7h-.2l.3-1 .7-1.1.3-.5v-1.1h.2s.2.8 0 1.2c0 .2-.2.3-.3.5l-.7 1.1-.3 1Zm-3.8 3.9V23l.4-.7-.1.7-.3.8Zm3.3-.9.4-.9.8-.7-.5.9a8 8 0 0 1-.7.7Zm0 1.6c0-.3.2-.5.3-.7l.6-.6-.4.6-.5.7ZM10.8 23l.3-.6.6-.6-.4.7-.5.5Zm12.9-8a1 1 0 0 1-1.2.7 1 1 0 0 1-.8-.8c0-.2.2-.4.4-.6a1 1 0 0 1 1.2 0l.4.6Zm4.3 4.3H28s.1-.4-.3-2c-.3-.9-1-1.7-1.7-2.3v-.2c1 .7 1.5 1.5 1.9 2.5.4 1.6.3 2 .2 2Zm-10.6-.1h-.2l.6-2c.3-1 .9-1.8 1.7-2.5l.1.2c-.8.6-1.3 1.4-1.6 2.3l-.6 2Zm9.6.4h-.2c0-.5 0-1-.2-1.5a3 3 0 0 0-1-2V16a3.2 3.2 0 0 1 1.2 2.2l.2 1.5Zm-8.6-.1c0-.6 0-1.1.2-1.6.2-.9.6-1.6 1.2-2.2l.1.2c-.6.5-1 1.3-1 2-.3.5-.3 1-.3 1.6h-.2Zm2.3-.6c-.4-.8-1-1.4-1.9-1.8-.6-.3-1.2-.6-1.9-.7v-.2s.7 0 2 .7c.8.4 1.5 1 2 1.9h-.2Zm4 0-.1-.2a5.2 5.2 0 0 1 3.8-2.1v.2c-.9 0-1.7.3-2.4.8-.5.3-1 .7-1.3 1.2ZM21 18a5.8 5.8 0 0 0-1.5-1.8l-1.6-.8v-.2s.4 0 1.6.9c.3.1.5.3.7.6L21 18H21Zm3.5.1h-.2c.3-.5.6-1 1-1.3l.3-.3.2-.3c1-.9 1.6-.9 1.6-.9v.2s-.6 0-1.5.8l-.2.3-.3.3-.9 1.2Zm-5 1.4c-.3-.5-.7-.8-1.3-1-.5-.3-1-.4-1.4-.5v-.2l1.5.5c.6.2 1 .6 1.5 1.1l-.2.1Zm6.5.2h-.2l1-1c.6-.4 1.3-.7 2-.7v.2c-.7 0-1.4.3-1.9.7l-1 .8Zm-.1 0c-.3-2-1-2.4-1-2.4l.1-.2s.7.5 1.1 2.6h-.2Zm-6.2-.1h-.2c.4-2.2 1-2.6 1.1-2.6l.1.1s-.6.5-1 2.5Zm2.6-1.7-.6-.1-1.5-2.8.6.1 1.5 2.8Zm-.4-.3-1.2-2.3 1.2 2.3Zm1.3.4 1.5-2.9h.5l-1.5 2.7-.5.2Zm1.6-2.7-1.3 2.4h.1l1.3-2.4h-.1ZM20.4 20v.1a.2.2 0 0 1-.3.2.2.2 0 0 1-.1-.2v-.2h.4Zm2.5 0v.2l-.2.1a.3.3 0 0 1-.2-.1V19.9h.2a.3.3 0 0 1 .2.1Zm2.4 0v.2l-.2.1h-.2V20a.2.2 0 0 1 .2-.1h.1l.1.1Zm-4-3.6L21 16l1-.5.6.3-1.3.7Zm0-.4v.2l.9-.5H21.9l-.6.3Zm2.9.4-1.3-.8.6-.3.2.2.8.4-.3.5Zm-1-.8 1 .6v-.3l-.7-.4-.2.1Zm-3 23.7h-.4V30h.5v9.3Zm-.9 0h-.5V30h.5v9.3Zm2 0h-.5V30h.5v9.3Zm1 0h-.5V30h.5v9.4Zm1 0h-.5V30h.5v9.4Zm1 0h-.5V30h.5v9.4Zm1 0H25V30h.5v9.3Zm1 0h-.5V30h.5v9.5Zm-6.4-14h-.4V23h.4v2.2Zm1 0h-.5v-2.2h.5v2.2Zm1 0h-.5v-2.2h.4v2.2Zm.9 0h-.5v-2.2h.5v2.2Zm1 0h-.5v-2.2h.5v2.2Zm1 0h-.5v-2.2h.4v2.2Zm1 0h-.6v-2.2h.5v2.2ZM15.2 44a16 16 0 0 1-2-2 3 3 0 0 1-.5-1.9v-2.7l.2.1 1.3 1.4.3.1 1.3.8a1.8 1.8 0 0 1 1 1.4h-.1c0-.3-.2-.5-.3-.7l-.6-.5a8.3 8.3 0 0 1-1.6-1c-.5-.3-.9-.7-1.2-1.2v2.4c0 .6.2 1.2.5 1.7l2 2h-.3ZM29 21.3l.6.6c.2 0 .3.2.4.3a3 3 0 0 1-.5-.3l-.5-.6Zm1-.1.1.6v.4-.4l-.2-.6Zm3-.6.4 1.1.1.7-.3-.6-.2-1.2Zm1.3 3.2.5 1.1.3.7-.4-.6-.4-1.2Zm.9 3.7.2 1v.6l-.2-.6v-1Zm.1 3.1-.3 1.2-.3.6.1-.7.5-1Zm-.9 3.7a5.4 5.4 0 0 1-.9 1.7l.3-.7c0-.2.6-1 .6-1Zm-1.7 3.2a8.7 8.7 0 0 1-1.3 1.5c0-.3.2-.5.4-.7l.9-.8ZM31.2 40a5 5 0 0 1-.6.7l-.4.3.3-.4.7-.6Zm-1.3.1-.4.6-.3.2.2-.3.5-.5Zm-.9-1-.5.6-.3.4c0-.2.1-.3.3-.5l.5-.5Zm-.6-.6a6 6 0 0 1-.5 1.2l.2-.5.3-.7Zm5.9 1.8-.6.8-.4.5.3-.6.7-.7Zm-2.5-6.4-.5 1-.5.4.3-.6.7-.8Zm4.9 2.5-1 1-.5.5.5-.7 1-.8Zm-5.8-2.8-.1 1-.2.6v-.6l.3-1Zm1.2-3.3-.1 1.1-.2.7v-.7l.3-1.1Zm-.2-2.4.2.7v.5a3 3 0 0 1-.1-.4l-.1-.8Zm-1.4-4.6a4.7 4.7 0 0 1 1 1L31 24l-.5-.7Zm1.5 2.6a6.9 6.9 0 0 1 .8 1.5l-.4-.5-.4-1Zm.8.2.1.7.2.4v-.5l-.3-.6Zm-1.4.4a7 7 0 0 0 1 .7c-.3-.3-.6-.6-1-.7Zm1.5 2v1.2-1.2Zm0 2.6-.5.6-.2.4.3-.3.3-.7Zm-1.6-.3a4.3 4.3 0 0 0 .2 1.1v-.5c0-.2 0-.4-.2-.6ZM36 28a4.8 4.8 0 0 0-.4 1.1l.2-.4.2-.7Zm-.1 3.5-.5.5-.2.4.3-.3.3-.6Zm-1 3.7-.6.5a2 2 0 0 0-.2.4l.3-.3.5-.6Zm-1.8-.7-.1.7v.5-.5l.1-.7Zm2.7 1.6a5 5 0 0 0-.6 1c0-.2.2-.3.3-.4l.3-.6ZM33 38.3l-.6.5-.3.3.4-.2.5-.6Zm1.2 3-.6.5-.3.3.4-.2.5-.5Zm-2 .8-.5.5-.3.4.3-.3.5-.6Zm.3.4-.5.2-.2.2.3-.1.4-.3Zm1.2-2.6-.4.6-.1.5.2-.4.3-.7Zm-2-2.6-.4.7-.1.4.2-.4.2-.7Zm-1-.1-.6.4-.4.3.4-.2.5-.5Zm-.7-.4-.4.6-.1.4.2-.3.3-.7Zm-.3-.3-.4.6-.2.4.3-.4.3-.6Zm1.3 5.2a4.4 4.4 0 0 0-1 .5l.4-.1.6-.4Zm3.1-10.5v1.1-1.1Zm.3-3 .3.6.2.4-.1-.4-.4-.6Zm1-3.6v1.2-1.2Zm-1.7.5.6.4.4.2-.3-.3-.7-.3Zm.2-4v1.1-1.1Zm-1.6.6.5.8.5.4-.4-.5-.6-.7Zm3-1a4.8 4.8 0 0 0 .2 1.2v-.6l-.2-.7Zm-1.9-2.5.6.3.4.2-.4-.3-.6-.2ZM29 16.8l.5.5.3.2-.2-.3-.6-.4ZM30 16v.7l.2.4v-.4L30 16Zm-.7.2c0 .2.2.4.3.5l.2.4-.2-.4-.3-.5Zm2.2.5a4.2 4.2 0 0 0 .6.6l-.2-.2-.4-.4Zm.1 6.8.2 1.2v-.5c0-.2 0-.5-.2-.7Zm-1.3.7.6.4.4.2-.4-.3-.6-.3Zm5.6 2c0 .2.2.4.3.5l.2.3-.2-.3c0-.2-.2-.3-.3-.4ZM31 18.5a4.7 4.7 0 0 0 1 1l-.3-.5-.7-.5Zm.8-.1.4.6.3.2-.2-.3-.5-.5Zm-3.1.7.5.5c.1.2.3.2.3.2l-.3-.3-.5-.4Zm-.2.8.6.1h.5-1.1Zm2.5-.5.7.3h.4l-.4-.2h-.7Zm-1.8-.8c0 .3.2.5.3.7l.2.3a4 4 0 0 0-.1-.4 5 5 0 0 0-.4-.6ZM31.8 42v-.2l.9-.7v-.4c0-.1 0-.2-.2-.3l-.2-.2v-.7l1-.4.7-.5v-.1l-.5-.7-.1-.1v-.1c.2 0 .3-.2.4-.3a.5.5 0 0 0-.1-.6l-.3-.2c-.2 0-.3 0-.4.2l-.4.5v.2l-.1-.1s-.4-.4-.7-.4c-.3.1-.5.3-.7.8l-.2 1.3v.3l-.1-.2a1 1 0 0 0-.3-.3h-.3a.5.5 0 0 0-.5.1l-.1.5-.1.5h-.1V39l.1-.3.3-.2h.3c.3 0 .5 0 .7.2l.1-1c.2-.7.4-1 .8-1h.5l.3.2c0-.2.2-.4.4-.5l.5-.2.4.2a.5.5 0 0 1 .2.4v.5l-.3.3.5.7a.1.1 0 0 1 0 .2c-.2.3-.5.5-.8.6l-.9.4v.1a.1.1 0 0 0 0 .1v.2c0 .1 0 .2.2.2l.2.4v.5c0 .1 0 .2-1 .9Zm2.8-.1-.2-.1.1-.4v-1.2h.2l.1-.3v-.2a.2.2 0 0 0 0-.2h-.1c-.2-.2-.4 0-.6.1v.1a.1.1 0 0 1-.2 0h-.5V40l-.2.2h-.8a.3.3 0 0 1 .4-.2h.4v-.1a.6.6 0 0 1 .2-.5h.5l.2-.2.2-.1a.5.5 0 0 1 .4 0l.2.2.1.2v.4l-.3.2v.2l-.1.3v.3a1.1 1.1 0 0 1 0 1Zm-.6-3-.1-.2h.1l.5-.4.2-.5V37h-.1l-.1-.2a.9.9 0 0 1-.2-.5v-.2a.9.9 0 0 1 .8 0l.1-.2V36l.4-.7h.5l.3.2c.2-.4.8-.2 1-.2l-.1.2-.8.1-.2.1a.6.6 0 0 1-.4-.1l-.2-.2-.4.7c0 .2-.1.4-.3.3a.7.7 0 0 0-.6 0v.1l.1.4.2.2a1 1 0 0 1-.2 1.3 4 4 0 0 1-.5.4Zm-2.7-1.9s-.3-.7.1-.9h.9v.1h.1a.3.3 0 0 0 .1-.3v-1.4c.2-.3.4-.6.7-.6l.5.2h.2v-.4l.2-.3a.7.7 0 0 1 1 0 .8.8 0 0 1 .1 1l-.2.1v.1c0 .2.2.4.4.5l.1.1V35.7h-.1V35a1 1 0 0 1-.6-.6v-.1l.3-.2.1-.2c0-.2 0-.4-.2-.5-.2-.2-.5 0-.7 0V33.7c0 .2 0 .3-.2.4 0 .1-.3 0-.4 0l-.4-.2c-.2 0-.3.2-.4.5l-.1.2c0 .3-.1.5 0 .8v.3a.4.4 0 0 1-.2.5H32.3a1 1 0 0 0-.8 0c-.2 0 0 .5 0 .6l-.2.1Zm-.7-.6v-.1l.7-.7.2-.2.3-.1.2-.3c.1-.3.2-.8 0-1l-.2-.3v-1h-.2c-.6.2-.7 0-.9 0h-.3v-.1c.2-.2.4-.2.5 0 0 0 .2.2.7 0h.2c.2 0 .2.2.2.3v.8l.2.2c.3.3.2.8 0 1.2 0 0 0 .2-.2.3a1 1 0 0 1-.3.2l-.2.2-.9.6ZM32 33v-.2l.5-.2v-.1h.1a.5.5 0 0 1 .3-.4h.4V32l.1-.1v-1.1a.2.2 0 0 0-.3 0 1 1 0 0 1-.3-.1.4.4 0 0 1-.2-.5V29.6a.5.5 0 0 0-.5-.3c-.4 0-.7.2-1 .4l-.2-.1A4 4 0 0 1 32 29h.2l.3.1.2.3v.7l.1.3h.3s.2 0 .3.2l.2.3a1.7 1.7 0 0 1 0 1l-.2.2h-.2l-.2.1a.3.3 0 0 0-.2.2v.2a.2.2 0 0 1-.2 0 2 2 0 0 0-.7.3Zm3.4 2v-.3l.2-.6c0-.1 0-.2.2-.3v-.1l-.1-.3-.2-.3c0-.3.1-.6.6-.9l.3-.4v-.7h-.1l-.3-.2-.2-.2v-.4c.2-.3.2-.5 0-.6l-.2-.1H35v.2l-.2.5v.2l-.1.1H34c0-.1-.2 0-.2 0l-.3.1V32l.2.8.3.5-.4-.4c-.1 0-.5-.4-.7-.3a1 1 0 0 0-.3.2l-.2.2v.6c0 .2 0 .4.2.5h-.1v.2c-.1 0-.2 0-.4-.6a.8.8 0 0 1 0-.7l.3-.3.3-.2a.6.6 0 0 1 .6.2 3.2 3.2 0 0 1-.1-1.4v-.5l.1-.1.3-.2.3-.1h.3l.2.1v-.1l.2-.5a.3.3 0 0 1 0-.2l.3-.2h.4c.1 0 .3 0 .4.2a.5.5 0 0 1 0 .7v.1a.1.1 0 0 0 0 .2l.2.1.2.1.2.2v.8l-.4.5c-.3.2-.5.4-.5.6 0 .1 0 .2.2.3v.4a.2.2 0 0 1 0 .2l-.1.2v.3l.5-.7v-.3l-.2-.4a.3.3 0 0 1 0-.3.2.2 0 0 1 .2 0l.2-.2.1-.1c.2-.4.3-.5.8-.5h.3l.1.2V33c.2.2.3.4.2.5l-.2.2v.2a.4.4 0 0 0 0 .2v.2l-.1-.4v-.3l.2-.2V33a.3.3 0 0 1-.2-.2.3.3 0 0 1 0-.3.3.3 0 0 0 0-.3.1.1 0 0 0-.2 0c-.4-.1-.4-.1-.6.2a.8.8 0 0 1-.3.3h-.1l-.1.1v.2l.2.3a.5.5 0 0 1 0 .4c0 .3-.7 1-.9 1l-.2.3Zm.9-4L36 31l.2-.2v-.4l.1-.1h.1V30c-.3-.2-.2-.7-.2-1l.2-.3.2-.2v-.7a.5.5 0 0 0-.2-.4H36.2c-.3.1-.8 0-.9-.1v-.9l-.1-.2H34.5a1 1 0 0 0-.4.3s0 .2.3.4l.2.4c0 .2-.3.3-.6.5-.2 0-.3.3-.1.7.1.4.4.7.6 1h.2-.2l-.8.4a.9.9 0 0 0 0 .7h-.3c0-.2 0-.8.2-.9l.7-.2c-.3-.3-.5-.5-.6-.8-.1-.3-.3-.9.2-1l.5-.4-.2-.2c-.1-.2-.4-.4-.2-.7a.9.9 0 0 1 .9-.4h.2l.1.2.2.2v.8H36.5a.6.6 0 0 1 .2.5v.2a.7.7 0 0 1 0 .6l-.3.3a.3.3 0 0 0 0 .2c-.1.4-.1.7 0 .8a.2.2 0 0 1 0 .3v.1l-.1.4-.1.3Zm-3.2-.4h-.2c.3-.6.9-1.4.8-1.7v-.2c0-.3 0-.5-.3-.5H32.7l-.2-.1v-.4a.2.2 0 0 0-.3-.1h-.4l-.7.5-.1-.2a5 5 0 0 0 .8-.6H32.4l.3.2v.4a.1.1 0 0 0 .1 0h.6l.3.3a.5.5 0 0 1 0 .4l.1.3c0 .4-.8 1.6-.8 1.7Zm.9-2.4-.2-.1c.2-.3.3-.7.2-1.1 0-.3-.1-.6-.4-.8-.5-.6-.8-.7-1-.7-.1 0-.3 0-.4.2l-.4.2.3-.4a.1.1 0 0 0 0-.1.3.3 0 0 0-.2-.2c-.3-.2-.4-.2-.5 0l-.6.2-.1-.2.5-.2c.2-.2.4-.3.7 0l.2.2.2.2h.3c.2-.2.6.2 1 .6l.1.1c.3.2.4.6.5.9 0 .4 0 .8-.2 1.2Zm4-1.6-.8-.7-1-.1H36v-.1l.3-.8v-.4c-.1-.5-.2-.8-.6-.8-.2 0-.5.1-.7.3l-.1.1V24s-.2-.8-.7-.8H34l-.1.2c-.1.1-.1.3 0 .4l.1.5v.1l-.3.2-.2.2c0 .4 0 .6.3.7l.8.5.4.2v.2l-.5-.2a5 5 0 0 0-.7-.5.6.6 0 0 1-.4-.4v-.5s0-.2.2-.3l.3-.2-.2-.4v-.3l.1-.4a.4.4 0 0 1 .3-.2h.2c.5 0 .7.5.8.8l.8-.2c.5 0 .6.6.6 1v.3c.1.3 0 .6 0 .8l.8.1c.4.2.7.4 1 .8l-.3.1Zm-5-1.1h-.2v-.8l-.3-.5-.4-.7c0-.2-.3-.3-.5-.4h-.1l-.2.3H31c0-.3 0-.5-.2-.7l-.4-.3-.1.2h-.8l.1-.2h.1s.2-.1.2 0H30.2l.1-.1.2-.1.3.1.1.2.3.6.1-.2H31.6l.4.2.2.4.3.6.3.5v.9h.1Zm.5-.8a1 1 0 0 1-.9-.9c0-.3.3-.5.5-.6L33 23l-.8-.7a1 1 0 0 1-.3-1l.2-.4h.5v-.1a1 1 0 0 1-.2-.6c0-.2 0-.4.2-.5v-.2h.2c.3-.1.6 0 .8 0 .3.2.2.6.2.8h1c.3.2.3.8.3 1.1l-.1.6v.1h.3l.3.1a.6.6 0 0 1 .3.7v.2h.2v-.2c0-.2 0-.3.2-.4l.2-.2h.8v.2a1 1 0 0 0-.8 0l-.1.1v.3l-.2.2a.4.4 0 0 1-.2.1h-.2l-.1-.4a.3.3 0 0 0 0-.3l-.2-.2h-.7v-.4l.2-.5c0-.4 0-.8-.2-.9h-1.2v-.2l-.1-.6h-.7c-.2.2-.2.3-.2.5l.1.5V21h-.4l-.2.3v.5a57.8 57.8 0 0 1 1 1.1l.3.6s-.6.2-.6.4a.6.6 0 0 0 .2.5l.5.2v.2Zm-1.5-1.5-.1-.1.2-.2V22.6l-.2-.4-.3-.2a.2.2 0 0 0-.2 0l-.2.2-.2.2v-.2c0-.4-.2-.8-.3-1a1 1 0 0 0-.3-.4l-.4-.1-.6.3-.2.2v-.7H29a.1.1 0 0 0-.1-.1.2.2 0 0 0-.3 0l-.1.1-.2.3H28l.2-.4.2-.2H29.1l.1.2.1.3.6-.3a.6.6 0 0 1 .4.2l.4.3c.2.3.3.6.3 1h.5a1 1 0 0 1 .6.5v.2c.2.2-.1.5-.2.6ZM32 21l-.2-.1v-.5a.3.3 0 0 0-.2-.2l-.1.1-.1.1c-.2.1-.3 0-.3-.1a.4.4 0 0 0-.3-.3l-.4-.1a.6.6 0 0 1-.2-.3c-.1-.4.3-.7.5-.8v-.2h-.2a.5.5 0 0 1-.4 0v-.4a.6.6 0 0 1 .2-.6c.3-.3.5-.4 1-.1h.9l.3.1.4.5.1.4c.2.4.3.4.4.3a.3.3 0 0 1 .3-.1h.3l.1.1v.2l.2.2.2.3-.1.1-.2-.2-.1-.2-.1-.2-.1-.1H33.6l-.1.1c-.3.2-.4 0-.6-.3l-.2-.5-.3-.4-.3-.1H31.5c0 .1-.1.1-.4 0-.3-.3-.5-.2-.7 0a.3.3 0 0 0-.2.4v.2h.5l.1.2.1.2a.4.4 0 0 1-.1.3c-.3.1-.5.3-.5.5l.2.3h.3a.6.6 0 0 1 .3.4h.2l.2-.1H31.8l.2.2v.4a.4.4 0 0 1 0 .3Zm-2 21.5h-.3v-.2h1.5c.2 0 .4-.2.5-.3v-.2a2 2 0 0 0-.6-.6v-.1c.3-.1.4-.3.5-.5.2-.6.1-1-.3-1.1-.5-.2-1 .5-1 .5l-.2.1v-.1l-.2-.3c-.2 0-.3-.1-.4 0a1.2 1.2 0 0 0-.7.6l-.1.3-.6.5-.1-.1.5-.6.1-.2.4-.5.5-.3a.5.5 0 0 1 .4.1l.3.3c.2-.2.7-.7 1.3-.5.5.2.6.7.3 1.3 0 .2-.2.4-.4.6.2.1.4.3.5.6a.1.1 0 0 1 0 .2l-.6.4-1.3.1Zm4.3-22.3H34c0-.7.7-1.1 1.2-1.4v.2c-.3.3-1 .6-1 1.2Zm-18.8-2.7a6 6 0 0 1-1.7-.3V17s2 .6 3 0v.1c-.4.3-.8.4-1.3.4ZM31.3 37h-.2l-.2-.5a1 1 0 0 0-.3-.3c-.4-.3-.7-.4-1.1-.3v-.2c.4 0 .8 0 1.2.3l.4.4.2.6Zm-1.4-16.4v-.2c.3-.1.3-.7.3-.7h.2a1 1 0 0 1-.5.9Zm-1.5-1.9h-.1c0-.1.2-.8.6-.9h.4l.3.1.1.1s0 .2.2.2l.2.1h.3a.1.1 0 0 1 0 .2H30l-.3-.1-.2-.3c-.1-.2-.3-.2-.6 0-.3 0-.5.3-.6.6Zm2.5-1.3h-.1c.4-.8-.4-1.8-.4-1.8l.2-.1s.8 1.2.3 2Zm2 1.4c-.2-.4.2-1.6.2-1.7h.2c-.2.5-.4 1.3-.2 1.5l-.1.2Zm-.9 25a3 3 0 0 0-1-.5H31l-.1-.1v-.4l.3-.3h-.7v-.2l.9-.1h.2l-.1.2-.5.7h.1c.4 0 .8.2 1 .5v.1Zm-1.3.8h-.3a2 2 0 0 1-.6-.7h-.1v-.2c.1 0 .2 0 .2.2l.5.5c.4 0 .8 0 1-.2l.2.2-.9.2Zm2.1-1.4-.1-.1.4-1V42h-.2l-.3-.2c-.3-.2 0-.7 0-.8l.2.1c-.1.1-.2.5-.1.6h.4l.1.2a.1.1 0 0 1 0 .1V42.3c0 .3-.1.7-.3 1Zm-3.1-4.5c-.2 0-.4 0-.5-.2v-.2a.2.2 0 0 1 0-.1l.1-.1V38l-.1-.2c-.3-.1-.4 0-.4 0h-.3l-.7.5v-.1l.7-.6h.7l.3.4v.2h-.2a.2.2 0 0 0 0 .2v.1h.4v.3Zm4.5-.2v-.1s.6-.5 1.1-.3a.7.7 0 0 0 .8 0l.1.2a1 1 0 0 1-.5.1l-.5-.1c-.4-.2-1 .2-1 .2Zm-7 1.7h-9.3v-1h9.3v1Zm-9-.2H27v-.7h-8.9v.7ZM29 43.3H16v-1.4h13v1.4Zm-8.7.6h-2l-.8.1-1.7 1-1.2.4c.5.2 1 .4 1.4.4l1.6-.4-1.8 1.3c.3.2.8.2 1.2.2l1.5-.5 2-1-.2-1.5Zm8.6 1.8c.5 0 1 0 1.4-.3l-1.2-.5-1.6-1h-2.9l-.3 1.5 2.1 1 1.6.5c.4 0 .8 0 1.2-.2l-1.9-1.3c.5.1 1 .3 1.6.3ZM24 44H21l.2 1.4a7 7 0 0 1 2.6 0L24 44Zm0-26a.4.4 0 0 0-.5-.2l-.6.2s.4-.6.3-.8c0-.1 0-.2-.2-.3a.6.6 0 0 0-.7 0l-.2.3.3.8-.5-.2a.4.4 0 0 0-.5.1v.7s0 .2.2.2l.3.2a.7.7 0 0 0 .6-.3l.2-.3.2.3a.7.7 0 0 0 .7.3l.3-.2.2-.2V18l-.2-.3Zm1.3 27.9-.3-.1a7.7 7.7 0 0 0-5.3.1l-.1-.2c.9-.3 1.9-.5 2.9-.5a6 6 0 0 1 2.8.5v.2Zm-2-32.4v-.1l-.1-.1-.5.2.1-.4v-.2a.3.3 0 0 0-.4 0V13.4l-.4-.2H22a.1.1 0 0 0 0 .2v.2l.2.1h.2c.2-.1.2 0 .2 0v.5h.2v-.5s0-.2.1 0h.2l.2-.1.1-.2M48 21.4h-1.6l-.3.6V22.6h.4v.2h-1.3v-.2h.4l.3-.7 1.4-3.3h.1L49 22c0 .2.2.4.3.5l.4.1v.2H48v-.2h.3V22l-.3-.6Zm0-.2-.8-1.7-.7 1.7H48ZM50.4 18.6h3.4v.2h-.5l-.1.6V22.5l.6.1V24h-.2l-.2-.7a1 1 0 0 0-.5-.4h-1.6c-.5 0-.9 0-1 .3l-.5.8v-1.3c.3 0 .5-.2.7-.5.2-.4.4-.8.5-1.4V19l-.2-.2h-.4v-.2Zm1 .3c0 1.2-.2 2-.3 2.5a3 3 0 0 1-.6 1.1h2l.1-.5v-3.1h-1.2ZM56.8 20.7c.2 0 .5.1.6.3.2.1.3.4.3.6 0 .2 0 .4-.2.6l-.5.4-1 .2h-2v-.2h.2l.3-.1v-3.6l-.3-.1H54v-.2h1.8l.8.1c.3 0 .5.2.7.4a1 1 0 0 1 0 1.2l-.5.4Zm-1.6-.2a2.5 2.5 0 0 0 .5 0h.7l.4-.3v-.5c0-.2 0-.4-.2-.6-.2-.2-.5-.2-.9-.2a2 2 0 0 0-.5 0v1.6Zm0 2h.7c.3 0 .6 0 .8-.2l.3-.6-.1-.5-.5-.3-.7-.2a7.3 7.3 0 0 0-.5 0v1.8ZM60.3 18.6c.5 0 1 .2 1.4.6.4.4.6.9.6 1.5s-.2 1.1-.6 1.5a2 2 0 0 1-1.4.7c-.6 0-1-.2-1.5-.7-.4-.4-.5-.9-.5-1.5 0-.7.2-1.2.6-1.6a2 2 0 0 1 1.4-.5Zm0 .2a1 1 0 0 0-1 .4c-.2.3-.4.8-.4 1.5 0 .6.2 1.2.5 1.5.2.3.5.4.9.4.3 0 .7-.1.9-.4.3-.3.4-.8.4-1.4 0-.7-.2-1.3-.4-1.6-.3-.3-.6-.4-1-.4ZM66.6 22.6v.2h-1a23 23 0 0 0-1.4-2h-.4V22l.1.5.5.1v.2h-1.8v-.2h.5l.1-.6V19l-.6-.1v-.2h1.8v.2h-.5V20.6h.4l.3-.2.2-.3.2-.6.3-.5.2-.2.5-.1c.3 0 .5.1.5.3l-.1.2-.2.1h-.3l-.3-.2-.1.1-.3.5c-.2.6-.4.9-.7 1 .2 0 .4.3.8.8l.7 1c.2.2.4.2.6.2ZM69.5 21.4h-1.6l-.3.6V22.6h.4v.2h-1.3v-.2h.3l.4-.7 1.4-3.3h.1l1.5 3.4c0 .2.2.4.3.5l.4.1v.2h-1.6v-.2h.3V22l-.3-.6Zm0-.2-.8-1.7-.7 1.7h1.4ZM74.2 18.6v1l-.2-.4-.2-.2h-1v3.5l.4.1h.2v.2h-1.8v-.2h.2l.3-.1.1-.5v-3h-.9c-.1 0-.2 0-.3.2l-.1.4h-.1v-1h3.4ZM78.1 18.6l.1 1.4-.6-1-.8-.2c-.3 0-.6 0-.8.2-.2.1-.4.3-.5.6a3 3 0 0 0-.2 1.2c0 .3 0 .7.2 1l.5.6.8.2c.3 0 .5 0 .8-.2.2-.1.4-.3.6-.7h.1c-.2.5-.4.7-.7.9-.3.2-.6.3-1 .3-.7 0-1.2-.3-1.6-.8-.2-.4-.4-.8-.4-1.3l.3-1.2c.2-.3.4-.6.8-.8a2 2 0 0 1 1-.2c.3 0 .6 0 .9.2H77.9l.1-.2h.1ZM82.7 22.6v.2h-1.1a22.9 22.9 0 0 0-1.4-2h-.4V22l.1.5.5.1v.2h-1.8v-.2h.5l.1-.6V19l-.6-.1v-.2h1.8v.2H80V20.6h.4s.2 0 .3-.2l.2-.3.3-.6.2-.5.3-.2.4-.1c.3 0 .5.1.5.3l-.1.2-.2.1h-.3l-.3-.2-.1.1-.2.5c-.2.6-.5.9-.8 1 .2 0 .5.3.8.8l.7 1c.2.2.4.2.7.2Z"/><path fill="#B79355" d="M85.5 21.4H84l-.3.6V22.6h.4v.2h-1.3v-.2h.4l.3-.7 1.4-3.3h.2l1.4 3.4.3.5.4.1v.2h-1.6v-.2h.3V22l-.3-.6Zm0-.2-.8-1.7-.7 1.7h1.4Z"/><path fill="#B79355" d="M87.1 22.8v-.2l.6-.1.5-.6.8-1.1-.8-.4a1 1 0 0 1-.2-.7c0-.2 0-.4.2-.6l.5-.4h2.5-.2l-.3.2-.1.5v3.1l.4.1h.2v.2h-1.8v-.2h.5l.1-.6v-1.2h-.4l-1.4 2h-1Zm3-2.2V19h-.6c-.2 0-.4 0-.6.2-.2.2-.2.4-.2.6 0 .3 0 .5.3.7.2.2.5.2.9.2h.1ZM97 22.6v.2h-1a22.8 22.8 0 0 0-1.5-2h-.4V22l.1.5.5.1v.2H93v-.2h.4l.2-.6v-2.6l-.1-.5-.5-.1v-.2h1.7v.2h-.5V20.6h.4s.2 0 .3-.2l.2-.3.3-.6.2-.5.3-.2.4-.1c.3 0 .5.1.5.3l-.1.2-.2.1h-.3L96 19l-.2.1-.2.5c-.2.6-.5.9-.8 1 .2 0 .5.3.8.8l.8 1c.1.2.3.2.6.2ZM99.1 18.6c.5 0 1 .2 1.4.6.4.4.6.9.6 1.5s-.2 1.1-.6 1.5a2 2 0 0 1-1.4.7c-.6 0-1-.2-1.5-.7-.4-.4-.5-.9-.5-1.5 0-.7.2-1.2.6-1.6a2 2 0 0 1 1.4-.5Zm0 .2a1 1 0 0 0-1 .4c-.2.3-.4.8-.4 1.5 0 .6.2 1.2.5 1.5.2.3.5.4.8.4.4 0 .8-.1 1-.4.3-.3.4-.8.4-1.4 0-.7-.2-1.3-.4-1.6-.3-.3-.6-.4-1-.4ZM102.6 20.6h2v-1.2l-.1-.4-.2-.2h-.4v-.2h1.8v.2h-.4l-.2.2v3.4l.2.2h.4v.2h-1.8v-.2h.2l.3-.1.1-.5v-1.2h-2V22l.1.4.2.2h.4v.2h-1.8v-.2h.2l.3-.1.1-.5v-3l-.2-.2h-.4v-.2h1.8v.2h-.4l-.2.2v1.6ZM109.4 18.6v1l-.2-.4-.2-.2h-1v3.5l.4.1h.2v.2h-1.8v-.2h.2l.3-.1.1-.5v-3h-.9s-.2 0-.3.2v.4h-.2v-1h3.4ZM111.8 18.6c.5 0 1 .2 1.4.6.4.4.6.9.6 1.5s-.2 1.1-.6 1.5c-.4.4-.9.7-1.5.7-.5 0-1-.2-1.4-.7-.4-.4-.6-.9-.6-1.5 0-.7.3-1.2.7-1.6a2 2 0 0 1 1.4-.5Zm0 .2a1 1 0 0 0-1 .4c-.2.3-.4.8-.4 1.5 0 .6.2 1.2.5 1.5.2.3.5.4.8.4.4 0 .7-.1 1-.4.2-.3.4-.8.4-1.4 0-.7-.2-1.3-.5-1.6-.2-.3-.5-.4-.9-.4ZM115.3 20.8v1.7l.4.1h.2v.2H114v-.2h.2l.3-.1v-3.6l-.3-.1h-.2v-.2h1.5c.4 0 .7 0 .9.2.2 0 .4.2.5.3.2.2.2.4.2.7 0 .3 0 .6-.3.8-.2.2-.5.3-1 .3a2.7 2.7 0 0 1-.6 0Zm0-.1a4.5 4.5 0 0 0 .5 0c.2 0 .4 0 .5-.2.2-.2.2-.4.2-.7v-.4l-.4-.4a.9.9 0 0 0-.4-.1h-.4v1.8ZM119.5 21.4h-1.6l-.3.6V22.6h.4v.2h-1.3v-.2h.3l.4-.7 1.4-3.3h.1l1.5 3.4c0 .2.2.4.3.5l.4.1v.2h-1.6v-.2h.3V22l-.3-.6Zm0-.2-.8-1.7-.7 1.7h1.4ZM52.8 34.4h-2.3v5.2l.5.5c.2.2.5.2 1 .2h.4v.4h-6.8v-.4h.4c.4 0 .7 0 1-.2l.3-.4V28.7l-.4-.4c-.2-.2-.5-.3-1-.3h-.3v-.3h6.8v.3h-.5l-.9.2a1 1 0 0 0-.4.5v4.9h2.2c.1-1.9.9-3.4 2.2-4.5a7 7 0 0 1 4.7-1.7 7 7 0 0 1 3.7 1c1 .5 1.8 1.4 2.3 2.4a7 7 0 0 1 .9 3.3c0 2-.6 3.5-1.9 4.9-1.2 1.3-3 2-5 2s-3.7-.6-5-1.8a6.8 6.8 0 0 1-2-4.8Zm6.9-6.3c-1 0-2 .5-2.6 1.5a9 9 0 0 0-.9 4.6c0 2 .3 3.4.9 4.5.6 1 1.4 1.6 2.6 1.6 1.1 0 2-.5 2.5-1.6a9 9 0 0 0 1-4.4c0-4.1-1.2-6.2-3.5-6.2ZM72.6 34.8v3.6l.1 1.3.5.5 1.2.1v.4h-6.6v-.4l1.2-.1.5-.5.1-1.3V30l-.1-1.4a1 1 0 0 0-.5-.4 3 3 0 0 0-1.2-.2v-.3h5.7c1.8 0 3.2.3 4 1 .8.6 1.2 1.5 1.2 2.5 0 .8-.2 1.5-.8 2.1a4 4 0 0 1-2.1 1.3l-3.2.2Zm0-6.4V34h.5c.8 0 1.4-.2 1.8-.6.4-.5.6-1.2.6-2.2 0-1-.2-1.7-.6-2.1-.4-.5-1-.7-1.9-.7h-.4ZM89.3 29.8c0-.7-.1-1.2-.3-1.4-.2-.2-.6-.4-1.2-.4h-.4v-.3h7v.3h-.5c-.6 0-1 .1-1.2.4-.2.2-.3.7-.3 1.5v8.6c0 .8 0 1.3.3 1.5.2.2.6.3 1.2.3h.4v.4h-7v-.4h.5c.6 0 1 0 1.2-.3.2-.3.3-.8.3-1.5v-7.1l-4.6 7.2c0 .6 0 1 .2 1.3.2.3.6.4 1.3.4h.4v.4h-7v-.4h.5c.6 0 1 0 1.2-.3.2-.3.2-.8.2-1.5v-8.6c0-.8 0-1.3-.2-1.5-.1-.3-.6-.4-1.2-.4h-.5v-.3h7v.3h-.4c-.6 0-1 .2-1.2.4-.2.3-.3.8-.3 1.5V37l4.6-7.2ZM107.7 27.4v4.5h-.3c-.3-1.2-.8-2-1.6-2.7a4 4 0 0 0-6.3 1.6c-.4 1-.7 2-.7 3.2 0 1.2.2 2.2.5 3.2s.7 1.7 1.4 2.2a4.7 4.7 0 0 0 4.7.2c.6-.4 1.4-1 2.1-1.9v1.1c-.7.8-1.5 1.3-2.3 1.7a7 7 0 0 1-2.7.5 8 8 0 0 1-3.7-.8 6 6 0 0 1-2.5-2.4c-.6-1-1-2.2-1-3.4a7 7 0 0 1 1-3.5 7.2 7.2 0 0 1 9-3l1.2.4c.2 0 .4 0 .6-.2l.3-.7h.3ZM121.2 27.7v3.5h-.3c-.2-.8-.5-1.4-.7-1.7-.3-.4-.6-.7-1-.9l-1.3-.2h-1v10l.1 1.3.5.5.8.1h.5v.4H112v-.4h.4c.4 0 .7 0 .9-.2.2 0 .3-.2.4-.4l.1-1.2v-10h-1c-.8 0-1.5.1-1.8.5-.6.5-1 1.2-1.1 2.2h-.4v-3.5h11.7ZM3.4 5.2h120.7v.7H3.4zM3.4 54.1h120.7v.7H3.4z"/></svg>