<svg xmlns="http://www.w3.org/2000/svg" viewBox="0 0 180 180" width="180" height="180"><defs><style>.a{fill:#f6f4f3}.b{fill:#c1b4a3}</style></defs><path d="M45 41.1c-1.9.9-1.9.7-1.9 6v4.7l1.2-.4 3.2-.9 3.1-1 1.1-.6.4-2.2c.4-2.6.3-3.2-1.4-4.6a5.1 5.1 0 0 0-5.7-1ZM131.1 40.9a7.9 7.9 0 0 0-3.2 2.8c-.3.7-.3 1 0 3l.4 2.2 1.1.5a16.3 16.3 0 0 0 3.1 1.1l3.3.9 1.1.4v-4.7c0-5.3 0-5.1-1.9-6a5.8 5.8 0 0 0-3.9-.2ZM59.1 42.9c-1.3.5-3.1 2.4-3.1 3.2s.1.7.7.5l2.6-.3c1.9-.1 2.1-.1 3.3.6a5.5 5.5 0 0 1 2.1 1.9 5.6 5.6 0 0 0 .8 1.1c.2-.1-.9-4.5-1.2-5.2a4.3 4.3 0 0 0-5.2-1.8ZM117.9 42.8a4.1 4.1 0 0 0-2.2 1.9 23 23 0 0 0-1.1 5 2.2 2.2 0 0 0 .8-1.1 5.5 5.5 0 0 1 2-1.7 4.7 4.7 0 0 1 3.3-.6l2.7.3c.5.2.6.1.6-.5s-.3-1-1.1-1.8-3.4-2.2-5-1.5ZM38.4 51.8l-1 3.6-.2.8 1.1-1 1.1-1.1v-5.2ZM140.6 51.7v2.4l1.1 1.1 1.1 1-.2-.8a41 41 0 0 0-1.9-6.1s-.1 1.1-.1 2.4ZM57.8 50.3a29.3 29.3 0 0 0-4.2 1.8 18.5 18.5 0 0 1-5.5 2.1c-5.3 1.1-8.5 3.9-10.7 9.3-1.1 2.5-1.1 2.6-1.5 6.9a71.2 71.2 0 0 0 1.8 22.8 68.2 68.2 0 0 0 4 11.4l1.4 3.1v11.7h30v-7.5l-1.2.6a17.7 17.7 0 0 1-5.4 1.3h-.9v-3.7l1.4-.2a11.6 11.6 0 0 0 5.1-1.8c1.1-.8 1.3-1.1 4.4-7.1l3.8-8.1c.4-1 1.1-5.8 1.8-15l.2-1.5-1.3 1.4c-2.1 2.4-3.6 3.8-5.1 4.5s-5.7 1.8-7.8 1.1a7.9 7.9 0 0 1-3.5-3c-.4-.8-.6-.9-1.1-.8a9 9 0 0 1-4.3.1l-1.1-.4.5.8c1.1 1.6 1.7 3.4 2.5 7a21.4 21.4 0 0 1 .6 3.8 15.1 15.1 0 0 1-3.5.6l-.8-3.6c-.8-4-1.3-5.1-3.1-7.2a14.1 14.1 0 0 1-3.3-6.1 35.3 35.3 0 0 1-.2-8.5 19.6 19.6 0 0 1 3.6-2.8c3.4-2.2 4.6-3.4 5.8-5.4a13.9 13.9 0 0 0 1.6-5.1c.1-1.5.1-1.6-.5-2.2s-1.7-.8-3.5-.3ZM118.7 50.6c-.6.6-.6.7-.5 2.2a13.9 13.9 0 0 0 1.6 5.1c1.2 2 2.4 3.2 5.8 5.4a19.6 19.6 0 0 1 3.6 2.8 33.7 33.7 0 0 1-.2 8.3 12.5 12.5 0 0 1-3.2 6.1c-2 2.4-2.4 3.4-3.2 7.4l-.8 3.5a24.5 24.5 0 0 1-3.5-.5 21.4 21.4 0 0 1 .6-3.8c.8-3.7 1.5-5.7 2.5-7.1l.5-.7-1.1.4a9 9 0 0 1-4.3-.1c-.5-.1-.7 0-1.1.8a7.1 7.1 0 0 1-3.6 3c-2.4.8-6.4 0-9.1-1.9a21.3 21.3 0 0 1-3-3c-1-1.1-1.8-2-1.9-1.9s.6 8.5 1 11.7 1.1 5.6 4.7 12.7 3.3 6.3 4.4 7.1a11.6 11.6 0 0 0 5.1 1.8l1.4.2v3.7h-.9a17.7 17.7 0 0 1-5.4-1.3l-1.2-.6v7.5h30v-11.7l1.4-3.2a70.2 70.2 0 0 0 4-11.3 71.4 71.4 0 0 0 1.8-22.8c-.4-4.2-.4-4.4-1.3-6.7a16.6 16.6 0 0 0-3.7-5.8 15.4 15.4 0 0 0-8.2-3.9 23.6 23.6 0 0 1-4.3-1.8c-4.3-2.3-6.8-2.8-7.9-1.6Z" class="a"/><path d="M67.9 53.8a109.2 109.2 0 0 1-8.2 15c-2.1 3.1-2.1 6 0 7.1a4 4 0 0 0 3.2-.1c1-.4 1.1-.4 2.4-3.2a60.6 60.6 0 0 1 8.2-12.4c1.4-1.5 1.5-1.6 1.2-2.5a6.9 6.9 0 0 0-1.4-3 8.6 8.6 0 0 0-2.6-2c-1.8-.9-2-.8-2.8 1.1ZM109.3 52.7a6.3 6.3 0 0 0-2.6 2 6.9 6.9 0 0 0-1.4 3c-.3.9-.2 1 1.2 2.5a54.8 54.8 0 0 1 8 12.2c1.5 3 1.6 3 2.6 3.4s3.4.4 4.3-1 .5-3.4-2-7.4a86.6 86.6 0 0 1-6.5-12c-1.1-2.3-1.6-3.2-1.9-3.2a3.7 3.7 0 0 0-1.7.5ZM76.1 62.9a50.4 50.4 0 0 0-7.3 11.2c-1.4 2.8-1.5 3.4-.9 4.5s3.3 1.8 6.1.5 2.1-1.3 6.5-6.5l2-2.3v-2.1a12.4 12.4 0 0 0-.3-3.1 6.5 6.5 0 0 0-3.6-3.5l-1-.3ZM101.4 61.6a6.8 6.8 0 0 0-3.6 3.5 12.4 12.4 0 0 0-.3 3.1v2.1l2 2.3c4.4 5.1 5 5.7 6.5 6.5s5.3 1.1 6.1-.5.5-1.7-.9-4.5a50.9 50.9 0 0 0-7.8-11.6c-1.1-1.2-1.1-1.2-2-.9ZM55.5 67.1l-1.1.8v4l.4-1.3a10.2 10.2 0 0 1 1.1-2.7 6.6 6.6 0 0 0 .7-1.5ZM124.1 67.8c.5.9.8 1.9 1.2 2.8l.3 1.3v-2c0-1.9 0-2.1-.6-2.4l-1.2-.8c-.5-.4-.5-.3.3 1.1Z" class="a"/><path d="M41.3 130.6v7.5H75v-15H41.3ZM105 130.6v7.5h33.8v-15H105ZM96.8 128.8a7.5 7.5 0 0 0-2.5-3.8 7.3 7.3 0 0 0-8.6 0 7.5 7.5 0 0 0-2.5 3.8h-4.4v3.7h4.4a6.8 6.8 0 0 0 2.5 3.7 6.9 6.9 0 0 0 8.6 0 6.8 6.8 0 0 0 2.5-3.7h4.5v-3.7Zm-6.8 5.3a3.6 3.6 0 0 1-2-.6 3 3 0 0 1-1.2-1.5 3.1 3.1 0 0 1-.2-2.1 3.4 3.4 0 0 1 .9-1.8 3.1 3.1 0 0 1 1.8-.9 2.7 2.7 0 0 1 2 .2 2.9 2.9 0 0 1 1.6 1.3 3.3 3.3 0 0 1 .6 1.9 3.6 3.6 0 0 1-1 2.5 3.5 3.5 0 0 1-2.5 1Z" class="b"/><path d="M43.1 146.6v4.7h30v-9.4h-30ZM106.9 146.6v4.7h30v-9.4h-30Z" class="a"/></svg>