<svg xmlns="http://www.w3.org/2000/svg" viewBox="0 0 180 180" width="180" height="180"><defs><style>.a{fill:#f6f4f3}.b{fill:#c1b4a3}</style></defs><path d="m41.9 38.1-.8.7v51.5c0 54.9 0 52.5 1.2 53H87l.8-1.5c.9-1.7.9-2 .5-3.4l-.2-.9-.6.6a5.9 5.9 0 0 1-4.7 2c-1.5 0-2.1-.2-4.9-1.4s-4.5-2.4-5.4-4.1a8.4 8.4 0 0 1-.3-4.8l.2-.9h-21l-.6-.6a2 2 0 0 1 .4-3.1c.3-.2 5.6-.3 11.9-.4h11.4l1.6-3.7a34.6 34.6 0 0 0 1.6-3.9c0-.1-5.9-.2-13.2-.2H51.4l-.6-.5c-.9-1-.7-2 .6-3.3l14.2-.2h14.1l1.7-3.7 1.6-3.7H67.2l-15.8-.2c-1-1-1.1-1.3-1.1-2a1.9 1.9 0 0 1 .5-1.3l.6-.6H113l.5.7a1.8 1.8 0 0 1-.1 2.5l-.6.7h-15l.7 1.2a7.2 7.2 0 0 1 1 2.2 5.8 5.8 0 0 1-.3 3.7c-.2.5 0 .5 1.9.5a28.5 28.5 0 0 0 4.2-.4 15.6 15.6 0 0 1 8.1.4c1.5.6 1.6.6 2.4.2a13.5 13.5 0 0 1 5.7-1.5h1.6v-57h-7c-6.7-.1-7-.2-7.9-.7a9.8 9.8 0 0 1-1.7-1.8l-.7-1.2V37.3h-63ZM84.2 49a3.7 3.7 0 0 1 1.7 1.3l.7.9 1.6-.2a16.2 16.2 0 0 1 7 .8c2.4.8 3.6.9 7.9.3 1-.1 1.2 0 1.7.5s2.4 3.8 4.8 7.8c4.8 8.2 4.7 8 3.4 10.8a10.5 10.5 0 0 1-17.1 3.1 10 10 0 0 1-2.9-5.4c-.1-1.2 0-1.5 3.1-6.6l3.1-5.3-1.3-.2-3.6-.9c-3-1-3.7-1.1-5.6-.9s-1.7.2-2.3 1.1a4.6 4.6 0 0 1-1.5 1.6l-.9.6v21.3l1.4.3a14.8 14.8 0 0 1 6.9 4c1.8 1.8 2.4 2.8 2 3.4s-4 .3-12.3.3c-10.8 0-12.2-.1-12.3-.4s2.6-4.2 4.9-5.6a19.9 19.9 0 0 1 5-1.9c.3 0 .4-1.3.4-10.6V58.4l-1.2-1.2a8.8 8.8 0 0 1-1.5-1.7c-.2-.4-.6-.5-2.7-.5a10.9 10.9 0 0 0-4.7.8 26.7 26.7 0 0 1-3.6.9L65 57l3.2 5.5c3.1 5.2 3.2 5.4 3 6.5-.4 2.8-2.9 6-5.9 7.5s-1.8.8-4.5.8-4.3-.4-6.5-2.1-4.5-5.8-3.8-7.5 2.2-4 4.6-8.1c4.8-8.1 4.6-7.9 7.1-7.4a12 12 0 0 0 7-.4c2.1-.8 2.5-.8 5.3-.8h3.1l.8-.9a5.1 5.1 0 0 1 5.8-1.1Z" class="a"/><path d="m58.9 61.2-2.5 4.1-.5 1h9.8l-2.3-3.9a36.1 36.1 0 0 0-2.5-4.1 12.1 12.1 0 0 0-2 2.9ZM100.9 62.1l-2.4 4h9.6c.1-.1-4.6-8.1-4.8-8.1Z" class="a"/><path d="M109.7 43.6a57.3 57.3 0 0 0 .2 6.4c.3.5.6.5 6.5.5a50.9 50.9 0 0 0 6.2-.2c0-.2-12.5-12.7-12.7-12.7a47.6 47.6 0 0 0-.2 6ZM87.4 106.3c-.5.4-11.5 24.9-11.5 25.6s.7 1.8 2.9 2.8 4 1.7 4.8 1.4a2 2 0 0 0 1-.8c.3-.4 2.8-6.1 5.8-12.7 5.6-12.8 5.7-13 4.6-14a23.6 23.6 0 0 0-6.4-2.7 2.5 2.5 0 0 0-1.2.4Zm3.8 4.1a1.4 1.4 0 0 1-.1 2.1c-1.3 1.3-3.2-.4-2.2-2.1s1.6-.6 2.3 0ZM139.6 108.6c-4.5 1.9-4.6.4 1.4 15.8 2.9 7.4 5.2 13 5.4 13.2s1.6.6 4.5-.5l3.3-1.4c1.1-1 1-1.4-4.2-14.6-2.6-6.9-5-12.8-5.3-13s-1.9-.8-5.1.5Zm3.2 3.3a1.6 1.6 0 0 1-1.1 2.6 1.9 1.9 0 0 1-1.6-1.6 1.6 1.6 0 0 1 2.7-1Z" class="b"/><path d="M119.5 116.1c-2.5.8-3.9 1.9-8 5.6-1.4 1.2-3.4 2.9-4.7 3.8s-2.1 1.6-1.8 2a5 5 0 0 0 1.8.9c1.9.5 3.5.3 6.6-.8 7-2.6 6.7-2.5 9-2.5s2-.3 11.4 5.1c3.4 1.9 6.2 3.5 6.3 3.4s-1.2-3.5-2.8-7.5l-2.9-7.4-1.9-.2a19.4 19.4 0 0 1-5-1.3c-3.6-1.4-6.2-1.7-8-1.1Z" class="a"/><path d="M104 117a14.3 14.3 0 0 1-4.2.4l-2-.2a147.4 147.4 0 0 0-7.4 15.7 1.5 1.5 0 0 0 .5.8 1.3 1.3 0 0 1 .5.7 4.1 4.1 0 0 0 .3.8c.4.4.4.4 1.2 0a6.3 6.3 0 0 1 2.3-.4 5.7 5.7 0 0 1 5.5 3.5c.3.7.5.8 1.4 1a6.3 6.3 0 0 1 4.2 2.5c.7 1.1.7 1.1 2.1 1.1a5.7 5.7 0 0 1 4.6 2.4c.8 1.1.9 1.2 2.1 1.2a5.3 5.3 0 0 1 3.7 1.4 49 49 0 0 0 8.5 4.7 2.1 2.1 0 0 0 1.7-1.8 2 2 0 0 0-.6-1.2l-5.6-3.4c-4.1-2.3-5.2-3-5.4-3.6a1.9 1.9 0 0 1 2.4-2.5c.4.1 3.5 1.8 6.7 3.6 6.2 3.4 7.1 3.8 7.9 2.8a2.1 2.1 0 0 0 0-2.4l-5-2.9a31.2 31.2 0 0 1-5-3.1 1.9 1.9 0 0 1 .2-2.7c1.1-1 .9-1 7.4 2.6a37.9 37.9 0 0 0 4.8 2.4 2.4 2.4 0 0 0 1.8-1.8c0-.9-1.1-1.7-8-5.6s-6.8-3.9-8.4-3.9a14.8 14.8 0 0 0-4.3 1.1c-5.5 2.2-7.2 2.6-9.4 2.6a8.9 8.9 0 0 1-6-2c-1.9-1.6-2.7-2.7-2.9-3.9s-.1-1 .7-1.8l2.9-2.1c3.6-2.2 8-6.1 7.4-6.5s-3.8-.2-6.6.5ZM94.4 139c-.7.3-3.5 5.2-3.5 6.1a2.1 2.1 0 0 0 .5 1.2 1.5 1.5 0 0 0 1.5.7c.9-.1 1-.2 2.5-2.9a16.3 16.3 0 0 0 1.7-3.5 1.9 1.9 0 0 0-2.7-1.6ZM100.6 143.6a53.1 53.1 0 0 0-4.3 7.4 2.1 2.1 0 0 0 1.3 2.1 3 3 0 0 0 1.3-.1c.6-.3 1.1-1 2.6-3.9a22.2 22.2 0 0 0 1.8-4.1 1.8 1.8 0 0 0-2.7-1.4ZM107.2 147.2a33.6 33.6 0 0 0-1.9 3.4c-1.5 2.8-1.7 3.3-1.5 3.8a1.8 1.8 0 0 0 3.1.5 26.1 26.1 0 0 0 2-3.5l1.4-2.9-.5-.7a2.4 2.4 0 0 0-2.6-.6ZM113.8 150.9l-1.7 3.2c-1.5 2.7-1.5 2.9-1.1 3.5a1.7 1.7 0 0 0 2.4.8c.9-.5 3.3-4.9 3.4-6a1.8 1.8 0 0 0-1.9-1.8c-.4 0-1 .1-1.1.3ZM120 155.6c-.6 1.3-.7 1.6-.4 1.8a1.7 1.7 0 0 0 2.2.1 1.8 1.8 0 0 0-.4-3.2l-.7-.4Z" class="a"/></svg>