<svg xmlns="http://www.w3.org/2000/svg" width="24" height="24" fill="#C1B4A3"><path d="M12 0a12 12 0 1 0 0 24 12 12 0 0 0 0-24Zm5.56 8.16c-.17 1.9-.96 6.5-1.36 8.63-.16.9-.5 1.2-.81 1.23-.7.06-1.23-.46-1.9-.9-1.06-.7-1.66-1.13-2.68-1.8-1.19-.78-.42-1.22.26-1.92.18-.18 3.24-2.97 3.3-3.22.01-.04.02-.15-.06-.22-.07-.06-.17-.04-.24-.02-.11.02-1.8 1.14-5.07 3.34-.47.33-.9.5-1.3.48a8.64 8.64 0 0 1-1.86-.44c-.75-.24-1.35-.37-1.3-.79.02-.21.32-.43.9-.66 3.5-1.52 5.82-2.53 7-3.02 3.32-1.38 4.02-1.62 4.47-1.63.1 0 .32.02.46.14.1.08.16.2.17.32.03.16.03.32.02.48Z"/></svg>